<svg width="32" height="33" viewBox="0 0 32 33" fill="none" xmlns="http://www.w3.org/2000/svg">
<path fill-rule="evenodd" clip-rule="evenodd" d="M15.9997 1.8335C7.89978 1.8335 1.3335 8.39978 1.3335 16.4997C1.3335 24.5996 7.89978 31.1659 15.9997 31.1659C24.0996 31.1659 30.6659 24.5996 30.6659 16.4997C30.6659 8.39978 24.0996 1.8335 15.9997 1.8335ZM16.9997 10.5002C16.9997 9.94788 16.552 9.50016 15.9997 9.50016C15.4474 9.50016 14.9997 9.94788 14.9997 10.5002V16.5C14.9997 17.0522 15.4474 17.5 15.9997 17.5C16.552 17.5 16.9997 17.0522 16.9997 16.5V10.5002ZM16.9997 22.4995C16.9997 21.9472 16.552 21.4995 15.9997 21.4995C15.4474 21.4995 14.9997 21.9472 14.9997 22.4995V23.1661C14.9997 23.7184 15.4474 24.1661 15.9997 24.1661C16.552 24.1661 16.9997 23.7184 16.9997 23.1661V22.4995Z" fill="white"/>
</svg>
