<svg width="18" height="17" viewBox="0 0 18 17" fill="none" xmlns="http://www.w3.org/2000/svg">

<path d="M9.4942 14.0221C9.18248 14.2949 8.70865 14.2633 8.43589 13.9516C8.16313 13.6398 8.19472 13.166 8.50645 12.8932L9.4942 14.0221ZM14.667 8.49935L15.1609 7.93492C15.3236 8.07733 15.417 8.28308 15.417 8.49935C15.417 8.71562 15.3236 8.92137 15.1609 9.06378L14.667 8.49935ZM8.50645 4.10545C8.19472 3.83269 8.16313 3.35886 8.43589 3.04714C8.70866 2.73541 9.18248 2.70382 9.4942 2.97658L8.50645 4.10545ZM8.50645 12.8932L14.1731 7.93492L15.1609 9.06378L9.4942 14.0221L8.50645 12.8932ZM14.1731 9.06378L8.50645 4.10545L9.4942 2.97658L15.1609 7.93492L14.1731 9.06378Z" fill="white"/>
<path d="M3.82721 14.0221C3.51548 14.2949 3.04166 14.2633 2.7689 13.9516C2.49614 13.6398 2.52773 13.166 2.83945 12.8932L3.82721 14.0221ZM9 8.49935L9.49388 7.93492C9.65664 8.07733 9.75 8.28308 9.75 8.49935C9.75 8.71562 9.65664 8.92137 9.49388 9.06378L9 8.49935ZM2.83946 4.10545C2.52773 3.83269 2.49614 3.35886 2.7689 3.04714C3.04166 2.73541 3.51548 2.70382 3.82721 2.97658L2.83946 4.10545ZM2.83945 12.8932L8.50612 7.93492L9.49388 9.06378L3.82721 14.0221L2.83945 12.8932ZM8.50612 9.06378L2.83946 4.10545L3.82721 2.97658L9.49388 7.93492L8.50612 9.06378Z" fill="white"/>
</svg>
