<svg width="17" height="17" viewBox="0 0 17 17" fill="white" xmlns="http://www.w3.org/2000/svg">
<path fill-rule="evenodd" clip-rule="evenodd" d="M6.37484 0.708333C6.37484 0.317132 6.05771 0 5.6665 0C5.2753 0 4.95817 0.317132 4.95817 0.708333V1.41667H3.5415C2.94629 1.41667 2.41867 1.69617 2.0508 2.06931C1.68429 2.44107 1.4165 2.96629 1.4165 3.54167V13.4583C1.4165 14.0337 1.68429 14.5589 2.0508 14.9307C2.41867 15.3038 2.94629 15.5833 3.5415 15.5833H13.4582C14.0534 15.5833 14.581 15.3038 14.9489 14.9307C15.3154 14.5589 15.5832 14.0337 15.5832 13.4583V3.54167C15.5832 2.49926 14.7226 1.41667 13.5327 1.41667H12.0415V0.708333C12.0415 0.317132 11.7244 0 11.3332 0C10.942 0 10.6248 0.317132 10.6248 0.708333V1.41667H6.37484V0.708333ZM3.5415 2.83333H4.95817V3.54167C4.95817 3.93287 5.2753 4.25 5.6665 4.25C6.05771 4.25 6.37484 3.93287 6.37484 3.54167V2.83333H10.6248V3.54167C10.6248 3.93287 10.942 4.25 11.3332 4.25C11.7244 4.25 12.0415 3.93287 12.0415 3.54167V2.83333H13.5327C13.8253 2.83333 14.1665 3.16152 14.1665 3.54167V5.66667H2.83317V3.54167C2.83317 3.40577 2.90311 3.22266 3.05963 3.0639C3.21478 2.90652 3.39549 2.83333 3.5415 2.83333ZM4.95817 8.45833C4.54396 8.45833 4.20817 8.79412 4.20817 9.20833C4.20817 9.62255 4.54396 9.95833 4.95817 9.95833H5.6665C6.08072 9.95833 6.4165 9.62255 6.4165 9.20833C6.4165 8.79412 6.08072 8.45833 5.6665 8.45833H4.95817ZM8.14567 8.45833C7.73146 8.45833 7.39567 8.79412 7.39567 9.20833C7.39567 9.62255 7.73146 9.95833 8.14567 9.95833H8.854C9.26822 9.95833 9.604 9.62255 9.604 9.20833C9.604 8.79412 9.26822 8.45833 8.854 8.45833H8.14567ZM11.3332 8.45833C10.919 8.45833 10.5832 8.79412 10.5832 9.20833C10.5832 9.62255 10.919 9.95833 11.3332 9.95833H12.0415C12.4557 9.95833 12.7915 9.62255 12.7915 9.20833C12.7915 8.79412 12.4557 8.45833 12.0415 8.45833H11.3332ZM4.95817 11.2917C4.54396 11.2917 4.20817 11.6275 4.20817 12.0417C4.20817 12.4559 4.54396 12.7917 4.95817 12.7917H8.854C9.26822 12.7917 9.604 12.4559 9.604 12.0417C9.604 11.6275 9.26822 11.2917 8.854 11.2917H4.95817ZM11.3332 11.2917C10.919 11.2917 10.5832 11.6275 10.5832 12.0417C10.5832 12.4559 10.919 12.7917 11.3332 12.7917H12.0415C12.4557 12.7917 12.7915 12.4559 12.7915 12.0417C12.7915 11.6275 12.4557 11.2917 12.0415 11.2917H11.3332Z" />
</svg>
