<svg width="15" height="17" viewBox="0 0 15 17" fill="none" xmlns="http://www.w3.org/2000/svg">
<path fill-rule="evenodd" clip-rule="evenodd" d="M3.60415 1.45208C3.60415 0.699651 4.1662 0 5.02081 0H9.97915C10.8338 0 11.3958 0.699651 11.3958 1.45208V1.4875H12.0156C13.2302 1.4875 14.2291 2.46273 14.2291 3.68333V14.8042C14.2291 16.0248 13.2302 17 12.0156 17H2.98435C1.76978 17 0.770813 16.0248 0.770813 14.8042V3.68333C0.770813 2.46273 1.76978 1.4875 2.98435 1.4875H3.60415V1.45208ZM5.02081 2.125C5.02081 1.7338 5.33794 1.41667 5.72915 1.41667H9.27081C9.66201 1.41667 9.97915 1.7338 9.97915 2.125C9.97915 2.5162 9.66201 2.83333 9.27081 2.83333H5.72915C5.33795 2.83333 5.02081 2.5162 5.02081 2.125ZM4.31248 6.33333C3.89827 6.33333 3.56248 6.66912 3.56248 7.08333C3.56248 7.49755 3.89827 7.83333 4.31248 7.83333H10.6875C11.1017 7.83333 11.4375 7.49755 11.4375 7.08333C11.4375 6.66912 11.1017 6.33333 10.6875 6.33333H4.31248ZM4.31248 9.16667C3.89827 9.16667 3.56248 9.50245 3.56248 9.91667C3.56248 10.3309 3.89827 10.6667 4.31248 10.6667H7.49998C7.91419 10.6667 8.24998 10.3309 8.24998 9.91667C8.24998 9.50245 7.91419 9.16667 7.49998 9.16667H4.31248Z" fill="white"/>
</svg>
