<svg width="84" height="84" viewBox="0 0 84 84" fill="none" xmlns="http://www.w3.org/2000/svg">
<g opacity="0.2">
<path d="M80.4903 49.6105V65.0067H72.7922L72.7921 74.6293H57.3959L57.3961 65.0067H26.6037L26.6036 74.6293H11.2075L11.2076 65.0067H3.5095V49.6105C3.5095 44.4785 2.7397 34.2144 15.0566 34.2144L18.9057 18.8182C18.9057 16.2522 20.4453 11.1201 26.6037 11.1201H57.3961C63.5545 11.1201 65.0941 16.2522 65.0941 18.8182L68.9432 34.2144C81.2601 34.2144 80.4903 44.4785 80.4903 49.6105Z" fill="#222222"/>
<path d="M68.9432 34.2144C81.2601 34.2144 80.4903 44.4785 80.4903 49.6105V65.0067H72.7922M68.9432 34.2144C58.6791 34.2144 27.3735 34.2144 15.0566 34.2144M68.9432 34.2144L65.0941 18.8182C65.0941 16.2522 63.5545 11.1201 57.3961 11.1201C49.698 11.1201 32.7622 11.1201 26.6037 11.1201C20.4453 11.1201 18.9057 16.2522 18.9057 18.8182L15.0566 34.2144M15.0566 34.2144C2.7397 34.2144 3.5095 44.4785 3.5095 49.6105V65.0067H11.2076M11.2076 65.0067H26.6037M11.2076 65.0067L11.2075 74.6293H26.6036L26.6037 65.0067M26.6037 65.0067H57.3961M72.7922 65.0067H57.3961M72.7922 65.0067L72.7921 74.6293H57.3959L57.3961 65.0067" stroke="#222222" stroke-width="2" stroke-linecap="round" stroke-linejoin="round"/>
<path fill-rule="evenodd" clip-rule="evenodd" d="M18.9057 30.3649H65.0942L61.795 20.1008C61.795 18.3901 60.4753 14.9688 55.1966 14.9688H28.8032C23.5245 14.9688 22.2049 18.3901 22.2049 20.1008L18.9057 30.3649ZM15.0566 43.2611C13.6759 43.2611 12.5566 44.3804 12.5566 45.7611C12.5566 47.1418 13.6759 48.2611 15.0566 48.2611H22.7547C24.1354 48.2611 25.2547 47.1418 25.2547 45.7611C25.2547 44.3804 24.1354 43.2611 22.7547 43.2611H15.0566ZM61.2451 43.2611C59.8644 43.2611 58.7451 44.3804 58.7451 45.7611C58.7451 47.1418 59.8644 48.2611 61.2451 48.2611H68.9432C70.3239 48.2611 71.4432 47.1418 71.4432 45.7611C71.4432 44.3804 70.3239 43.2611 68.9432 43.2611H61.2451Z" fill="#42484F"/>
</g>
</svg>
