<svg width="28" height="28" viewBox="0 0 28 28" fill="none" xmlns="http://www.w3.org/2000/svg">
<g clip-path="url(#clip0_1205_380901)">
<circle cx="14" cy="14" r="13" stroke="white" stroke-width="2"/>
<path d="M11.5205 7.80762V6.80762C10.9682 6.80762 10.5205 7.25533 10.5205 7.80762H11.5205ZM10.5205 20.5838C10.5205 21.1361 10.9682 21.5838 11.5205 21.5838C12.0728 21.5838 12.5205 21.1361 12.5205 20.5838H10.5205ZM9.22729 12.9648C8.67501 12.9648 8.22729 13.4125 8.22729 13.9648C8.22729 14.5171 8.67501 14.9648 9.22729 14.9648V12.9648ZM9.22729 16.5052C8.67501 16.5052 8.22729 16.9529 8.22729 17.5052C8.22729 18.0575 8.67501 18.5052 9.22729 18.5052V16.5052ZM15.3424 18.5052C15.8947 18.5052 16.3424 18.0575 16.3424 17.5052C16.3424 16.9529 15.8947 16.5052 15.3424 16.5052V18.5052ZM10.5205 7.80762V13.9648H12.5205V7.80762H10.5205ZM10.5205 13.9648V17.5052H12.5205V13.9648H10.5205ZM10.5205 17.5052V20.5838H12.5205V17.5052H10.5205ZM11.5205 12.9648H9.22729V14.9648H11.5205V12.9648ZM9.22729 18.5052H11.5205V16.5052H9.22729V18.5052ZM11.5205 18.5052H15.3424V16.5052H11.5205V18.5052ZM18.1644 10.8862C18.1644 12.0407 17.2367 12.9648 16.1068 12.9648V14.9648C18.3542 14.9648 20.1644 13.1323 20.1644 10.8862H18.1644ZM16.1068 8.80762C17.2367 8.80762 18.1644 9.73176 18.1644 10.8862H20.1644C20.1644 8.64015 18.3542 6.80762 16.1068 6.80762V8.80762ZM16.1068 6.80762H11.5205V8.80762H16.1068V6.80762ZM16.1068 12.9648H11.5205V14.9648H16.1068V12.9648Z" fill="white"/>
</g>
<defs>
<clipPath id="clip0_1205_380901">
<rect width="28" height="28" fill="white"/>
</clipPath>
</defs>
</svg>
