<svg width="16" height="16" viewBox="0 0 16 16" fill="white" xmlns="http://www.w3.org/2000/svg">
<g clip-path="url(#clip0_867_37254)">
<path d="M6.66667 11.5847L13.0273 5.20219L11.9781 4.15301L6.66667 9.46448L4.10929 6.92896L3.06011 7.97814L6.66667 11.5847ZM1.48634 16C1.0929 16 0.746812 15.8506 0.448088 15.5519C0.149363 15.2532 0 14.9071 0 14.5137V1.48634C0 1.07832 0.149363 0.728598 0.448088 0.437158C0.746812 0.145719 1.0929 0 1.48634 0H14.5137C14.9217 0 15.2714 0.145719 15.5628 0.437158C15.8543 0.728598 16 1.07832 16 1.48634V14.5137C16 14.9071 15.8543 15.2532 15.5628 15.5519C15.2714 15.8506 14.9217 16 14.5137 16H1.48634ZM1.48634 14.5137H14.5137V1.48634H1.48634V14.5137ZM1.48634 1.48634V14.5137V1.48634Z" />
</g>
<defs>
<clipPath id="clip0_867_37254">
<rect width="16" height="16" />
</clipPath>
</defs>
</svg>
