<svg width="21" height="21" viewBox="0 0 21 21" fill="none" xmlns="http://www.w3.org/2000/svg">
<g clip-path="url(#clip0_4523_13984)">
<path fill-rule="evenodd" clip-rule="evenodd" d="M10.5 0.875C5.18426 0.875 0.875 5.18426 0.875 10.5C0.875 15.8157 5.18426 20.125 10.5 20.125C15.8157 20.125 20.125 15.8157 20.125 10.5C20.125 5.18426 15.8157 0.875 10.5 0.875ZM11.5 7C11.5 6.44772 11.0523 6 10.5 6C9.94772 6 9.5 6.44772 9.5 7V11.6273L8.57332 10.7232C8.17801 10.3376 7.54489 10.3454 7.15922 10.7407C6.77354 11.136 6.78136 11.7691 7.17668 12.1548L9.80168 14.7158C10.1901 15.0947 10.8099 15.0947 11.1983 14.7158L13.8233 12.1548C14.2186 11.7691 14.2265 11.136 13.8408 10.7407C13.4551 10.3454 12.822 10.3376 12.4267 10.7232L11.5 11.6273V7Z" fill="#FF4741"/>
</g>
<defs>
<clipPath id="clip0_4523_13984">
<rect width="21" height="21" fill="white"/>
</clipPath>
</defs>
</svg>
