<svg width="21" height="21" viewBox="0 0 21 21" fill="none" xmlns="http://www.w3.org/2000/svg">
<path fill-rule="evenodd" clip-rule="evenodd" d="M10.5 0.875C5.18426 0.875 0.875 5.18426 0.875 10.5C0.875 15.8157 5.18426 20.125 10.5 20.125C15.8157 20.125 20.125 15.8157 20.125 10.5C20.125 5.18426 15.8157 0.875 10.5 0.875ZM9.5 14C9.5 14.5523 9.94771 15 10.5 15C11.0523 15 11.5 14.5523 11.5 14L11.5 9.37268L12.4267 10.2768C12.822 10.6624 13.4551 10.6546 13.8408 10.2593C14.2265 9.86398 14.2186 9.23087 13.8233 8.84519L11.1983 6.28422C10.8099 5.90526 10.1901 5.90526 9.80168 6.28422L7.17668 8.84519C6.78136 9.23087 6.77354 9.86398 7.15922 10.2593C7.54489 10.6546 8.17801 10.6624 8.57332 10.2768L9.5 9.37268V14Z" fill="#88B114"/>
</svg>
