<svg width="17" height="16" viewBox="0 0 17 16" fill="none" xmlns="http://www.w3.org/2000/svg">
<path fill-rule="evenodd" clip-rule="evenodd" d="M8.50008 0.666016C4.44999 0.666016 1.16675 3.94926 1.16675 7.99935C1.16675 12.0494 4.44999 15.3327 8.50008 15.3327C12.5502 15.3327 15.8334 12.0494 15.8334 7.99935C15.8334 3.94926 12.5502 0.666016 8.50008 0.666016ZM9.25008 4.99935C9.25008 4.58514 8.9143 4.24935 8.50008 4.24935C8.08587 4.24935 7.75008 4.58514 7.75008 4.99935V7.99935C7.75008 8.25011 7.87541 8.48429 8.08406 8.62339L10.0841 9.95672C10.4287 10.1865 10.8944 10.0934 11.1241 9.74871C11.3539 9.40406 11.2608 8.93841 10.9161 8.70864L9.25008 7.59796V4.99935Z" fill="#B4B4B4"/>
</svg>
