<svg width="15" height="17" viewBox="0 0 15 17" fill="none" xmlns="http://www.w3.org/2000/svg">
<path fill-rule="evenodd" clip-rule="evenodd" d="M4.44548 4.41865C4.44548 2.77009 5.80365 1.41667 7.50016 1.41667C9.19667 1.41667 10.5549 2.77009 10.5549 4.41865V6.67857H4.44548V4.41865ZM11.9715 4.41865V6.67857H12.0158C13.2288 6.67857 14.2293 7.65078 14.2293 8.87103V14.8075C14.2293 16.0278 13.2288 17 12.0158 17H2.98454C1.77148 17 0.770996 16.0278 0.770996 14.8075V8.87103C0.770996 7.65078 1.77148 6.67857 2.98454 6.67857H3.02881V4.41865C3.02881 1.96891 5.04015 0 7.50016 0C9.96017 0 11.9715 1.96891 11.9715 4.41865ZM8.25016 11.0972C8.25016 10.683 7.91438 10.3472 7.50016 10.3472C7.08595 10.3472 6.75016 10.683 6.75016 11.0972V12.5814C6.75016 12.9956 7.08595 13.3314 7.50016 13.3314C7.91438 13.3314 8.25016 12.9956 8.25016 12.5814V11.0972Z" fill="#FF4741"/>
</svg>
