<svg width="84" height="84" viewBox="0 0 84 84" fill="none" xmlns="http://www.w3.org/2000/svg">
<g opacity="0.2">
<path fill-rule="evenodd" clip-rule="evenodd" d="M0 14L2.90681e-06 70C2.90681e-06 75.799 4.4072 80.5 9.84375 80.5H13C13.5523 80.5 14 80.0523 14 79.5L14 53.5C14 52.9477 14.4477 52.5 15 52.5L37.5 52.5C38.0523 52.5 38.5 52.9477 38.5 53.5V79.5C38.5 80.0523 38.9477 80.5 39.5 80.5H42.6563H83C83.5523 80.5 84 80.0523 84 79.5V49.8022C84 49.3335 83.6745 48.9277 83.2169 48.826L52.5 42L52.5 14C52.5 8.20101 48.0928 3.5 42.6562 3.5L9.84375 3.5C4.4072 3.5 -2.53482e-07 8.20101 0 14ZM11.5 38.5C11.5 39.8807 12.6193 41 14 41C15.3807 41 16.5 39.8807 16.5 38.5V35C16.5 33.6193 15.3807 32.5 14 32.5C12.6193 32.5 11.5 33.6193 11.5 35V38.5ZM11.5 21C11.5 22.3807 12.6193 23.5 14 23.5C15.3807 23.5 16.5 22.3807 16.5 21V17.5C16.5 16.1193 15.3807 15 14 15C12.6193 15 11.5 16.1193 11.5 17.5V21ZM36 38.5C36 39.8807 37.1193 41 38.5 41C39.8807 41 41 39.8807 41 38.5L41 35C41 33.6193 39.8807 32.5 38.5 32.5C37.1193 32.5 36 33.6193 36 35L36 38.5ZM36 21C36 22.3807 37.1193 23.5 38.5 23.5C39.8807 23.5 41 22.3807 41 21V17.5C41 16.1193 39.8807 15 38.5 15C37.1193 15 36 16.1193 36 17.5V21ZM62 70C62 71.3807 60.8807 72.5 59.5 72.5H57.75C56.3693 72.5 55.25 71.3807 55.25 70C55.25 68.6193 56.3693 67.5 57.75 67.5H59.5C60.8807 67.5 62 68.6193 62 70ZM59.5 58.5C60.8807 58.5 62 57.3807 62 56C62 54.6193 60.8807 53.5 59.5 53.5H57.75C56.3693 53.5 55.25 54.6193 55.25 56C55.25 57.3807 56.3693 58.5 57.75 58.5H59.5ZM76 70C76 71.3807 74.8807 72.5 73.5 72.5H71.75C70.3693 72.5 69.25 71.3807 69.25 70C69.25 68.6193 70.3693 67.5 71.75 67.5H73.5C74.8807 67.5 76 68.6193 76 70ZM73.5 58.5C74.8807 58.5 76 57.3807 76 56C76 54.6193 74.8807 53.5 73.5 53.5H71.75C70.3693 53.5 69.25 54.6193 69.25 56C69.25 57.3807 70.3693 58.5 71.75 58.5H73.5Z" fill="#222222"/>
</g>
</svg>
