<svg width="21" height="21" viewBox="0 0 21 21" fill="none" xmlns="http://www.w3.org/2000/svg">
<path d="M18.5 10.5C18.5 14.9183 14.9183 18.5 10.5 18.5V20C15.7467 20 20 15.7467 20 10.5H18.5ZM10.5 18.5C6.08172 18.5 2.5 14.9183 2.5 10.5H1C1 15.7467 5.2533 20 10.5 20V18.5ZM2.5 10.5C2.5 6.08172 6.08172 2.5 10.5 2.5V1C5.2533 1 1 5.2533 1 10.5H2.5ZM10.5 2.5C14.9183 2.5 18.5 6.08172 18.5 10.5H20C20 5.2533 15.7467 1 10.5 1V2.5Z" fill="#B4B4B4"/>
<path d="M7.34467 12.5947C7.05178 12.8876 7.05178 13.3624 7.34467 13.6553C7.63756 13.9482 8.11244 13.9482 8.40533 13.6553L7.34467 12.5947ZM13.6553 8.40533C13.9482 8.11244 13.9482 7.63756 13.6553 7.34467C13.3624 7.05178 12.8876 7.05178 12.5947 7.34467L13.6553 8.40533ZM12.5947 13.6553C12.8876 13.9482 13.3624 13.9482 13.6553 13.6553C13.9482 13.3624 13.9482 12.8876 13.6553 12.5947L12.5947 13.6553ZM8.40533 7.34467C8.11244 7.05178 7.63756 7.05178 7.34467 7.34467C7.05178 7.63756 7.05178 8.11244 7.34467 8.40533L8.40533 7.34467ZM8.40533 13.6553L11.0303 11.0303L9.96967 9.96967L7.34467 12.5947L8.40533 13.6553ZM11.0303 11.0303L13.6553 8.40533L12.5947 7.34467L9.96967 9.96967L11.0303 11.0303ZM9.96967 11.0303L12.5947 13.6553L13.6553 12.5947L11.0303 9.96967L9.96967 11.0303ZM11.0303 9.96967L8.40533 7.34467L7.34467 8.40533L9.96967 11.0303L11.0303 9.96967Z" fill="#B4B4B4"/>
</svg>
