<svg width="17" height="17" viewBox="0 0 17 17" fill="#B4B4B4" xmlns="http://www.w3.org/2000/svg">
<path d="M8.50001 10.6253L7.97461 11.1605C8.26634 11.4469 8.73368 11.4469 9.02541 11.1605L8.50001 10.6253ZM9.25001 1.41699C9.25001 1.00278 8.91422 0.666992 8.50001 0.666992C8.08579 0.666992 7.75001 1.00278 7.75001 1.41699L9.25001 1.41699ZM6.17347 7.29048C5.87788 7.00031 5.40303 7.00471 5.11286 7.3003C4.82269 7.59589 4.82708 8.07075 5.12267 8.36092L6.17347 7.29048ZM11.8773 8.36092C12.1729 8.07075 12.1773 7.59589 11.8872 7.3003C11.597 7.00471 11.1221 7.00032 10.8265 7.29049L11.8773 8.36092ZM2.875 10.8447C2.875 10.4304 2.53921 10.0947 2.125 10.0947C1.71079 10.0947 1.375 10.4304 1.375 10.8447H2.875ZM15.625 10.8447C15.625 10.4304 15.2892 10.0947 14.875 10.0947C14.4608 10.0947 14.125 10.4304 14.125 10.8447H15.625ZM9.25001 10.6253L9.25001 1.41699L7.75001 1.41699L7.75001 10.6253L9.25001 10.6253ZM9.02541 10.0901L6.17347 7.29048L5.12267 8.36092L7.97461 11.1605L9.02541 10.0901ZM9.02541 11.1605L11.8773 8.36092L10.8265 7.29049L7.97461 10.0901L9.02541 11.1605ZM1.375 10.8447V13.8802H2.875V10.8447H1.375ZM3.46726 15.9795H13.5327V14.4795H3.46726V15.9795ZM15.625 13.8802V10.8447H14.125V13.8802H15.625ZM13.5327 15.9795C14.6919 15.9795 15.625 15.036 15.625 13.8802H14.125C14.125 14.2149 13.8562 14.4795 13.5327 14.4795V15.9795ZM1.375 13.8802C1.375 15.036 2.30807 15.9795 3.46726 15.9795V14.4795C3.14383 14.4795 2.875 14.2149 2.875 13.8802H1.375Z" />
</svg>
