<svg width="16" height="16" viewBox="0 0 16 16" fill="none" xmlns="http://www.w3.org/2000/svg">
<g clip-path="url(#clip0_1069_366638)">
<path d="M14.0834 9.7735C14.0834 9.35928 13.7476 9.0235 13.3334 9.0235C12.9192 9.0235 12.5834 9.35928 12.5834 9.7735H14.0834ZM6.22671 3.41683C6.64092 3.41683 6.97671 3.08104 6.97671 2.66683C6.97671 2.25262 6.64092 1.91683 6.22671 1.91683V3.41683ZM12 1.3335L12.5304 0.803166C12.2375 0.510273 11.7626 0.510273 11.4697 0.803166L12 1.3335ZM14.6667 4.00016L15.197 4.53049C15.3377 4.38984 15.4167 4.19908 15.4167 4.00016C15.4167 3.80125 15.3377 3.61049 15.197 3.46983L14.6667 4.00016ZM8.00004 10.6668V11.4168C8.19895 11.4168 8.38972 11.3378 8.53037 11.1972L8.00004 10.6668ZM5.33337 10.6668H4.58337C4.58337 11.081 4.91916 11.4168 5.33337 11.4168V10.6668ZM5.33337 8.00016L4.80304 7.46983C4.66239 7.61049 4.58337 7.80125 4.58337 8.00016H5.33337ZM12.5834 9.7735V13.3335H14.0834V9.7735H12.5834ZM12.5834 13.3335C12.5834 13.6557 12.3222 13.9168 12 13.9168V15.4168C13.1506 15.4168 14.0834 14.4841 14.0834 13.3335H12.5834ZM12 13.9168H2.66671V15.4168H12V13.9168ZM2.66671 13.9168C2.34454 13.9168 2.08337 13.6557 2.08337 13.3335H0.583374C0.583374 14.4841 1.51611 15.4168 2.66671 15.4168V13.9168ZM2.08337 13.3335V4.00016H0.583374V13.3335H2.08337ZM2.08337 4.00016C2.08337 3.678 2.34454 3.41683 2.66671 3.41683V1.91683C1.51611 1.91683 0.583374 2.84957 0.583374 4.00016H2.08337ZM2.66671 3.41683H6.22671V1.91683H2.66671V3.41683ZM11.4697 1.86383L14.1364 4.53049L15.197 3.46983L12.5304 0.803166L11.4697 1.86383ZM14.1364 3.46983L7.46971 10.1365L8.53037 11.1972L15.197 4.53049L14.1364 3.46983ZM8.00004 9.91683H5.33337V11.4168H8.00004V9.91683ZM6.08337 10.6668V8.00016H4.58337V10.6668H6.08337ZM5.8637 8.53049L12.5304 1.86383L11.4697 0.803166L4.80304 7.46983L5.8637 8.53049Z" fill="#B4B4B4"/>
<path fill-rule="evenodd" clip-rule="evenodd" d="M11.9998 1.33301L14.6665 3.99967L7.9998 10.6663H5.33313V7.99968L11.9998 1.33301Z" fill="#B4B4B4"/>
<rect x="10.1993" y="1.35986" width="4.59235" height="1.04348" rx="0.521739" transform="rotate(45 10.1993 1.35986)" fill="#373F48"/>
</g>
<defs>
<clipPath id="clip0_1069_366638">
<rect width="16" height="16" fill="white"/>
</clipPath>
</defs>
</svg>
