<svg width="17" height="17" viewBox="0 0 17 17" fill="none" xmlns="http://www.w3.org/2000/svg">
<g clip-path="url(#clip0_801_32418)">
<path d="M13.1618 13.3041C13.4913 13.053 13.5548 12.5823 13.3036 12.2529C13.0525 11.9235 12.5819 11.86 12.2525 12.1111L13.1618 13.3041ZM8.49967 14.1667V14.9168L8.51193 14.9166L8.49967 14.1667ZM0.708008 8.50008L0.0471411 8.14546C-0.0680843 8.36019 -0.0717963 8.61752 0.0371874 8.83549L0.708008 8.50008ZM4.74735 4.88866C5.07656 4.63728 5.13964 4.16661 4.88826 3.83741C4.63687 3.5082 4.16621 3.44511 3.837 3.6965L4.74735 4.88866ZM6.84124 2.27315C6.43793 2.36756 6.18751 2.77104 6.28191 3.17435C6.37632 3.57766 6.7798 3.82808 7.18311 3.73368L6.84124 2.27315ZM8.49967 2.83341L8.49791 3.58341H8.49967V2.83341ZM16.2913 8.50008L16.9528 8.85364C17.0675 8.6391 17.071 8.38226 16.9622 8.16467L16.2913 8.50008ZM14.1875 10.2768C13.9208 10.5937 13.9615 11.0668 14.2785 11.3335C14.5954 11.6002 15.0685 11.5595 15.3352 11.2425L14.1875 10.2768ZM10.55 10.513C10.8324 10.21 10.8157 9.73542 10.5126 9.45304C10.2096 9.17066 9.73501 9.18741 9.45263 9.49046L10.55 10.513ZM7.5093 7.54712C7.81234 7.26474 7.82909 6.79017 7.54672 6.48712C7.26434 6.18408 6.78976 6.16733 6.48672 6.44971L7.5093 7.54712ZM1.94667 0.886418C1.65378 0.593525 1.1789 0.593525 0.886011 0.886418C0.593118 1.17931 0.593118 1.65418 0.886011 1.94708L1.94667 0.886418ZM15.0527 16.1137C15.3456 16.4066 15.8204 16.4066 16.1133 16.1137C16.4062 15.8209 16.4062 15.346 16.1133 15.0531L15.0527 16.1137ZM12.2525 12.1111C11.169 12.937 9.84964 13.3946 8.48741 13.4168L8.51193 14.9166C10.1943 14.8891 11.8237 14.3241 13.1618 13.3041L12.2525 12.1111ZM8.49967 13.4167C6.32014 13.4167 4.55673 12.1699 3.29162 10.8205C2.6659 10.153 2.1838 9.48273 1.85822 8.9786C1.69589 8.72726 1.5737 8.51912 1.49312 8.37587C1.45286 8.3043 1.42307 8.24908 1.40395 8.21293C1.39439 8.19486 1.3875 8.18158 1.3833 8.17342C1.3812 8.16934 1.37978 8.16654 1.37903 8.16507C1.37866 8.16433 1.37846 8.16393 1.37842 8.16386C1.3784 8.16382 1.37843 8.16387 1.3785 8.16401C1.37853 8.16408 1.37861 8.16424 1.37863 8.16428C1.37872 8.16446 1.37883 8.16467 0.708008 8.50008C0.0371874 8.83549 0.0373131 8.83574 0.0374497 8.83602C0.0375097 8.83614 0.0376575 8.83643 0.0377778 8.83667C0.0380184 8.83715 0.038303 8.83772 0.0386315 8.83837C0.0392884 8.83967 0.0401208 8.84132 0.0411284 8.84331C0.0431435 8.84728 0.0458597 8.85262 0.0492743 8.85926C0.0561029 8.87254 0.0657284 8.89107 0.0781299 8.91451C0.102928 8.96137 0.138858 9.02789 0.185755 9.11127C0.279494 9.27791 0.417388 9.51249 0.598161 9.79239C0.958776 10.3508 1.4949 11.0971 2.19731 11.8464C3.58845 13.3303 5.72088 14.9167 8.49967 14.9167V13.4167ZM1.36887 8.8547C2.1994 7.30694 3.35132 5.95469 4.74735 4.88866L3.837 3.6965C2.27098 4.89233 0.978794 6.40924 0.0471411 8.14546L1.36887 8.8547ZM7.18311 3.73368C7.61407 3.6328 8.0553 3.58237 8.49791 3.58341L8.50144 2.08342C7.94255 2.0821 7.38541 2.14578 6.84124 2.27315L7.18311 3.73368ZM8.49967 3.58341C10.6792 3.58341 12.4426 4.83025 13.7077 6.1797C14.3334 6.84713 14.8155 7.51743 15.1411 8.02156C15.3035 8.2729 15.4257 8.48104 15.5062 8.62429C15.5465 8.69586 15.5763 8.75109 15.5954 8.78723C15.605 8.8053 15.6119 8.81858 15.616 8.82675C15.6181 8.83083 15.6196 8.83362 15.6203 8.8351C15.6207 8.83583 15.6209 8.83624 15.6209 8.8363C15.6209 8.83634 15.6209 8.83629 15.6209 8.83615C15.6208 8.83608 15.6207 8.83592 15.6207 8.83589C15.6206 8.8357 15.6205 8.83549 16.2913 8.50008C16.9622 8.16467 16.962 8.16442 16.9619 8.16415C16.9618 8.16403 16.9617 8.16373 16.9616 8.16349C16.9613 8.16301 16.961 8.16245 16.9607 8.16179C16.9601 8.16049 16.9592 8.15884 16.9582 8.15685C16.9562 8.15288 16.9535 8.14755 16.9501 8.14091C16.9432 8.12762 16.9336 8.10909 16.9212 8.08565C16.8964 8.03879 16.8605 7.97227 16.8136 7.8889C16.7199 7.72225 16.582 7.48768 16.4012 7.20777C16.0406 6.6494 15.5044 5.90303 14.802 5.15379C13.4109 3.66991 11.2785 2.08341 8.49967 2.08341V3.58341ZM15.6299 8.14652C15.2245 8.90487 14.7411 9.61883 14.1875 10.2768L15.3352 11.2425C15.9561 10.5047 16.4982 9.70407 16.9528 8.85364L15.6299 8.14652ZM9.45263 9.49046C9.10985 9.85832 8.59361 10.0097 8.10644 9.88533L7.73528 11.3387C8.75392 11.5988 9.83333 11.2822 10.55 10.513L9.45263 9.49046ZM8.10644 9.88533C7.61926 9.76091 7.23884 9.3805 7.11443 8.89332L5.66107 9.26448C5.92121 10.2831 6.71663 11.0785 7.73528 11.3387L8.10644 9.88533ZM7.11443 8.89332C6.99001 8.40614 7.14144 7.8899 7.5093 7.54712L6.48672 6.44971C5.71755 7.16643 5.40093 8.24584 5.66107 9.26448L7.11443 8.89332ZM0.886011 1.94708L15.0527 16.1137L16.1133 15.0531L1.94667 0.886418L0.886011 1.94708Z" fill="#B4B4B4"/>
</g>
<defs>
<clipPath id="clip0_801_32418">
<rect width="17" height="17" fill="white"/>
</clipPath>
</defs>
</svg>
