<svg width="17" height="17" viewBox="0 0 17 17" fill="none" xmlns="http://www.w3.org/2000/svg">
<g clip-path="url(#clip0_801_31876)">
<path d="M0.708496 8.49992L0.0376757 8.16451C-0.0678971 8.37565 -0.0678971 8.62418 0.0376757 8.83533L0.708496 8.49992ZM16.2918 8.49992L16.9627 8.83533C17.0682 8.62418 17.0682 8.37565 16.9627 8.16451L16.2918 8.49992ZM0.708496 8.49992C1.37932 8.83533 1.37921 8.83554 1.37912 8.83572C1.3791 8.83576 1.37902 8.83592 1.37899 8.83599C1.37892 8.83613 1.37889 8.83618 1.37891 8.83614C1.37894 8.83607 1.37915 8.83567 1.37952 8.83493C1.38027 8.83346 1.38169 8.83066 1.38379 8.82658C1.38798 8.81842 1.39487 8.80514 1.40443 8.78707C1.42356 8.75092 1.45335 8.6957 1.49361 8.62413C1.57418 8.48088 1.69638 8.27274 1.85871 8.0214C2.18429 7.51727 2.66639 6.84697 3.29211 6.17954C4.55722 4.83009 6.32063 3.58325 8.50016 3.58325V2.08325C5.72136 2.08325 3.58894 3.66975 2.1978 5.15363C1.49539 5.90287 0.959264 6.64924 0.598649 7.20761C0.417876 7.48751 0.279982 7.72209 0.186243 7.88873C0.139346 7.97211 0.103416 8.03863 0.0786182 8.08549C0.0662166 8.10893 0.0565912 8.12746 0.0497625 8.14074C0.0463479 8.14739 0.0436318 8.15272 0.0416167 8.15669C0.0406091 8.15868 0.0397767 8.16033 0.0391198 8.16163C0.0387913 8.16228 0.0385067 8.16285 0.038266 8.16333C0.0381458 8.16357 0.037998 8.16387 0.0379379 8.16398C0.0378014 8.16426 0.0376757 8.16451 0.708496 8.49992ZM8.50016 3.58325C10.6797 3.58325 12.4431 4.83009 13.7082 6.17954C14.3339 6.84697 14.816 7.51727 15.1416 8.0214C15.3039 8.27274 15.4261 8.48088 15.5067 8.62413C15.547 8.6957 15.5768 8.75092 15.5959 8.78707C15.6055 8.80514 15.6123 8.81842 15.6165 8.82658C15.6186 8.83066 15.6201 8.83346 15.6208 8.83493C15.6212 8.83567 15.6214 8.83607 15.6214 8.83614C15.6214 8.83618 15.6214 8.83613 15.6213 8.83599C15.6213 8.83592 15.6212 8.83576 15.6212 8.83572C15.6211 8.83554 15.621 8.83533 16.2918 8.49992C16.9627 8.16451 16.9625 8.16426 16.9624 8.16398C16.9623 8.16387 16.9622 8.16357 16.9621 8.16333C16.9618 8.16285 16.9615 8.16228 16.9612 8.16163C16.9605 8.16033 16.9597 8.15868 16.9587 8.15669C16.9567 8.15272 16.954 8.14739 16.9506 8.14074C16.9437 8.12746 16.9341 8.10893 16.9217 8.08549C16.8969 8.03863 16.861 7.97211 16.8141 7.88873C16.7203 7.72209 16.5824 7.48751 16.4017 7.20761C16.0411 6.64924 15.5049 5.90287 14.8025 5.15363C13.4114 3.66975 11.279 2.08325 8.50016 2.08325V3.58325ZM16.2918 8.49992C15.621 8.16451 15.6211 8.1643 15.6212 8.16411C15.6212 8.16408 15.6213 8.16392 15.6213 8.16385C15.6214 8.16371 15.6214 8.16366 15.6214 8.1637C15.6214 8.16376 15.6212 8.16417 15.6208 8.1649C15.6201 8.16638 15.6186 8.16917 15.6165 8.17325C15.6123 8.18142 15.6055 8.1947 15.5959 8.21277C15.5768 8.24891 15.547 8.30414 15.5067 8.37571C15.4261 8.51896 15.3039 8.7271 15.1416 8.97844C14.816 9.48257 14.3339 10.1529 13.7082 10.8203C12.4431 12.1697 10.6797 13.4166 8.50016 13.4166V14.9166C11.279 14.9166 13.4114 13.3301 14.8025 11.8462C15.5049 11.097 16.0411 10.3506 16.4017 9.79223C16.5824 9.51232 16.7203 9.27775 16.8141 9.1111C16.861 9.02773 16.8969 8.96121 16.9217 8.91435C16.9341 8.89091 16.9437 8.87238 16.9506 8.85909C16.954 8.85245 16.9567 8.84712 16.9587 8.84315C16.9597 8.84116 16.9605 8.83951 16.9612 8.83821C16.9615 8.83755 16.9618 8.83699 16.9621 8.83651C16.9622 8.83627 16.9623 8.83597 16.9624 8.83585C16.9625 8.83558 16.9627 8.83533 16.2918 8.49992ZM8.50016 13.4166C6.32063 13.4166 4.55722 12.1697 3.29211 10.8203C2.66639 10.1529 2.18429 9.48257 1.85871 8.97844C1.69638 8.7271 1.57418 8.51896 1.49361 8.37571C1.45335 8.30414 1.42356 8.24891 1.40443 8.21277C1.39487 8.1947 1.38798 8.18142 1.38379 8.17325C1.38169 8.16917 1.38027 8.16638 1.37952 8.1649C1.37915 8.16417 1.37894 8.16376 1.37891 8.1637C1.37889 8.16366 1.37892 8.16371 1.37899 8.16385C1.37902 8.16392 1.3791 8.16408 1.37912 8.16411C1.37921 8.1643 1.37932 8.16451 0.708496 8.49992C0.0376757 8.83533 0.0378014 8.83558 0.0379379 8.83585C0.037998 8.83597 0.0381458 8.83627 0.038266 8.83651C0.0385067 8.83699 0.0387913 8.83755 0.0391198 8.83821C0.0397767 8.83951 0.0406091 8.84116 0.0416167 8.84315C0.0436318 8.84712 0.0463479 8.85245 0.0497625 8.85909C0.0565912 8.87238 0.0662166 8.89091 0.0786182 8.91435C0.103416 8.96121 0.139346 9.02773 0.186243 9.1111C0.279982 9.27775 0.417876 9.51232 0.598649 9.79223C0.959264 10.3506 1.49539 11.097 2.1978 11.8462C3.58894 13.3301 5.72136 14.9166 8.50016 14.9166V13.4166Z" fill="#737D89"/>
<path d="M8.5 11.375C10.0878 11.375 11.375 10.0878 11.375 8.5H9.875C9.875 9.25939 9.25939 9.875 8.5 9.875V11.375ZM11.375 8.5C11.375 6.91218 10.0878 5.625 8.5 5.625V7.125C9.25939 7.125 9.875 7.74061 9.875 8.5H11.375ZM8.5 5.625C6.91218 5.625 5.625 6.91218 5.625 8.5H7.125C7.125 7.74061 7.74061 7.125 8.5 7.125V5.625ZM5.625 8.5C5.625 10.0878 6.91218 11.375 8.5 11.375V9.875C7.74061 9.875 7.125 9.25939 7.125 8.5H5.625Z" fill="#737D89"/>
</g>
<defs>
<clipPath id="clip0_801_31876">
<rect width="17" height="17" fill="white"/>
</clipPath>
</defs>
</svg>
