<svg width="90" height="110" viewBox="0 0 90 110" fill="none" xmlns="http://www.w3.org/2000/svg">
<path fill-rule="evenodd" clip-rule="evenodd" d="M15.5 0.916626C7.3538 0.916626 0.75 7.52043 0.75 15.6666V94.3333C0.75 102.479 7.3538 109.083 15.5 109.083H74.5C82.6462 109.083 89.25 102.479 89.25 94.3333V35.3333C89.25 34.0293 88.732 32.7787 87.8099 31.8567L58.3099 2.35668C57.3879 1.43463 56.1373 0.916626 54.8333 0.916626H15.5ZM47.5 45.1666C47.5 43.7859 46.3807 42.6666 45 42.6666C43.6193 42.6666 42.5 43.7859 42.5 45.1666V57.4166H30.25C28.8693 57.4166 27.75 58.5359 27.75 59.9166C27.75 61.2973 28.8693 62.4166 30.25 62.4166H42.5V74.6666C42.5 76.0473 43.6193 77.1666 45 77.1666C46.3807 77.1666 47.5 76.0473 47.5 74.6666V62.4166H59.75C61.1307 62.4166 62.25 61.2973 62.25 59.9166C62.25 58.5359 61.1307 57.4166 59.75 57.4166H47.5V45.1666Z" fill="white"/>
</svg>
