<svg width="17" height="17" viewBox="0 0 17 17" fill="none" xmlns="http://www.w3.org/2000/svg">
<path d="M15.4049 3.30647L14.8415 2.81139L14.8415 2.81139L15.4049 3.30647ZM10.2184 15.5833L9.8799 16.2526C10.1124 16.3702 10.3893 16.3587 10.6112 16.2222C10.8332 16.0858 10.9684 15.8439 10.9684 15.5833H10.2184ZM7.106 14.0093H6.356C6.356 14.2921 6.51512 14.5509 6.76752 14.6785L7.106 14.0093ZM1.61001 3.32218L1.06182 3.83403L1.06182 3.83403L1.61001 3.32218ZM14.8415 2.81139L9.65501 8.71325L10.7818 9.70342L15.9683 3.80156L14.8415 2.81139ZM9.46839 9.20833V15.5833H10.9684V9.20833H9.46839ZM10.5569 14.9141L7.44448 13.34L6.76752 14.6785L9.8799 16.2526L10.5569 14.9141ZM7.856 14.0093V9.20833H6.356V14.0093H7.856ZM7.65419 8.69648L2.1582 2.81033L1.06182 3.83403L6.55781 9.72018L7.65419 8.69648ZM2.11189 2.875H14.8888V1.375H2.11189V2.875ZM7.106 9.95833H10.2184V8.45833H7.106V9.95833ZM2.1582 2.81033C2.15708 2.80913 2.15914 2.81114 2.1617 2.81646C2.16415 2.82156 2.16575 2.82699 2.16649 2.83188C2.16784 2.84071 2.16611 2.84432 2.16603 2.84449C2.16597 2.84463 2.1632 2.85164 2.15098 2.86031C2.14451 2.86491 2.13653 2.86904 2.12783 2.87185C2.11888 2.87473 2.11288 2.875 2.11189 2.875V1.375C0.813872 1.375 0.21536 2.92748 1.06182 3.83403L2.1582 2.81033ZM15.9683 3.80156C16.7739 2.88477 16.1655 1.375 14.8888 1.375V2.875C14.8875 2.875 14.8815 2.87469 14.8728 2.87192C14.8643 2.86922 14.8565 2.86524 14.8501 2.86081C14.8381 2.85242 14.8351 2.84547 14.8348 2.84495C14.8346 2.84441 14.8329 2.84075 14.834 2.83226C14.8346 2.82756 14.836 2.82235 14.8383 2.81743C14.8406 2.81231 14.8425 2.8103 14.8415 2.81139L15.9683 3.80156Z" fill="#B4B4B4"/>
</svg>
