<svg width="17" height="17" viewBox="0 0 17 17" fill="none" xmlns="http://www.w3.org/2000/svg">
<path fill-rule="evenodd" clip-rule="evenodd" d="M2.83333 1.41675C1.69573 1.41675 0.708332 2.41058 0.708332 3.54175V13.4584C0.708332 14.5896 1.69573 15.5834 2.83333 15.5834H14.1667C15.3043 15.5834 16.2917 14.5896 16.2917 13.4584V5.66675C16.2917 4.53558 15.3043 3.54175 14.1667 3.54175H8.17075L6.96437 1.73217C6.833 1.53511 6.61183 1.41675 6.375 1.41675H2.83333ZM9.25 7.43758C9.25 7.02337 8.91421 6.68758 8.5 6.68758C8.08578 6.68758 7.75 7.02337 7.75 7.43758V8.81258H6.47619C6.06197 8.81258 5.72619 9.14837 5.72619 9.56258C5.72619 9.9768 6.06197 10.3126 6.47619 10.3126H7.75V11.6876C7.75 12.1018 8.08578 12.4376 8.5 12.4376C8.91421 12.4376 9.25 12.1018 9.25 11.6876V10.3126H10.625C11.0392 10.3126 11.375 9.9768 11.375 9.56258C11.375 9.14837 11.0392 8.81258 10.625 8.81258H9.25V7.43758Z" fill="url(#paint0_linear_2341_279137)"/>
<defs>
<linearGradient id="paint0_linear_2341_279137" x1="0.708332" y1="1.41675" x2="17.257" y2="2.65208" gradientUnits="userSpaceOnUse">
<stop offset="0.515625" stop-color="#2F98CF"/>
<stop offset="1" stop-color="#2FCFB2"/>
</linearGradient>
</defs>
</svg>
