<svg width="17" height="17" viewBox="0 0 17 17" fill="none" xmlns="http://www.w3.org/2000/svg">
<g clip-path="url(#clip0_1002_125508)">
<path fill-rule="evenodd" clip-rule="evenodd" d="M12.7711 2.10906C13.1139 1.84344 13.6094 1.69266 13.9424 1.97053C14.3366 2.29946 14.7005 2.66341 15.0295 3.05761C15.3073 3.39063 15.1566 3.88607 14.8909 4.22894C14.6589 4.52842 14.5208 4.90433 14.5208 5.3125C14.5208 6.2905 15.3137 7.08333 16.2917 7.08333C16.5992 7.08333 16.916 7.26113 16.9494 7.56681C16.9828 7.87327 17 8.18463 17 8.5C17 8.81537 16.9828 9.12673 16.9494 9.43319C16.916 9.73887 16.5992 9.91667 16.2917 9.91667C15.3137 9.91667 14.5208 10.7095 14.5208 11.6875C14.5208 12.0957 14.6589 12.4716 14.8909 12.7711C15.1566 13.1139 15.3073 13.6094 15.0295 13.9424C14.7005 14.3366 14.3366 14.7005 13.9424 15.0295C13.6094 15.3073 13.1139 15.1566 12.7711 14.8909C12.4716 14.6589 12.0957 14.5208 11.6875 14.5208C10.7095 14.5208 9.91667 15.3137 9.91667 16.2917C9.91667 16.5992 9.73887 16.916 9.43319 16.9494C9.12673 16.9828 8.81537 17 8.5 17C8.18463 17 7.87327 16.9828 7.56681 16.9494C7.26113 16.916 7.08333 16.5992 7.08333 16.2917C7.08333 15.3137 6.2905 14.5208 5.3125 14.5208C4.90433 14.5208 4.52842 14.6589 4.22894 14.8909C3.88607 15.1566 3.39063 15.3073 3.05761 15.0295C2.66341 14.7005 2.29946 14.3366 1.97053 13.9424C1.69265 13.6094 1.84344 13.1139 2.10906 12.7711C2.34107 12.4716 2.47917 12.0957 2.47917 11.6875C2.47917 10.7095 1.68634 9.91667 0.708333 9.91667C0.400838 9.91667 0.0840213 9.73887 0.0506411 9.43319C0.0171752 9.12673 0 8.81537 0 8.5C0 8.18463 0.0171751 7.87327 0.050641 7.56681C0.0840211 7.26113 0.400838 7.08333 0.708333 7.08333C1.68634 7.08333 2.47917 6.2905 2.47917 5.3125C2.47917 4.90433 2.34107 4.52842 2.10906 4.22894C1.84344 3.88607 1.69265 3.39063 1.97053 3.05761C2.29945 2.66341 2.66341 2.29946 3.05761 1.97053C3.39063 1.69266 3.88607 1.84344 4.22893 2.10906C4.52842 2.34107 4.90433 2.47917 5.3125 2.47917C6.2905 2.47917 7.08333 1.68634 7.08333 0.708333C7.08333 0.400838 7.26113 0.0840212 7.56681 0.050641C7.87327 0.0171751 8.18463 0 8.5 0C8.81537 0 9.12673 0.0171751 9.43319 0.0506411C9.73887 0.0840213 9.91667 0.400838 9.91667 0.708333C9.91667 1.68634 10.7095 2.47917 11.6875 2.47917C12.0957 2.47917 12.4716 2.34107 12.7711 2.10906ZM8.5 11.3333C10.0648 11.3333 11.3333 10.0648 11.3333 8.5C11.3333 6.93519 10.0648 5.66667 8.5 5.66667C6.93519 5.66667 5.66667 6.93519 5.66667 8.5C5.66667 10.0648 6.93519 11.3333 8.5 11.3333Z" fill="white"/>
</g>
<defs>
<clipPath id="clip0_1002_125508">
<rect width="17" height="17" fill="white"/>
</clipPath>
</defs>
</svg>
