<svg width="108" height="108" viewBox="0 0 108 108" fill="none" xmlns="http://www.w3.org/2000/svg">
<g clip-path="url(#clip0_1921_567387)">
<rect width="108" height="108" rx="12" fill="white"/>
<path d="M0.5 11.5526C0.5 5.44843 5.44843 0.5 11.5526 0.5H94.4474C100.552 0.5 105.5 5.44843 105.5 11.5526V69.5789V94.4474C105.5 100.552 100.552 105.5 94.4474 105.5H14.3158H11.5526C5.44843 105.5 0.5 100.552 0.5 94.4474V11.5526Z" fill="white"/>
<path d="M105.5 94.4473V70.4073C105.5 69.8768 105.289 69.3681 104.914 68.9931L77.8685 41.9473L17.7301 102.086C16.4702 103.346 17.3625 105.5 19.1443 105.5H94.4475C100.552 105.5 105.5 100.551 105.5 94.4473Z" fill="#2E353B" stroke="#2E353B" stroke-width="4" stroke-linejoin="round"/>
<path d="M44.7105 33.6581C44.7105 39.7623 39.7621 44.7107 33.6579 44.7107C27.5537 44.7107 22.6052 39.7623 22.6052 33.6581C22.6052 27.5539 27.5537 22.6055 33.6579 22.6055C39.7621 22.6055 44.7105 27.5539 44.7105 33.6581Z" fill="#2E353B" stroke="#2E353B" stroke-width="4"/>
</g>
<rect x="2" y="2" width="104" height="104" rx="10" stroke="white" stroke-width="4"/>
<defs>
<clipPath id="clip0_1921_567387">
<rect width="108" height="108" rx="12" fill="white"/>
</clipPath>
</defs>
</svg>
