<svg width="16" height="16" viewBox="0 0 16 16" fill="none" xmlns="http://www.w3.org/2000/svg">
<g clip-path="url(#clip0_1412_390610)">
<path fill-rule="evenodd" clip-rule="evenodd" d="M7.99985 0.666992C3.94989 0.666992 0.666748 3.95013 0.666748 8.00009C0.666748 12.0501 3.94989 15.3332 7.99985 15.3332C12.0498 15.3332 15.333 12.0501 15.333 8.00009C15.333 3.95013 12.0498 0.666992 7.99985 0.666992ZM8.74984 5.00033C8.74984 4.58611 8.41405 4.25033 7.99984 4.25033C7.58562 4.25033 7.24984 4.58611 7.24984 5.00033V5.33366C7.24984 5.74787 7.58562 6.08366 7.99984 6.08366C8.41405 6.08366 8.74984 5.74787 8.74984 5.33366V5.00033ZM8.74984 8.33342C8.74984 7.9192 8.41405 7.58342 7.99984 7.58342C7.58562 7.58342 7.24984 7.9192 7.24984 8.33342V11.3333C7.24984 11.7475 7.58562 12.0833 7.99984 12.0833C8.41405 12.0833 8.74984 11.7475 8.74984 11.3333V8.33342Z" fill="#737D89"/>
</g>
<defs>
<clipPath id="clip0_1412_390610">
<rect width="16" height="16" fill="white"/>
</clipPath>
</defs>
</svg>
