<svg width="15" height="17" viewBox="0 0 15 17" fill="none" xmlns="http://www.w3.org/2000/svg">
<path fill-rule="evenodd" clip-rule="evenodd" d="M4.44499 4.41865C4.44499 2.77009 5.80316 1.41667 7.49967 1.41667C8.44355 1.41667 9.22194 1.63483 9.74441 2.01411C10.2382 2.37257 10.5544 2.90806 10.5544 3.71032C10.5544 4.10152 10.8715 4.41865 11.2627 4.41865C11.6539 4.41865 11.971 4.10152 11.971 3.71032C11.971 2.46342 11.4448 1.49792 10.5767 0.867678C9.73718 0.258257 8.63406 0 7.49967 0C5.03967 0 3.02832 1.96891 3.02832 4.41865V6.67857H2.98405C1.771 6.67857 0.770508 7.65078 0.770508 8.87103V14.8075C0.770508 16.0278 1.771 17 2.98405 17H12.0153C13.2284 17 14.2288 16.0278 14.2288 14.8075V8.87103C14.2288 7.65078 13.2284 6.67857 12.0153 6.67857H4.44499V4.41865ZM8.24967 11.0972C8.24967 10.683 7.91389 10.3472 7.49967 10.3472C7.08546 10.3472 6.74967 10.683 6.74967 11.0972V12.5814C6.74967 12.9956 7.08546 13.3314 7.49967 13.3314C7.91389 13.3314 8.24967 12.9956 8.24967 12.5814V11.0972Z" fill="#737D89"/>
</svg>
