<svg width="180" height="180" viewBox="0 0 180 180" fill="none" xmlns="http://www.w3.org/2000/svg">
<path fill-rule="evenodd" clip-rule="evenodd" d="M12.4618 43.6121L90.0357 0.00317383L167.395 43.2316L166.722 43.6121H117.18V71.6802L89.5764 87.3276L62.6621 72.0759L62.6621 43.6121H12.4618ZM109.575 120.555L180.001 81.0545V81.0393C179.328 74.142 177.843 67.3472 175.576 60.7944L89.9318 109.336L4.42533 60.8096C2.15849 67.3625 0.673453 74.1573 0.000732422 81.0545L70.4269 120.555L49.6205 133.326L1.21023 107.632C5.31795 128.039 16.4099 146.402 32.5992 159.596C48.7885 172.79 69.0752 180 90.0084 180C110.942 180 131.228 172.79 147.418 159.596C163.607 146.402 174.699 128.039 178.807 107.632L130.779 133.645L109.575 120.555Z" fill="url(#paint0_linear_1008_361782)"/>
<defs>
<linearGradient id="paint0_linear_1008_361782" x1="180" y1="5.70665e-05" x2="3.34631e-05" y2="180" gradientUnits="userSpaceOnUse">
<stop stop-color="#23272A"/>
<stop offset="0.348958" stop-color="white"/>
<stop offset="1" stop-color="#909293"/>
</linearGradient>
</defs>
</svg>
