<svg width="140" height="140" viewBox="0 0 140 140" fill="none" xmlns="http://www.w3.org/2000/svg">
<path fill-rule="evenodd" clip-rule="evenodd" d="M9.69245 33.9203L70.0277 0.00219727L130.196 33.6243L129.672 33.9203H91.1397V55.751L69.6705 67.9212L48.7371 56.0588V33.9203H9.69245ZM85.2246 93.7645L140.001 63.0421V63.0303C139.477 57.6658 138.322 52.3809 136.559 47.2843L69.9469 85.0391L3.44184 47.2961C1.67874 52.3928 0.523716 57.6776 0.000488281 63.0421L54.7764 93.7645L38.5937 103.697L0.941206 83.7131C4.1361 99.5858 12.7632 113.868 25.3548 124.13C37.9465 134.392 53.7251 140 70.0064 140C86.2878 140 102.066 134.392 114.658 124.13C127.25 113.868 135.877 99.5858 139.072 83.7131L101.717 103.946L85.2246 93.7645Z" fill="url(#paint0_linear_1008_361729)"/>
<defs>
<linearGradient id="paint0_linear_1008_361729" x1="140" y1="-0.000226882" x2="-3.16174e-05" y2="140" gradientUnits="userSpaceOnUse">
<stop offset="0.921875" stop-color="#23272A"/>
<stop offset="1" stop-color="#2FCFB2"/>
</linearGradient>
</defs>
</svg>
