<svg width="275" height="136" viewBox="0 0 275 136" fill="none" xmlns="http://www.w3.org/2000/svg">
<path d="M0 0H275V104L137.5 136L0 104V0Z" fill="url(#paint0_linear_1108_370543)"/>
<g clip-path="url(#clip0_1108_370543)">
<path d="M106.93 48.361L78.8235 64.2166L87.2859 69.4713L106.453 59.0292C104.814 67.221 100.387 74.5918 93.9262 79.8879C87.4652 85.184 79.369 88.0782 71.0148 88.0782C62.6606 88.0782 54.5644 85.184 48.1034 79.8879C41.6425 74.5918 37.2158 67.221 35.5764 59.0292L54.8965 69.343L63.2 64.2166L35.0938 48.361C35.3622 45.5924 35.9549 42.865 36.8596 40.2346L70.9842 59.7135L105.164 40.2285C106.069 42.8589 106.661 45.5863 106.93 48.3549V48.361Z" fill="white"/>
<path d="M71.0271 15.825L40.0674 33.3303H60.1023V44.7561L70.8438 50.8784L81.8602 44.5972V33.3303H101.632L101.901 33.1775L71.0271 15.825Z" fill="white"/>
<path d="M132.458 61.4304C133.567 61.678 134.55 62.3181 135.225 63.2329C135.89 64.1751 136.233 65.3065 136.203 66.459C136.222 67.2401 136.074 68.0163 135.77 68.7359C135.465 69.4555 135.011 70.1019 134.437 70.6322C133.177 71.7661 131.524 72.3625 129.83 72.2941H120.115V52.5464H129.378C131.215 52.5464 132.641 53.0372 133.655 54.0189C134.138 54.4494 134.524 54.9776 134.787 55.5685C135.051 56.1595 135.186 56.7997 135.183 57.4467C135.183 58.3183 134.921 59.1698 134.431 59.8907C133.965 60.6114 133.27 61.1539 132.458 61.4304ZM128.443 56.744H125.016V60.0923H128.229C128.774 60.1291 129.312 59.9613 129.739 59.6218C129.911 59.4693 130.047 59.2807 130.138 59.0695C130.229 58.8583 130.272 58.6296 130.264 58.3998C130.267 58.1793 130.223 57.9607 130.137 57.7577C130.051 57.5547 129.924 57.3718 129.763 57.2206C129.585 57.0584 129.377 56.9328 129.151 56.851C128.924 56.7692 128.684 56.7329 128.443 56.744V56.744ZM125.016 68.011H128.761C129.385 68.0562 130.002 67.8543 130.478 67.4488C130.674 67.2739 130.829 67.059 130.935 66.8187C131.04 66.5783 131.093 66.3181 131.089 66.0557C131.093 65.7897 131.04 65.526 130.935 65.2817C130.83 65.0374 130.674 64.8181 130.478 64.6382C130.037 64.2474 129.46 64.0456 128.871 64.0761H125.016V68.011Z" fill="white"/>
<path d="M148.381 72.6181C147.009 72.6497 145.646 72.4034 144.372 71.8941C143.098 71.3849 141.941 70.6231 140.969 69.6547C139.068 67.7133 138.003 65.1042 138.003 62.3868C138.003 59.6694 139.068 57.0602 140.969 55.1189C142.951 53.2142 145.592 52.1504 148.341 52.1504C151.089 52.1504 153.731 53.2142 155.713 55.1189C157.163 56.5518 158.151 58.3857 158.55 60.3848C158.949 62.3838 158.741 64.4565 157.952 66.3363C157.164 68.2161 155.831 69.817 154.125 70.9332C152.42 72.0494 150.419 72.6298 148.381 72.5998V72.6181ZM148.381 67.6628C149.061 67.6755 149.738 67.5493 150.368 67.2919C150.998 67.0345 151.569 66.6514 152.047 66.1659C152.541 65.6723 152.929 65.0825 153.187 64.4331C153.444 63.7836 153.566 63.0882 153.544 62.3898C153.551 61.6895 153.418 60.9947 153.151 60.3471C152.884 59.6994 152.49 59.112 151.992 58.6199C151.512 58.1359 150.941 57.7517 150.311 57.4896C149.682 57.2274 149.007 57.0924 148.326 57.0924C147.644 57.0924 146.969 57.2274 146.34 57.4896C145.711 57.7517 145.14 58.1359 144.66 58.6199C143.704 59.6391 143.173 60.9837 143.173 62.3807C143.173 63.7776 143.704 65.1222 144.66 66.1414C145.137 66.6356 145.711 67.0258 146.346 67.2876C146.981 67.5494 147.663 67.6771 148.35 67.6628H148.381Z" fill="white"/>
<path d="M170.78 72.5875C169.445 72.6254 168.116 72.3963 166.871 71.9137C165.625 71.431 164.489 70.7046 163.528 69.7769C162.559 68.8243 161.8 67.6803 161.298 66.4179C160.796 65.1555 160.563 63.8024 160.613 62.4448C160.574 61.0907 160.81 59.7427 161.307 58.4825C161.804 57.2222 162.551 56.0759 163.504 55.1129C164.457 54.1498 165.595 53.3901 166.85 52.8797C168.105 52.3692 169.45 52.1187 170.805 52.1432C172.492 52.1236 174.161 52.4806 175.693 53.1881C177.11 53.8442 178.345 54.8362 179.292 56.0781L176.108 59.4203C174.577 57.791 172.917 56.9763 171.129 56.9763C170.419 56.9602 169.713 57.0896 169.056 57.3565C168.398 57.6234 167.802 58.0222 167.304 58.5283C166.799 59.049 166.404 59.6655 166.142 60.3413C165.88 61.017 165.755 61.7385 165.776 62.4631C165.757 63.1757 165.882 63.8847 166.145 64.5473C166.408 65.21 166.802 65.8126 167.304 66.3186C167.801 66.8164 168.395 67.2083 169.048 67.4708C169.701 67.7333 170.4 67.861 171.104 67.8461C172.09 67.8375 173.06 67.6034 173.941 67.1617C174.823 66.7201 175.591 66.0827 176.188 65.2982L179.505 68.4877C178.521 69.7396 177.268 70.7544 175.839 71.4571C174.266 72.2285 172.532 72.6159 170.78 72.5875Z" fill="white"/>
<path d="M185.476 72.2941H179.665L185.824 62.3225L180.178 52.5464H185.928L189.062 58.5953L192.49 52.5464H198.295L192.246 62.3225L198.16 72.3063H192.435L189.007 66.0679L185.476 72.2941Z" fill="white"/>
<path d="M208.516 72.6179C207.145 72.6492 205.782 72.4027 204.508 71.8935C203.234 71.3842 202.077 70.6226 201.105 69.6545C199.204 67.7132 198.139 65.104 198.139 62.3866C198.139 59.6693 199.204 57.0601 201.105 55.1187C203.087 53.2136 205.73 52.1497 208.48 52.1497C211.229 52.1497 213.872 53.2136 215.855 55.1187C217.306 56.5535 218.295 58.3902 218.693 60.3922C219.092 62.3941 218.881 64.4695 218.089 66.3506C217.296 68.2318 215.959 69.8324 214.248 70.9462C212.538 72.06 210.533 72.6359 208.492 72.5996L208.516 72.6179ZM208.516 67.6627C209.197 67.676 209.874 67.5502 210.504 67.2927C211.134 67.0353 211.706 66.6518 212.182 66.1657C212.678 65.6724 213.067 65.0829 213.325 64.4334C213.584 63.784 213.706 63.0884 213.686 62.3897C213.692 61.6895 213.558 60.9952 213.291 60.3477C213.024 59.7002 212.631 59.1127 212.134 58.6198C211.654 58.1358 211.083 57.7516 210.453 57.4894C209.824 57.2272 209.149 57.0923 208.468 57.0923C207.786 57.0923 207.111 57.2272 206.482 57.4894C205.853 57.7516 205.281 58.1358 204.801 58.6198C203.846 59.639 203.314 60.9836 203.314 62.3805C203.314 63.7775 203.846 65.1221 204.801 66.1413C205.278 66.6366 205.852 67.0276 206.487 67.2895C207.122 67.5514 207.805 67.6785 208.492 67.6627H208.516Z" fill="white"/>
<path d="M237.422 52.5464V67.6933H239.591V76.339H234.612V72.3247H224.707V76.339H219.703V67.6627H221.536C222.913 65.0435 223.903 60.9233 224.506 55.3021L224.829 52.5159L237.422 52.5464ZM226.693 67.6933H232.449V57.2023H229.155L228.966 58.4854C228.544 61.618 227.782 64.6953 226.693 67.6627V67.6933Z" fill="white"/>
<path d="M120.855 48.3305C120.554 48.3376 120.256 48.2704 119.987 48.135L120.091 46.968C120.249 47.0367 120.42 47.0741 120.592 47.078C120.815 47.0723 121.031 46.9968 121.208 46.8619C121.386 46.727 121.517 46.5397 121.582 46.3264L119.749 42.4526H121.472L122.334 44.7195L123.097 42.4526H124.802L124.191 43.8457C123.684 45.0372 123.33 45.8437 123.128 46.2531C123.012 46.4975 122.938 46.638 122.914 46.6869C122.89 46.7358 122.792 46.9374 122.706 47.0963C122.63 47.2355 122.542 47.3683 122.444 47.4934C122.261 47.7367 122.036 47.944 121.778 48.1044C121.491 48.2496 121.176 48.327 120.855 48.3305V48.3305Z" fill="white"/>
<path d="M126.776 48.2694H125.315V42.4526H130.283V48.2694H128.81V43.8579H126.776V48.2694Z" fill="white"/>
<path d="M131.426 42.4526H133.735C134.036 42.4334 134.337 42.4779 134.619 42.5832C134.902 42.6885 135.158 42.8522 135.373 43.0636C135.735 43.452 135.929 43.9685 135.911 44.4995C135.919 44.7602 135.874 45.0199 135.778 45.2627C135.683 45.5054 135.539 45.726 135.355 45.9109C135.117 46.1106 134.843 46.2615 134.547 46.3548C134.252 46.4481 133.94 46.4821 133.632 46.4547H132.892V48.2877H131.426V42.4526ZM132.892 45.1105H133.699C133.794 45.1166 133.89 45.1035 133.98 45.0721C134.07 45.0406 134.153 44.9913 134.224 44.9272C134.342 44.7977 134.408 44.6288 134.408 44.4536C134.408 44.2784 134.342 44.1096 134.224 43.9801C134.16 43.9171 134.083 43.8678 133.999 43.8353C133.915 43.8027 133.825 43.7876 133.735 43.7907H132.892V45.1105Z" fill="white"/>
<path d="M141.251 48.2694H139.748L139.406 47.2123H137.573L137.218 48.2694H135.709L137.823 42.4771H139.186L141.251 48.2694ZM137.933 45.9415H139.057L138.507 44.2245L137.933 45.9415Z" fill="white"/>
<path d="M145.467 45.0616C145.792 45.1366 146.08 45.3251 146.279 45.5932C146.473 45.8682 146.573 46.1979 146.566 46.5341C146.571 46.7629 146.527 46.99 146.437 47.2006C146.348 47.4112 146.215 47.6005 146.047 47.7562C145.677 48.0867 145.192 48.2598 144.697 48.2388H141.855V42.4526H144.568C145.017 42.4313 145.456 42.5871 145.79 42.8864C145.931 43.0125 146.044 43.1669 146.121 43.3397C146.198 43.5124 146.237 43.6994 146.236 43.8885C146.237 44.1435 146.16 44.3927 146.016 44.6034C145.89 44.8141 145.697 44.9757 145.467 45.0616V45.0616ZM144.293 43.693H143.285V44.6706H144.226C144.386 44.6826 144.545 44.6347 144.672 44.5361C144.723 44.4911 144.763 44.4354 144.789 44.373C144.815 44.3107 144.828 44.2433 144.825 44.1757C144.826 44.1115 144.814 44.0478 144.788 43.9888C144.763 43.9298 144.726 43.8768 144.678 43.8335C144.627 43.7852 144.566 43.7478 144.5 43.7237C144.434 43.6995 144.364 43.6891 144.293 43.693V43.693ZM143.285 46.9924H144.385C144.567 47.0052 144.747 46.946 144.886 46.8274C144.943 46.779 144.989 46.7192 145.022 46.6519C145.055 46.5845 145.073 46.5112 145.075 46.4364C145.078 46.359 145.064 46.282 145.034 46.2104C145.005 46.1388 144.961 46.0742 144.904 46.0209C144.841 45.9637 144.766 45.9196 144.686 45.8913C144.605 45.863 144.519 45.851 144.434 45.8559H143.304L143.285 46.9924Z" fill="white"/>
<path d="M147.458 48.3366H147.134L146.822 47.1146H146.951C147.12 47.1173 147.286 47.073 147.432 46.9867C147.578 46.9004 147.696 46.7755 147.775 46.6258C147.969 46.2435 148.093 45.8297 148.142 45.4038C148.191 45.0494 148.228 44.7928 148.246 44.6217L148.356 43.5708L148.466 42.4404H152.26V48.2694H150.782V43.8641H149.786L149.731 44.3345C149.731 44.4018 149.731 44.5728 149.676 44.8539L149.621 45.3122C149.584 45.5688 149.56 45.7399 149.541 45.8132L149.45 46.247C149.401 46.4731 149.364 46.6258 149.34 46.6991C149.257 46.955 149.151 47.2026 149.022 47.4385C148.874 47.7214 148.648 47.9561 148.371 48.1152C148.093 48.2743 147.777 48.3511 147.458 48.3366V48.3366Z" fill="white"/>
<path d="M155.597 42.4528H157.766V48.2696H156.324V46.4365C156.098 46.4734 155.869 46.4938 155.64 46.4976L154.626 48.2696H153.019L154.241 46.2227C153.914 46.0649 153.644 45.8112 153.466 45.4956C153.288 45.18 153.211 44.8176 153.245 44.4569C153.236 44.1857 153.286 43.9158 153.391 43.6658C153.497 43.4157 153.655 43.1916 153.856 43.0088C154.342 42.6052 154.966 42.4059 155.597 42.4528ZM155.664 45.2267C155.885 45.2249 156.106 45.2045 156.324 45.1656V43.7725H155.658C155.047 43.7725 154.754 44.0108 154.754 44.4935C154.754 44.9762 155.059 45.2145 155.664 45.2145V45.2267Z" fill="white"/>
<path d="M164.016 42.3487C164.418 42.339 164.816 42.4115 165.188 42.5617C165.56 42.712 165.898 42.9369 166.179 43.2224C166.605 43.6425 166.895 44.1807 167.012 44.7674C167.128 45.3542 167.066 45.9623 166.833 46.5133C166.6 47.0642 166.207 47.5325 165.705 47.8576C165.203 48.1826 164.615 48.3495 164.016 48.3365C163.333 48.3514 162.663 48.1362 162.116 47.7255C161.589 47.3199 161.219 46.7429 161.071 46.0941H160.35V48.2693H158.878V42.4525H160.35V44.6705H161.029C161.168 44.0096 161.536 43.419 162.067 43.0024C162.619 42.5599 163.31 42.3281 164.016 42.3487V42.3487ZM164.016 46.8884C164.217 46.8927 164.417 46.8559 164.603 46.7803C164.789 46.7046 164.957 46.5917 165.098 46.4485C165.243 46.3041 165.357 46.1314 165.433 45.9412C165.508 45.7509 165.544 45.5472 165.538 45.3426C165.54 45.1384 165.501 44.9358 165.423 44.7469C165.346 44.558 165.231 44.3866 165.086 44.2428C164.947 44.1002 164.781 43.9877 164.597 43.912C164.413 43.8363 164.215 43.7992 164.016 43.8029C163.816 43.7999 163.618 43.8379 163.433 43.9146C163.248 43.9913 163.08 44.1051 162.941 44.2489C162.663 44.5475 162.508 44.9405 162.508 45.3487C162.508 45.7569 162.663 46.1499 162.941 46.4485C163.081 46.5912 163.248 46.7039 163.433 46.7795C163.618 46.8552 163.817 46.8922 164.016 46.8884V46.8884Z" fill="white"/>
<path d="M176.048 49.4242H174.587V48.2694H167.866V42.4526H169.339V46.8397H170.891V42.4526H172.369V46.8397H173.909V42.4526H175.394V46.8397H176.005L176.048 49.4242Z" fill="white"/>
<path d="M181.9 48.2694H180.397L180.061 47.2123H178.228L177.874 48.2694H176.358L178.479 42.4771H179.841L181.9 48.2694ZM178.582 45.9415H179.707L179.157 44.2245L178.582 45.9415Z" fill="white"/>
<path d="M184.693 42.4527H186.862V48.2694H185.402V46.4364C185.177 46.473 184.951 46.4934 184.723 46.4975L183.721 48.2694H182.09L183.355 46.247C183.021 46.0904 182.745 45.8338 182.565 45.5129C182.384 45.1921 182.308 44.8229 182.346 44.4568C182.339 44.1857 182.389 43.9162 182.495 43.6664C182.6 43.4165 182.758 43.1923 182.957 43.0087C183.444 42.6099 184.065 42.4112 184.693 42.4527V42.4527ZM184.79 45.2144C185.012 45.2126 185.233 45.1921 185.45 45.1533V43.7724H184.784C184.173 43.7724 183.886 44.0107 183.886 44.4934C183.886 44.9761 184.179 45.2144 184.79 45.2144Z" fill="white"/>
<path d="M195.105 48.2694H193.345L192.062 46.1859L191.451 46.9435V48.2694H189.984V42.4526H191.451V44.8356L193.284 42.4526H195.056L193.046 45.0189L195.105 48.2694Z" fill="white"/>
<path d="M197.945 48.3366C197.546 48.3449 197.15 48.2729 196.779 48.1249C196.409 47.9769 196.072 47.7559 195.788 47.4751C195.229 46.904 194.915 46.1362 194.915 45.3365C194.915 44.5369 195.229 43.7691 195.788 43.198C196.367 42.637 197.142 42.3232 197.948 42.3232C198.755 42.3232 199.529 42.637 200.108 43.198C200.675 43.7652 200.994 44.5344 200.994 45.3365C200.994 46.1386 200.675 46.9079 200.108 47.4751C199.826 47.759 199.488 47.982 199.116 48.1301C198.744 48.2783 198.345 48.3486 197.945 48.3366ZM197.945 46.8885C198.146 46.8928 198.345 46.8559 198.531 46.7803C198.717 46.7046 198.886 46.5917 199.027 46.4486C199.172 46.3041 199.286 46.1314 199.361 45.9412C199.437 45.751 199.473 45.5473 199.467 45.3426C199.467 44.9307 199.305 44.5352 199.014 44.2428C198.729 43.9596 198.344 43.8007 197.942 43.8007C197.54 43.8007 197.155 43.9596 196.87 44.2428C196.587 44.5394 196.43 44.9332 196.43 45.3426C196.43 45.7521 196.587 46.1459 196.87 46.4425C197.008 46.5855 197.175 46.6989 197.359 46.7755C197.542 46.8522 197.74 46.8907 197.939 46.8885H197.945Z" fill="white"/>
<path d="M203.255 48.2694H201.819V42.4526H202.901L204.984 45.4343L207.062 42.4526H208.155V48.2694H206.701V45.4649L205.253 47.4934H204.703L203.255 45.4649V48.2694Z" fill="white"/>
<path d="M210.764 48.2694H209.298V42.4526H214.265V48.2694H212.793V43.8579H210.764V48.2694Z" fill="white"/>
<path d="M220.4 48.2694H218.891L218.555 47.2123H216.722L216.368 48.2694H214.858L216.972 42.4771H218.335L220.4 48.2694ZM217.082 45.9415H218.201L217.657 44.2245L217.082 45.9415Z" fill="white"/>
<path d="M222.464 48.2694H220.998V42.4526H222.464V44.6645H224.505V42.4526H225.978V48.2694H224.505V46.0637H222.471L222.464 48.2694Z" fill="white"/>
<path d="M228.049 48.2694H227.114V42.4526H228.55V45.8254L231.226 42.4526H232.173V48.2694H230.738V44.9089L228.049 48.2694Z" fill="white"/>
<path d="M235.504 42.4526H237.673V48.2694H236.231V46.4364C236.007 46.473 235.78 46.4934 235.553 46.4975L234.508 48.2694H232.877L234.142 46.247C233.815 46.0899 233.544 45.8363 233.366 45.5206C233.188 45.2048 233.111 44.842 233.146 44.4812C233.138 44.2101 233.189 43.9406 233.294 43.6908C233.399 43.4409 233.557 43.2167 233.757 43.0331C234.243 42.6226 234.869 42.4148 235.504 42.4526V42.4526ZM235.578 45.2266C235.797 45.2245 236.016 45.2041 236.231 45.1655V43.7724H235.565C234.954 43.7724 234.667 44.0107 234.667 44.4934C234.667 44.9761 234.942 45.2144 235.553 45.2144L235.578 45.2266Z" fill="white"/>
<path opacity="0.5" d="M173.811 26.0929H174.692L176.989 32H176.007L175.383 30.3943H173.103L172.488 32H171.498L173.811 26.0929ZM175.2 29.7037L174.251 27.1162L173.27 29.7037H175.2ZM178.06 32V27.6487H180.39C180.667 27.6487 180.895 27.7014 181.072 27.8068C181.255 27.9066 181.391 28.037 181.48 28.1978C181.569 28.3531 181.613 28.5251 181.613 28.7137C181.613 28.9522 181.557 29.1629 181.447 29.346C181.336 29.529 181.172 29.6677 180.956 29.762C181.205 29.8341 181.408 29.9616 181.563 30.1447C181.724 30.3222 181.804 30.5523 181.804 30.8352C181.804 31.0904 181.743 31.3067 181.621 31.4842C181.499 31.6561 181.324 31.7865 181.097 31.8752C180.875 31.9584 180.615 32 180.315 32H178.06ZM178.926 31.3677H180.29C180.407 31.3677 180.512 31.34 180.606 31.2845C180.706 31.2235 180.784 31.1458 180.839 31.0515C180.895 30.9517 180.922 30.8463 180.922 30.7354C180.922 30.6134 180.895 30.5052 180.839 30.4109C180.789 30.3166 180.717 30.2417 180.623 30.1863C180.534 30.1308 180.429 30.1031 180.307 30.1031H178.926V31.3677ZM178.926 29.5124H180.157C180.273 29.5124 180.376 29.4846 180.465 29.4292C180.554 29.3682 180.623 29.2877 180.673 29.1879C180.723 29.0881 180.748 28.9827 180.748 28.8717C180.748 28.7109 180.695 28.5722 180.59 28.4557C180.484 28.3393 180.346 28.281 180.174 28.281H178.926V29.5124ZM184.165 32V28.4557H182.725V27.6487H186.527V28.4557H185.08V32H184.165ZM189.624 32.0832C189.28 32.0832 188.973 32.025 188.701 31.9085C188.429 31.7865 188.193 31.6201 187.994 31.4093C187.799 31.1985 187.65 30.96 187.544 30.6938C187.439 30.422 187.386 30.1336 187.386 29.8285C187.386 29.5235 187.439 29.235 187.544 28.9633C187.65 28.6915 187.799 28.453 187.994 28.2477C188.193 28.037 188.429 27.8734 188.701 27.7569C188.978 27.6349 189.286 27.5738 189.624 27.5738C189.963 27.5738 190.268 27.6349 190.539 27.7569C190.817 27.8734 191.053 28.037 191.247 28.2477C191.446 28.453 191.599 28.6915 191.704 28.9633C191.81 29.235 191.862 29.5235 191.862 29.8285C191.862 30.1336 191.81 30.422 191.704 30.6938C191.599 30.96 191.446 31.1985 191.247 31.4093C191.053 31.6201 190.817 31.7865 190.539 31.9085C190.268 32.025 189.963 32.0832 189.624 32.0832ZM188.326 29.8368C188.326 30.1142 188.385 30.3638 188.501 30.5856C188.618 30.8075 188.773 30.9822 188.967 31.1098C189.161 31.2373 189.38 31.3011 189.624 31.3011C189.863 31.3011 190.079 31.2373 190.273 31.1098C190.473 30.9767 190.631 30.7992 190.747 30.5773C190.864 30.3499 190.922 30.1003 190.922 29.8285C190.922 29.5512 190.864 29.3016 190.747 29.0797C190.631 28.8579 190.473 28.6832 190.273 28.5556C190.079 28.4225 189.863 28.3559 189.624 28.3559C189.38 28.3559 189.161 28.4225 188.967 28.5556C188.773 28.6887 188.618 28.8662 188.501 29.0881C188.385 29.3044 188.326 29.554 188.326 29.8368ZM193.132 32V27.6487H194.08L195.578 30.336L197.084 27.6487H198.015V32H197.142V28.9383L195.861 31.2263H195.286L193.997 28.9383V32H193.132ZM199.253 30.7271C199.253 30.4497 199.331 30.2085 199.486 30.0032C199.647 29.7925 199.866 29.6316 200.143 29.5207C200.42 29.4042 200.742 29.346 201.108 29.346C201.302 29.346 201.499 29.3598 201.699 29.3876C201.904 29.4153 202.084 29.4597 202.24 29.5207V29.2461C202.24 28.9411 202.148 28.7026 201.965 28.5306C201.782 28.3587 201.519 28.2727 201.175 28.2727C200.931 28.2727 200.701 28.3171 200.484 28.4058C200.268 28.489 200.038 28.6083 199.794 28.7636L199.486 28.1479C199.774 27.9538 200.063 27.8096 200.351 27.7153C200.645 27.621 200.953 27.5738 201.275 27.5738C201.857 27.5738 202.315 27.7291 202.647 28.0398C202.986 28.3448 203.155 28.7802 203.155 29.346V30.9683C203.155 31.0737 203.172 31.1486 203.205 31.193C203.244 31.2373 203.307 31.2623 203.396 31.2679V32C203.313 32.0166 203.238 32.0277 203.172 32.0333C203.105 32.0388 203.05 32.0416 203.005 32.0416C202.811 32.0416 202.664 31.9945 202.564 31.9002C202.464 31.8059 202.406 31.6949 202.39 31.5674L202.365 31.3178C202.176 31.5618 201.935 31.7504 201.641 31.8835C201.347 32.0166 201.05 32.0832 200.751 32.0832C200.462 32.0832 200.204 32.025 199.977 31.9085C199.749 31.7865 199.572 31.6228 199.444 31.4176C199.317 31.2124 199.253 30.9822 199.253 30.7271ZM202.023 30.9933C202.09 30.9212 202.143 30.8491 202.182 30.777C202.22 30.7049 202.24 30.6411 202.24 30.5856V30.0864C202.084 30.0254 201.921 29.981 201.749 29.9533C201.577 29.92 201.408 29.9034 201.241 29.9034C200.909 29.9034 200.637 29.97 200.426 30.1031C200.221 30.2362 200.118 30.4192 200.118 30.6522C200.118 30.7798 200.151 30.9018 200.218 31.0183C200.29 31.1347 200.39 31.229 200.518 31.3011C200.651 31.3732 200.814 31.4093 201.008 31.4093C201.208 31.4093 201.399 31.3705 201.583 31.2928C201.766 31.2152 201.913 31.1153 202.023 30.9933ZM205.706 32V28.4557H204.266V27.6487H208.069V28.4557H206.621V32H205.706ZM209.21 32V27.657H210.126V30.777L212.33 27.6487H213.162V32H212.247V28.9466L210.067 32H209.21ZM216.169 32.0666C215.726 32.0666 215.351 31.9861 215.046 31.8253C214.747 31.6589 214.517 31.4315 214.356 31.1431L215.096 30.8103C215.191 30.9711 215.324 31.0987 215.496 31.193C215.668 31.2817 215.876 31.3261 216.12 31.3261C216.414 31.3261 216.641 31.2651 216.802 31.1431C216.963 31.021 217.043 30.8602 217.043 30.6605C217.043 30.4775 216.977 30.3305 216.843 30.2196C216.71 30.1031 216.522 30.0421 216.278 30.0365H215.828V29.4541H216.294C216.405 29.4541 216.502 29.4292 216.585 29.3792C216.669 29.3293 216.732 29.2628 216.777 29.1796C216.827 29.0908 216.852 28.991 216.852 28.8801C216.852 28.7137 216.788 28.5805 216.66 28.4807C216.538 28.3753 216.353 28.3226 216.103 28.3226C215.887 28.3226 215.709 28.3642 215.57 28.4474C215.432 28.5251 215.318 28.6416 215.229 28.7969L214.539 28.4308C214.683 28.1645 214.894 27.9566 215.171 27.8068C215.448 27.657 215.773 27.5822 216.145 27.5822C216.438 27.5822 216.699 27.6293 216.927 27.7236C217.16 27.8123 217.34 27.9455 217.467 28.1229C217.6 28.2949 217.667 28.5084 217.667 28.7636C217.667 28.9633 217.62 29.1518 217.526 29.3293C217.431 29.5013 217.284 29.6288 217.085 29.712C217.351 29.7897 217.551 29.9256 217.684 30.1197C217.822 30.3083 217.892 30.5329 217.892 30.7936C217.892 31.0599 217.817 31.29 217.667 31.4842C217.523 31.6728 217.32 31.817 217.06 31.9168C216.799 32.0166 216.502 32.0666 216.169 32.0666ZM218.877 30.7271C218.877 30.4497 218.954 30.2085 219.11 30.0032C219.271 29.7925 219.49 29.6316 219.767 29.5207C220.044 29.4042 220.366 29.346 220.732 29.346C220.926 29.346 221.123 29.3598 221.323 29.3876C221.528 29.4153 221.708 29.4597 221.864 29.5207V29.2461C221.864 28.9411 221.772 28.7026 221.589 28.5306C221.406 28.3587 221.143 28.2727 220.799 28.2727C220.555 28.2727 220.324 28.3171 220.108 28.4058C219.892 28.489 219.662 28.6083 219.418 28.7636L219.11 28.1479C219.398 27.9538 219.687 27.8096 219.975 27.7153C220.269 27.621 220.577 27.5738 220.898 27.5738C221.481 27.5738 221.938 27.7291 222.271 28.0398C222.61 28.3448 222.779 28.7802 222.779 29.346V30.9683C222.779 31.0737 222.795 31.1486 222.829 31.193C222.867 31.2373 222.931 31.2623 223.02 31.2679V32C222.937 32.0166 222.862 32.0277 222.795 32.0333C222.729 32.0388 222.673 32.0416 222.629 32.0416C222.435 32.0416 222.288 31.9945 222.188 31.9002C222.088 31.8059 222.03 31.6949 222.013 31.5674L221.988 31.3178C221.8 31.5618 221.559 31.7504 221.265 31.8835C220.971 32.0166 220.674 32.0832 220.374 32.0832C220.086 32.0832 219.828 32.025 219.601 31.9085C219.373 31.7865 219.196 31.6228 219.068 31.4176C218.941 31.2124 218.877 30.9822 218.877 30.7271ZM221.647 30.9933C221.714 30.9212 221.767 30.8491 221.805 30.777C221.844 30.7049 221.864 30.6411 221.864 30.5856V30.0864C221.708 30.0254 221.545 29.981 221.373 29.9533C221.201 29.92 221.032 29.9034 220.865 29.9034C220.532 29.9034 220.261 29.97 220.05 30.1031C219.845 30.2362 219.742 30.4192 219.742 30.6522C219.742 30.7798 219.775 30.9018 219.842 31.0183C219.914 31.1347 220.014 31.229 220.141 31.3011C220.274 31.3732 220.438 31.4093 220.632 31.4093C220.832 31.4093 221.023 31.3705 221.206 31.2928C221.389 31.2152 221.536 31.1153 221.647 30.9933ZM227.758 33.04V32H224.347V27.6487H225.262V31.2013H227.042V27.6487H227.957V31.2013H228.565V33.04H227.758ZM229.793 32V27.657H230.708V30.777L232.913 27.6487H233.745V32H232.83V28.9466L230.65 32H229.793ZM235.021 32L236.186 30.2778C235.914 30.2112 235.698 30.0726 235.537 29.8618C235.376 29.651 235.296 29.3682 235.296 29.0132C235.296 28.7414 235.357 28.5029 235.479 28.2977C235.607 28.0924 235.784 27.9316 236.012 27.8151C236.239 27.6986 236.502 27.6404 236.802 27.6404H238.715V32H237.8V30.4275H237.085L236.02 32H235.021ZM236.893 29.762H237.8V28.3476H236.952C236.719 28.3476 236.533 28.4114 236.394 28.5389C236.261 28.6665 236.195 28.8329 236.195 29.0381C236.195 29.2434 236.253 29.4153 236.369 29.554C236.491 29.6926 236.666 29.762 236.893 29.762Z" fill="white"/>
<path opacity="0.5" d="M157.507 89.921V89.1389H157.931C158.07 89.1389 158.175 89.1056 158.248 89.0391C158.32 88.9725 158.389 88.8727 158.456 88.7396L158.63 88.3568L156.226 83.9806H157.258L159.055 87.4001L160.577 83.9806H161.567L159.171 89.1805C159.038 89.4523 158.891 89.6436 158.73 89.7546C158.575 89.8655 158.361 89.921 158.09 89.921H157.507ZM162.49 89.8877V85.5364H163.438L164.936 88.2237L166.442 85.5364H167.373V89.8877H166.5V86.826L165.219 89.1139H164.645L163.355 86.826V89.8877H162.49ZM168.927 89.8877V85.5364H169.842V87.2669H171.864V85.5364H172.779V89.8877H171.864V88.0573H169.842V89.8877H168.927ZM174.341 89.8877V85.5364H175.256V86.9674H176.08C176.596 86.9674 176.989 87.0978 177.261 87.3585C177.533 87.6191 177.669 87.963 177.669 88.3901C177.669 88.6785 177.611 88.9365 177.494 89.1639C177.378 89.3913 177.206 89.5688 176.978 89.6963C176.757 89.8239 176.479 89.8877 176.146 89.8877H174.341ZM175.256 89.1805H176.005C176.188 89.1805 176.335 89.1472 176.446 89.0807C176.557 89.0086 176.637 88.9143 176.687 88.7978C176.743 88.6758 176.77 88.5454 176.77 88.4068C176.77 88.2681 176.745 88.1433 176.695 88.0324C176.646 87.9159 176.562 87.8244 176.446 87.7578C176.335 87.6857 176.185 87.6497 175.997 87.6497H175.256V89.1805ZM178.384 89.8877V85.5447H179.3V89.8877H178.384ZM182.832 89.9709C182.493 89.9709 182.185 89.9127 181.908 89.7962C181.636 89.6742 181.4 89.5105 181.201 89.3053C181.001 89.0945 180.846 88.856 180.735 88.5898C180.63 88.318 180.577 88.0296 180.577 87.7245C180.577 87.3141 180.671 86.9397 180.86 86.6014C181.048 86.2575 181.312 85.9829 181.65 85.7777C181.988 85.5669 182.385 85.4615 182.84 85.4615C183.295 85.4615 183.686 85.5669 184.013 85.7777C184.346 85.9829 184.604 86.2547 184.787 86.593C184.97 86.9314 185.061 87.2947 185.061 87.6829C185.061 87.7495 185.058 87.8133 185.053 87.8743C185.047 87.9298 185.042 87.9769 185.036 88.0157H181.55C181.567 88.2709 181.636 88.4955 181.758 88.6896C181.886 88.8782 182.047 89.028 182.241 89.1389C182.435 89.2443 182.643 89.297 182.865 89.297C183.109 89.297 183.339 89.236 183.555 89.1139C183.777 88.9919 183.927 88.8311 184.005 88.6314L184.787 88.856C184.692 89.0668 184.548 89.2582 184.354 89.4301C184.165 89.5965 183.941 89.7296 183.68 89.8295C183.419 89.9237 183.137 89.9709 182.832 89.9709ZM181.525 87.4084H184.154C184.138 87.1588 184.066 86.9397 183.938 86.7511C183.816 86.557 183.658 86.4072 183.464 86.3018C183.275 86.1909 183.064 86.1354 182.832 86.1354C182.604 86.1354 182.393 86.1909 182.199 86.3018C182.011 86.4072 181.855 86.557 181.733 86.7511C181.611 86.9397 181.542 87.1588 181.525 87.4084ZM191.25 89.9709C190.9 89.9709 190.592 89.8877 190.326 89.7213C190.06 89.5549 189.849 89.3386 189.694 89.0723V91.6598H188.779V85.5364H189.586V86.3185C189.752 86.0578 189.968 85.8498 190.234 85.6945C190.501 85.5392 190.797 85.4615 191.125 85.4615C191.424 85.4615 191.699 85.5225 191.948 85.6446C192.198 85.761 192.414 85.9247 192.597 86.1354C192.78 86.3462 192.922 86.5875 193.022 86.8593C193.127 87.1255 193.18 87.4084 193.18 87.7079C193.18 88.1239 193.097 88.5038 192.93 88.8477C192.769 89.1916 192.542 89.4662 192.248 89.6714C191.959 89.8711 191.627 89.9709 191.25 89.9709ZM190.95 89.1888C191.144 89.1888 191.319 89.1472 191.474 89.064C191.635 88.9808 191.771 88.8699 191.882 88.7312C191.998 88.5926 192.087 88.4345 192.148 88.257C192.209 88.0795 192.24 87.8965 192.24 87.7079C192.24 87.5082 192.206 87.3196 192.14 87.1421C192.073 86.9647 191.976 86.8094 191.849 86.6762C191.727 86.5431 191.582 86.4377 191.416 86.3601C191.255 86.2824 191.078 86.2436 190.883 86.2436C190.767 86.2436 190.645 86.2658 190.517 86.3102C190.39 86.3545 190.271 86.4155 190.16 86.4932C190.049 86.5708 189.952 86.6624 189.868 86.7678C189.785 86.8731 189.727 86.9841 189.694 87.1005V88.2404C189.771 88.4179 189.874 88.5787 190.002 88.7229C190.129 88.8616 190.276 88.9753 190.442 89.064C190.609 89.1472 190.778 89.1888 190.95 89.1888ZM194.144 88.6148C194.144 88.3374 194.222 88.0962 194.377 87.8909C194.538 87.6802 194.757 87.5193 195.034 87.4084C195.312 87.2919 195.633 87.2337 196 87.2337C196.194 87.2337 196.391 87.2475 196.59 87.2753C196.795 87.303 196.976 87.3474 197.131 87.4084V87.1338C197.131 86.8288 197.04 86.5903 196.857 86.4183C196.673 86.2464 196.41 86.1604 196.066 86.1604C195.822 86.1604 195.592 86.2048 195.376 86.2935C195.159 86.3767 194.929 86.496 194.685 86.6513L194.377 86.0356C194.666 85.8415 194.954 85.6973 195.242 85.603C195.536 85.5087 195.844 85.4615 196.166 85.4615C196.748 85.4615 197.206 85.6168 197.539 85.9274C197.877 86.2325 198.046 86.6679 198.046 87.2337V88.856C198.046 88.9614 198.063 89.0363 198.096 89.0807C198.135 89.125 198.199 89.15 198.288 89.1555V89.8877C198.204 89.9043 198.129 89.9154 198.063 89.921C197.996 89.9265 197.941 89.9293 197.896 89.9293C197.702 89.9293 197.555 89.8821 197.456 89.7879C197.356 89.6936 197.297 89.5826 197.281 89.4551L197.256 89.2055C197.067 89.4495 196.826 89.6381 196.532 89.7712C196.238 89.9043 195.941 89.9709 195.642 89.9709C195.353 89.9709 195.095 89.9127 194.868 89.7962C194.641 89.6742 194.463 89.5105 194.336 89.3053C194.208 89.1001 194.144 88.8699 194.144 88.6148ZM196.915 88.881C196.981 88.8089 197.034 88.7368 197.073 88.6647C197.112 88.5926 197.131 88.5288 197.131 88.4733V87.9741C196.976 87.9131 196.812 87.8687 196.64 87.841C196.468 87.8077 196.299 87.7911 196.133 87.7911C195.8 87.7911 195.528 87.8577 195.317 87.9908C195.112 88.1239 195.009 88.3069 195.009 88.5399C195.009 88.6675 195.043 88.7895 195.109 88.906C195.181 89.0224 195.281 89.1167 195.409 89.1888C195.542 89.2609 195.706 89.297 195.9 89.297C196.099 89.297 196.291 89.2582 196.474 89.1805C196.657 89.1029 196.804 89.003 196.915 88.881ZM201.07 89.9543C200.626 89.9543 200.252 89.8738 199.947 89.713C199.647 89.5466 199.417 89.3192 199.256 89.0308L199.997 88.698C200.091 88.8588 200.224 88.9864 200.396 89.0807C200.568 89.1694 200.776 89.2138 201.02 89.2138C201.314 89.2138 201.542 89.1528 201.702 89.0308C201.863 88.9087 201.944 88.7479 201.944 88.5482C201.944 88.3652 201.877 88.2182 201.744 88.1072C201.611 87.9908 201.422 87.9298 201.178 87.9242H200.729V87.3418H201.195C201.306 87.3418 201.403 87.3169 201.486 87.2669C201.569 87.217 201.633 87.1505 201.677 87.0673C201.727 86.9785 201.752 86.8787 201.752 86.7678C201.752 86.6014 201.689 86.4682 201.561 86.3684C201.439 86.263 201.253 86.2103 201.004 86.2103C200.787 86.2103 200.61 86.2519 200.471 86.3351C200.332 86.4128 200.219 86.5292 200.13 86.6846L199.439 86.3185C199.584 86.0522 199.794 85.8442 200.072 85.6945C200.349 85.5447 200.674 85.4699 201.045 85.4699C201.339 85.4699 201.6 85.517 201.827 85.6113C202.06 85.7 202.24 85.8332 202.368 86.0106C202.501 86.1826 202.568 86.3961 202.568 86.6513C202.568 86.8509 202.521 87.0395 202.426 87.217C202.332 87.389 202.185 87.5165 201.985 87.5997C202.252 87.6774 202.451 87.8133 202.584 88.0074C202.723 88.196 202.792 88.4206 202.792 88.6813C202.792 88.9476 202.717 89.1777 202.568 89.3719C202.423 89.5604 202.221 89.7047 201.96 89.8045C201.7 89.9043 201.403 89.9543 201.07 89.9543ZM206.565 89.9709C206.215 89.9709 205.907 89.8877 205.641 89.7213C205.375 89.5549 205.164 89.3386 205.009 89.0723V91.6598H204.094V85.5364H204.901V86.3185C205.067 86.0578 205.283 85.8498 205.55 85.6945C205.816 85.5392 206.112 85.4615 206.44 85.4615C206.739 85.4615 207.014 85.5225 207.263 85.6446C207.513 85.761 207.729 85.9247 207.912 86.1354C208.095 86.3462 208.237 86.5875 208.337 86.8593C208.442 87.1255 208.495 87.4084 208.495 87.7079C208.495 88.1239 208.412 88.5038 208.245 88.8477C208.084 89.1916 207.857 89.4662 207.563 89.6714C207.274 89.8711 206.942 89.9709 206.565 89.9709ZM206.265 89.1888C206.459 89.1888 206.634 89.1472 206.789 89.064C206.95 88.9808 207.086 88.8699 207.197 88.7312C207.313 88.5926 207.402 88.4345 207.463 88.257C207.524 88.0795 207.555 87.8965 207.555 87.7079C207.555 87.5082 207.521 87.3196 207.455 87.1421C207.388 86.9647 207.291 86.8094 207.164 86.6762C207.042 86.5431 206.897 86.4377 206.731 86.3601C206.57 86.2824 206.393 86.2436 206.198 86.2436C206.082 86.2436 205.96 86.2658 205.832 86.3102C205.705 86.3545 205.586 86.4155 205.475 86.4932C205.364 86.5708 205.267 86.6624 205.183 86.7678C205.1 86.8731 205.042 86.9841 205.009 87.1005V88.2404C205.086 88.4179 205.189 88.5787 205.317 88.7229C205.444 88.8616 205.591 88.9753 205.758 89.064C205.924 89.1472 206.093 89.1888 206.265 89.1888ZM209.459 88.6148C209.459 88.3374 209.537 88.0962 209.692 87.8909C209.853 87.6802 210.072 87.5193 210.349 87.4084C210.627 87.2919 210.949 87.2337 211.315 87.2337C211.509 87.2337 211.706 87.2475 211.905 87.2753C212.111 87.303 212.291 87.3474 212.446 87.4084V87.1338C212.446 86.8288 212.355 86.5903 212.172 86.4183C211.988 86.2464 211.725 86.1604 211.381 86.1604C211.137 86.1604 210.907 86.2048 210.691 86.2935C210.474 86.3767 210.244 86.496 210 86.6513L209.692 86.0356C209.981 85.8415 210.269 85.6973 210.557 85.603C210.851 85.5087 211.159 85.4615 211.481 85.4615C212.063 85.4615 212.521 85.6168 212.854 85.9274C213.192 86.2325 213.361 86.6679 213.361 87.2337V88.856C213.361 88.9614 213.378 89.0363 213.411 89.0807C213.45 89.125 213.514 89.15 213.603 89.1555V89.8877C213.519 89.9043 213.444 89.9154 213.378 89.921C213.311 89.9265 213.256 89.9293 213.212 89.9293C213.017 89.9293 212.87 89.8821 212.771 89.7879C212.671 89.6936 212.612 89.5826 212.596 89.4551L212.571 89.2055C212.382 89.4495 212.141 89.6381 211.847 89.7712C211.553 89.9043 211.256 89.9709 210.957 89.9709C210.668 89.9709 210.41 89.9127 210.183 89.7962C209.956 89.6742 209.778 89.5105 209.651 89.3053C209.523 89.1001 209.459 88.8699 209.459 88.6148ZM212.23 88.881C212.296 88.8089 212.349 88.7368 212.388 88.6647C212.427 88.5926 212.446 88.5288 212.446 88.4733V87.9741C212.291 87.9131 212.127 87.8687 211.955 87.841C211.783 87.8077 211.614 87.7911 211.448 87.7911C211.115 87.7911 210.843 87.8577 210.632 87.9908C210.427 88.1239 210.325 88.3069 210.325 88.5399C210.325 88.6675 210.358 88.7895 210.424 88.906C210.496 89.0224 210.596 89.1167 210.724 89.1888C210.857 89.2609 211.021 89.297 211.215 89.297C211.414 89.297 211.606 89.2582 211.789 89.1805C211.972 89.1029 212.119 89.003 212.23 88.881ZM217.034 89.9709C216.307 89.9709 215.756 89.7518 215.378 89.3136C215.001 88.8754 214.813 88.2487 214.813 87.4333C214.813 86.9009 214.857 86.4516 214.946 86.0855C215.04 85.7139 215.176 85.4088 215.353 85.1703C215.537 84.9318 215.761 84.7377 216.027 84.588C216.299 84.4326 216.613 84.3078 216.968 84.2136L218.823 83.6977L218.856 84.4632L217.034 84.979C216.746 85.0677 216.499 85.1842 216.294 85.3284C216.094 85.4726 215.936 85.6612 215.819 85.8942C215.703 86.1216 215.625 86.41 215.586 86.7594C215.742 86.4766 215.964 86.2547 216.252 86.0938C216.54 85.933 216.882 85.8526 217.275 85.8526C217.68 85.8526 218.03 85.9385 218.324 86.1105C218.618 86.2769 218.845 86.5098 219.006 86.8094C219.167 87.1089 219.247 87.4528 219.247 87.841C219.247 88.2626 219.161 88.6342 218.989 88.9559C218.823 89.272 218.573 89.5216 218.24 89.7047C217.913 89.8821 217.511 89.9709 217.034 89.9709ZM217.034 89.1888C217.439 89.1888 217.752 89.0696 217.974 88.8311C218.202 88.5926 218.315 88.2764 218.315 87.8826C218.315 87.5054 218.202 87.1976 217.974 86.9591C217.752 86.7151 217.439 86.593 217.034 86.593C216.796 86.593 216.579 86.6457 216.385 86.7511C216.191 86.8509 216.038 86.9979 215.928 87.1921C215.817 87.3806 215.761 87.6108 215.761 87.8826C215.761 88.1378 215.811 88.3652 215.911 88.5648C216.011 88.759 216.155 88.9115 216.344 89.0224C216.532 89.1334 216.762 89.1888 217.034 89.1888ZM222.485 89.9709C222.141 89.9709 221.833 89.9127 221.561 89.7962C221.29 89.6742 221.054 89.5078 220.854 89.297C220.66 89.0862 220.51 88.8477 220.405 88.5815C220.3 88.3097 220.247 88.0213 220.247 87.7162C220.247 87.4112 220.3 87.1227 220.405 86.8509C220.51 86.5792 220.66 86.3407 220.854 86.1354C221.054 85.9247 221.29 85.761 221.561 85.6446C221.839 85.5225 222.147 85.4615 222.485 85.4615C222.823 85.4615 223.128 85.5225 223.4 85.6446C223.677 85.761 223.913 85.9247 224.107 86.1354C224.307 86.3407 224.46 86.5792 224.565 86.8509C224.67 87.1227 224.723 87.4112 224.723 87.7162C224.723 88.0213 224.67 88.3097 224.565 88.5815C224.46 88.8477 224.307 89.0862 224.107 89.297C223.913 89.5078 223.677 89.6742 223.4 89.7962C223.128 89.9127 222.823 89.9709 222.485 89.9709ZM221.187 87.7245C221.187 88.0019 221.245 88.2515 221.362 88.4733C221.478 88.6952 221.634 88.8699 221.828 88.9975C222.022 89.125 222.241 89.1888 222.485 89.1888C222.723 89.1888 222.94 89.125 223.134 88.9975C223.334 88.8644 223.492 88.6869 223.608 88.465C223.725 88.2376 223.783 87.988 223.783 87.7162C223.783 87.4389 223.725 87.1893 223.608 86.9674C223.492 86.7456 223.334 86.5708 223.134 86.4433C222.94 86.3102 222.723 86.2436 222.485 86.2436C222.241 86.2436 222.022 86.3102 221.828 86.4433C221.634 86.5764 221.478 86.7539 221.362 86.9757C221.245 87.1921 221.187 87.4417 221.187 87.7245ZM227.024 89.8877V86.3434H225.585V85.5364H229.387V86.3434H227.939V89.8877H227.024ZM230.529 89.8877V85.5364H231.435V87.2586H231.868L233.149 85.5364H234.164L232.575 87.6413L234.347 89.8877H233.291L231.86 88.0823H231.435V89.8877H230.529ZM235.504 89.8877V85.5447H236.419V88.6647L238.624 85.5364H239.455V89.8877H238.54V86.8343L236.361 89.8877H235.504Z" fill="white"/>
</g>
<defs>
<linearGradient id="paint0_linear_1108_370543" x1="-3.50052e-08" y1="54" x2="275" y2="47.5" gradientUnits="userSpaceOnUse">
<stop stop-color="#282C30"/>
<stop offset="1" stop-color="#2B3034"/>
</linearGradient>
<clipPath id="clip0_1108_370543">
<rect width="233.82" height="103.92" fill="white" transform="translate(20.4297)"/>
</clipPath>
</defs>
</svg>
