<svg width="16" height="16" viewBox="0 0 16 16" fill="none" xmlns="http://www.w3.org/2000/svg">
<g clip-path="url(#clip0_1024_310833)">
<path d="M3.86366 6.53098C4.15655 6.23809 4.15655 5.76321 3.86366 5.47032C3.57077 5.17743 3.09589 5.17743 2.803 5.47032L3.86366 6.53098ZM1.33333 8.00065L0.802998 7.47032C0.510105 7.76321 0.510105 8.23809 0.802998 8.53098L1.33333 8.00065ZM2.803 10.531C3.09589 10.8239 3.57077 10.8239 3.86366 10.531C4.15655 10.2381 4.15655 9.76321 3.86366 9.47032L2.803 10.531ZM5.46966 2.80365C5.17677 3.09655 5.17677 3.57142 5.46966 3.86431C5.76256 4.15721 6.23743 4.15721 6.53033 3.86431L5.46966 2.80365ZM8 1.33398L8.53033 0.803654C8.23743 0.510761 7.76256 0.510761 7.46967 0.803654L8 1.33398ZM9.46967 3.86431C9.76256 4.15721 10.2374 4.15721 10.5303 3.86431C10.8232 3.57142 10.8232 3.09655 10.5303 2.80365L9.46967 3.86431ZM10.5303 13.1976C10.8232 12.9048 10.8232 12.4299 10.5303 12.137C10.2374 11.8441 9.76256 11.8441 9.46967 12.137L10.5303 13.1976ZM8 14.6673L7.46967 15.1976C7.76256 15.4905 8.23743 15.4905 8.53033 15.1976L8 14.6673ZM6.53033 12.137C6.23743 11.8441 5.76256 11.8441 5.46966 12.137C5.17677 12.4299 5.17677 12.9048 5.46966 13.1976L6.53033 12.137ZM13.197 5.47032C12.9041 5.17743 12.4292 5.17743 12.1363 5.47032C11.8434 5.76321 11.8434 6.23809 12.1363 6.53098L13.197 5.47032ZM14.6667 8.00065L15.197 8.53098C15.4899 8.23809 15.4899 7.76321 15.197 7.47032L14.6667 8.00065ZM12.1363 9.47032C11.8434 9.76321 11.8434 10.2381 12.1363 10.531C12.4292 10.8239 12.9041 10.8239 13.197 10.531L12.1363 9.47032ZM2.803 5.47032L0.802998 7.47032L1.86366 8.53098L3.86366 6.53098L2.803 5.47032ZM0.802998 8.53098L2.803 10.531L3.86366 9.47032L1.86366 7.47032L0.802998 8.53098ZM6.53033 3.86431L8.53033 1.86431L7.46967 0.803654L5.46966 2.80365L6.53033 3.86431ZM7.46967 1.86431L9.46967 3.86431L10.5303 2.80365L8.53033 0.803654L7.46967 1.86431ZM9.46967 12.137L7.46967 14.137L8.53033 15.1976L10.5303 13.1976L9.46967 12.137ZM8.53033 14.137L6.53033 12.137L5.46966 13.1976L7.46967 15.1976L8.53033 14.137ZM12.1363 6.53098L14.1363 8.53098L15.197 7.47032L13.197 5.47032L12.1363 6.53098ZM14.1363 7.47032L12.1363 9.47032L13.197 10.531L15.197 8.53098L14.1363 7.47032ZM1.33333 8.75065H14.6667V7.25065H1.33333V8.75065ZM7.25 1.33398V14.6673H8.75V1.33398H7.25Z" fill="#B4B4B4"/>
</g>
<defs>
<clipPath id="clip0_1024_310833">
<rect width="16" height="16" fill="white"/>
</clipPath>
</defs>
</svg>
