<svg width="28" height="28" viewBox="0 0 28 28" fill="none" xmlns="http://www.w3.org/2000/svg">
<path d="M14 2.33333L13.3017 1.61755C13.6901 1.2386 14.3099 1.2386 14.6983 1.61755L14 2.33333ZM7.69832 9.87838C7.30301 10.2641 6.66989 10.2562 6.28422 9.86093C5.89854 9.46561 5.90636 8.83249 6.30168 8.44682L7.69832 9.87838ZM21.6983 8.44682C22.0936 8.83249 22.1015 9.46561 21.7158 9.86093C21.3301 10.2562 20.697 10.2641 20.3017 9.87838L21.6983 8.44682ZM15 21C15 21.5523 14.5523 22 14 22C13.4477 22 13 21.5523 13 21L15 21ZM14.6983 3.04912L7.69832 9.87838L6.30168 8.44682L13.3017 1.61755L14.6983 3.04912ZM14.6983 1.61755L21.6983 8.44682L20.3017 9.87838L13.3017 3.04912L14.6983 1.61755ZM15 2.33333L15 21L13 21L13 2.33333L15 2.33333Z" fill="#D83131"/>
<path d="M2.33325 25.6665H25.6666" stroke="#D83131" stroke-width="2" stroke-linecap="round"/>
</svg>
