<svg width="16" height="16" viewBox="0 0 16 16" fill="none" xmlns="http://www.w3.org/2000/svg">
<path d="M5.19024 8.87805H5.91219V7.25854H6.84878C7.05691 7.25854 7.22927 7.19024 7.36585 7.05366C7.50244 6.91707 7.57073 6.74472 7.57073 6.53659V5.6C7.57073 5.39187 7.50244 5.21951 7.36585 5.08293C7.22927 4.94634 7.05691 4.87805 6.84878 4.87805H5.19024V8.87805ZM5.91219 6.53659V5.6H6.84878V6.53659H5.91219ZM8.40976 8.87805H10.0488C10.2439 8.87805 10.413 8.80976 10.5561 8.67317C10.6992 8.53659 10.7707 8.36423 10.7707 8.1561V5.6C10.7707 5.39187 10.6992 5.21951 10.5561 5.08293C10.413 4.94634 10.2439 4.87805 10.0488 4.87805H8.40976V8.87805ZM9.13171 8.1561V5.6H10.0488V8.1561H9.13171ZM11.7073 8.87805H12.4293V7.25854H13.4049V6.53659H12.4293V5.6H13.4049V4.87805H11.7073V8.87805ZM3.82439 13.5024C3.47317 13.5024 3.16423 13.3691 2.89756 13.1024C2.63089 12.8358 2.49756 12.5268 2.49756 12.1756V1.32683C2.49756 0.962602 2.63089 0.650406 2.89756 0.390244C3.16423 0.130081 3.47317 0 3.82439 0H14.6732C15.0374 0 15.3496 0.130081 15.6098 0.390244C15.8699 0.650406 16 0.962602 16 1.32683V12.1756C16 12.5268 15.8699 12.8358 15.6098 13.1024C15.3496 13.3691 15.0374 13.5024 14.6732 13.5024H3.82439ZM3.82439 12.1756H14.6732V1.32683H3.82439V12.1756ZM1.32683 16C0.962602 16 0.650406 15.8699 0.390244 15.6098C0.130081 15.3496 0 15.0374 0 14.6732V2.49756H1.32683V14.6732H13.5024V16H1.32683ZM3.82439 1.32683V12.1756V1.32683V1.32683Z" fill="white"/>
</svg>
