<svg width="17" height="17" viewBox="0 0 17 17" fill="#B4B4B4" xmlns="http://www.w3.org/2000/svg">
<path d="M11.475 2.125L12.0053 1.59467C11.8647 1.45402 11.6739 1.375 11.475 1.375C11.2761 1.375 11.0853 1.45402 10.9447 1.59467L11.475 2.125ZM14.875 5.525L15.4053 6.05533C15.546 5.91468 15.625 5.72391 15.625 5.525C15.625 5.32609 15.546 5.13532 15.4053 4.99467L14.875 5.525ZM5.525 14.875V15.625C5.72391 15.625 5.91468 15.546 6.05533 15.4053L5.525 14.875ZM2.125 14.875H1.375C1.375 15.2892 1.71079 15.625 2.125 15.625V14.875ZM2.125 11.475L1.59467 10.9447C1.45402 11.0853 1.375 11.2761 1.375 11.475H2.125ZM10.9447 2.65533L14.3447 6.05533L15.4053 4.99467L12.0053 1.59467L10.9447 2.65533ZM5.525 14.125H2.125V15.625H5.525V14.125ZM2.875 14.875V11.475H1.375V14.875H2.875ZM2.65533 12.0053L9.03033 5.63033L7.96967 4.56967L1.59467 10.9447L2.65533 12.0053ZM9.03033 5.63033L12.0053 2.65533L10.9447 1.59467L7.96967 4.56967L9.03033 5.63033ZM14.3447 4.99467L11.3697 7.96967L12.4303 9.03033L15.4053 6.05533L14.3447 4.99467ZM11.3697 7.96967L4.99467 14.3447L6.05533 15.4053L12.4303 9.03033L11.3697 7.96967ZM7.96967 5.63033L11.3697 9.03033L12.4303 7.96967L9.03033 4.56967L7.96967 5.63033Z" />
</svg>
