<svg width="32" height="32" viewBox="0 0 32 32" fill="none" xmlns="http://www.w3.org/2000/svg">
<path d="M10.276 2.77332C10.276 2.77332 4.20637 2.1072 2.85756 4.10562C1.23898 14.231 10.276 22.5357 14.9969 25.4224C19.0433 27.6428 27.1362 31.018 28.2153 28.3534C29.5641 25.0227 29.5641 22.7578 28.8897 21.4255C28.3502 20.3597 23.7642 18.5388 21.741 18.0947L19.0434 21.0258C15.8062 20.4929 11.6248 15.6522 10.276 13.4317L12.9737 10.7671C12.9737 7.03667 11.1752 3.88357 10.276 2.77332Z" fill="white" stroke="white" stroke-width="2" stroke-linecap="round" stroke-linejoin="round"/>
<path d="M23.7226 12.7716C23.396 11.6457 22.7794 10.6258 21.935 9.81442C21.0906 9.00306 20.048 8.42885 18.9121 8.14949M29.3327 10.3975C28.8673 8.35887 27.7772 6.5173 26.2154 5.13094C24.6535 3.74458 22.6981 2.88293 20.6232 2.66675" stroke="white" stroke-width="2" stroke-linecap="round" stroke-linejoin="round"/>
</svg>
