<svg width="40" height="40" viewBox="0 0 40 40" fill="none" xmlns="http://www.w3.org/2000/svg">
<path d="M19.9997 21.75C19.4441 21.75 18.9788 21.5625 18.6038 21.1875C18.2288 20.8125 18.0413 20.3472 18.0413 19.7917V5.75C18.0413 5.19444 18.2288 4.72222 18.6038 4.33333C18.9788 3.94444 19.4441 3.75 19.9997 3.75C20.5552 3.75 21.0205 3.94444 21.3955 4.33333C21.7705 4.72222 21.958 5.19444 21.958 5.75V19.7917C21.958 20.3472 21.7705 20.8125 21.3955 21.1875C21.0205 21.5625 20.5552 21.75 19.9997 21.75ZM19.9997 36.125C17.7775 36.125 15.6941 35.7083 13.7497 34.875C11.8052 34.0417 10.1038 32.8958 8.64551 31.4375C7.18717 29.9792 6.04134 28.2778 5.20801 26.3333C4.37467 24.3889 3.95801 22.3056 3.95801 20.0833C3.95801 18.1389 4.30523 16.2708 4.99967 14.4792C5.69412 12.6875 6.69412 11.0833 7.99967 9.66667C8.36079 9.22222 8.83301 8.97222 9.41634 8.91667C9.99967 8.86111 10.5136 9.02778 10.958 9.41667C11.3469 9.80556 11.5344 10.2708 11.5205 10.8125C11.5066 11.3542 11.333 11.8333 10.9997 12.25C10.0275 13.3333 9.26356 14.5417 8.70801 15.875C8.15245 17.2083 7.87467 18.6111 7.87467 20.0833C7.87467 23.4444 9.05523 26.3056 11.4163 28.6667C13.7775 31.0278 16.6386 32.2083 19.9997 32.2083C23.3608 32.2083 26.2219 31.0278 28.583 28.6667C30.9441 26.3056 32.1247 23.4444 32.1247 20.0833C32.1247 18.6111 31.8538 17.2083 31.3122 15.875C30.7705 14.5417 30.0136 13.3333 29.0413 12.25C28.708 11.8056 28.5413 11.3125 28.5413 10.7708C28.5413 10.2292 28.7358 9.77778 29.1247 9.41667C29.5691 9 30.09 8.83333 30.6872 8.91667C31.2844 9 31.7913 9.27778 32.208 9.75C33.458 11.1667 34.4163 12.7639 35.083 14.5417C35.7497 16.3194 36.083 18.1667 36.083 20.0833C36.083 22.3056 35.6594 24.3889 34.8122 26.3333C33.965 28.2778 32.8122 29.9792 31.3538 31.4375C29.8955 32.8958 28.1941 34.0417 26.2497 34.875C24.3052 35.7083 22.2219 36.125 19.9997 36.125Z" fill="white"/>
</svg>
