<svg width="26" height="28" viewBox="0 0 26 28" fill="none" xmlns="http://www.w3.org/2000/svg">
<path opacity="0.7" d="M2.00368 21.337L2 6.6593L10.9334 12.1341V1L23.0775 8.42538L14.0893 13.9318V10.2393L17.0395 8.43102L14.0727 6.62618L14.0893 14.0682L23.0648 19.569L10.9351 26.9999M2.00368 21.337L5.1486 15.7201M2.00368 21.337L10.9334 15.8668L10.9351 26.9999M5.1486 15.7201V12.2874L7.9476 14.0041L5.1486 15.7201ZM10.9351 26.9999L12.7184 23.8158M10.9466 15.8587L12.3717 16.7177L10.9589 15.8511L10.9466 15.8587ZM14.0893 21.368L17.0321 19.5763L14.0893 17.7712V21.368Z" stroke="#373F48" stroke-width="2" stroke-linejoin="round"/>
<path d="M2 6.65918L5.1486 12.2871V15.72L2.00368 21.3368L2 6.65918Z" fill="#5B57A2"/>
<path d="M14.0894 10.2397L17.0397 8.43141L23.0778 8.42578L14.0894 13.9321V10.2397Z" fill="#D90751"/>
<path d="M14.0729 6.62618L14.0896 14.0773L10.9336 12.1382V1L14.0731 6.62618H14.0729Z" fill="#FAB718"/>
<path d="M23.078 8.42538L17.0397 8.43102L14.0729 6.62618L10.9336 1L23.0778 8.42538H23.078Z" fill="#ED6F26"/>
<path d="M14.0896 21.368V17.7529L10.9336 15.8506L10.9353 26.9998L14.0896 21.368Z" fill="#63B22F"/>
<path d="M17.0323 19.5762L5.14838 12.2871L2 6.65918L23.065 19.5688L17.0321 19.5762H17.0323Z" fill="#1487C9"/>
<path d="M10.9355 27.0004L14.0893 21.3685L17.0323 19.5767L23.065 19.5693L10.9355 27.0004Z" fill="#017F36"/>
<path d="M2.00391 21.3372L10.9594 15.8512L7.94859 14.0039L5.14882 15.7203L2.00391 21.3372Z" fill="#984995"/>
</svg>
