<svg width="17" height="17" viewBox="0 0 17 17" fill="none" xmlns="http://www.w3.org/2000/svg">
<path d="M5.3125 14.875L5.8573 15.3905C5.71564 15.5402 5.51861 15.625 5.3125 15.625C5.10639 15.625 4.90936 15.5402 4.76771 15.3905L5.3125 14.875ZM1.58021 12.0216C1.29553 11.7207 1.30866 11.246 1.60954 10.9613C1.91042 10.6766 2.38511 10.6898 2.6698 10.9906L1.58021 12.0216ZM7.95521 10.9906C8.23989 10.6898 8.71458 10.6766 9.01546 10.9613C9.31634 11.246 9.32948 11.7207 9.0448 12.0216L7.95521 10.9906ZM4.5625 5.66667C4.5625 5.25245 4.89829 4.91667 5.3125 4.91667C5.72671 4.91667 6.0625 5.25245 6.0625 5.66667L4.5625 5.66667ZM11.6875 2.125L11.1427 1.60954C11.2844 1.45982 11.4814 1.375 11.6875 1.375C11.8936 1.375 12.0906 1.45982 12.2323 1.60954L11.6875 2.125ZM9.04479 6.00936C8.76011 6.31024 8.28542 6.32338 7.98454 6.0387C7.68366 5.75402 7.67052 5.27932 7.95521 4.97844L9.04479 6.00936ZM15.4198 4.97844C15.7045 5.27932 15.6913 5.75402 15.3905 6.0387C15.0896 6.32338 14.6149 6.31024 14.3302 6.00936L15.4198 4.97844ZM12.4375 11.3333C12.4375 11.7475 12.1017 12.0833 11.6875 12.0833C11.2733 12.0833 10.9375 11.7475 10.9375 11.3333L12.4375 11.3333ZM4.76771 15.3905L1.58021 12.0216L2.6698 10.9906L5.8573 14.3595L4.76771 15.3905ZM4.76771 14.3595L7.95521 10.9906L9.0448 12.0216L5.8573 15.3905L4.76771 14.3595ZM4.5625 14.875L4.5625 5.66667L6.0625 5.66667L6.0625 14.875L4.5625 14.875ZM12.2323 2.64046L9.04479 6.00936L7.95521 4.97844L11.1427 1.60954L12.2323 2.64046ZM12.2323 1.60954L15.4198 4.97844L14.3302 6.00936L11.1427 2.64046L12.2323 1.60954ZM12.4375 2.125L12.4375 11.3333L10.9375 11.3333L10.9375 2.125L12.4375 2.125Z" fill="#5D6672"/>
</svg>
