<svg width="24" height="24" viewBox="0 0 24 24" fill="white" xmlns="http://www.w3.org/2000/svg">
<path d="M21 7C21.5523 7 22 6.55228 22 6C22 5.44772 21.5523 5 21 5V7ZM3 5C2.44772 5 2 5.44772 2 6C2 6.55228 2.44772 7 3 7V5ZM16 6V7H17V6H16ZM8 6H7V7H8V6ZM5 7H19V5H5V7ZM18 6V20H20V6H18ZM17 21H7V23H17V21ZM6 20V6H4V20H6ZM19 7H21V5H19V7ZM5 5H3V7H5V5ZM7 21C6.44772 21 6 20.5523 6 20H4C4 21.6569 5.34315 23 7 23V21ZM18 20C18 20.5523 17.5523 21 17 21V23C18.6569 23 20 21.6569 20 20H18ZM10 3H14V1H10V3ZM15 4V6H17V4H15ZM16 5H8V7H16V5ZM9 6V4H7V6H9ZM14 3C14.5523 3 15 3.44771 15 4H17C17 2.34315 15.6569 1 14 1V3ZM10 1C8.34315 1 7 2.34315 7 4H9C9 3.44772 9.44772 3 10 3V1Z"  />
<path d="M15.3684 10.5713C15.3684 10.019 14.9207 9.57129 14.3684 9.57129C13.8161 9.57129 13.3684 10.019 13.3684 10.5713H15.3684ZM13.3684 17.238C13.3684 17.7902 13.8161 18.238 14.3684 18.238C14.9207 18.238 15.3684 17.7902 15.3684 17.238H13.3684ZM10.6316 10.5713C10.6316 10.019 10.1839 9.57129 9.63159 9.57129C9.07931 9.57129 8.63159 10.019 8.63159 10.5713H10.6316ZM8.63159 17.238C8.63159 17.7902 9.07931 18.238 9.63159 18.238C10.1839 18.238 10.6316 17.7902 10.6316 17.238H8.63159ZM13.3684 10.5713V17.238H15.3684V10.5713H13.3684ZM8.63159 10.5713V17.238H10.6316V10.5713H8.63159Z"  />
</svg>
