<svg width="16" height="16" viewBox="0 0 16 16" fill="#B4B4B4" xmlns="http://www.w3.org/2000/svg">
<path fill-rule="evenodd" clip-rule="evenodd" d="M6.66671 0.666504C5.56214 0.666504 4.66671 1.56193 4.66671 2.6665V3.33317H2.00004C1.63185 3.33317 1.33337 3.63165 1.33337 3.99984C1.33337 4.36803 1.63185 4.6665 2.00004 4.6665H2.66671V13.3332C2.66671 14.4377 3.56214 15.3332 4.66671 15.3332H11.3334C12.4379 15.3332 13.3334 14.4377 13.3334 13.3332V4.6665H14C14.3682 4.6665 14.6667 4.36803 14.6667 3.99984C14.6667 3.63165 14.3682 3.33317 14 3.33317H11.3334V2.6665C11.3334 1.56193 10.4379 0.666504 9.33337 0.666504H6.66671ZM10 3.33317H6.00004V2.6665C6.00004 2.29831 6.29852 1.99984 6.66671 1.99984H9.33337C9.70156 1.99984 10 2.29831 10 2.6665V3.33317ZM7.1711 7.04745C7.1711 6.63324 6.83532 6.29745 6.4211 6.29745C6.00689 6.29745 5.6711 6.63324 5.6711 7.04745V11.4919C5.6711 11.9061 6.00689 12.2419 6.4211 12.2419C6.83532 12.2419 7.1711 11.9061 7.1711 11.4919V7.04745ZM10.329 7.04745C10.329 6.63324 9.99321 6.29745 9.579 6.29745C9.16478 6.29745 8.829 6.63324 8.829 7.04745V11.4919C8.829 11.9061 9.16478 12.2419 9.579 12.2419C9.99321 12.2419 10.329 11.9061 10.329 11.4919V7.04745Z"/>
</svg>
