<svg width="16" height="16" viewBox="0 0 16 16" fill="none" xmlns="http://www.w3.org/2000/svg">
<g clip-path="url(#clip0_804_54898)">
<path d="M1.48634 16C1.0929 16 0.746812 15.8506 0.448088 15.5519C0.149363 15.2532 0 14.9071 0 14.5137V1.48634C0 1.07832 0.149363 0.728598 0.448088 0.437158C0.746812 0.145719 1.0929 0 1.48634 0H14.5137C14.9217 0 15.2714 0.145719 15.5628 0.437158C15.8543 0.728598 16 1.07832 16 1.48634V14.5137C16 14.9071 15.8543 15.2532 15.5628 15.5519C15.2714 15.8506 14.9217 16 14.5137 16H1.48634ZM1.48634 14.5137H14.5137V1.48634H1.48634V14.5137Z" fill="#B4B4B4"/>
</g>
<defs>
<clipPath id="clip0_804_54898">
<rect width="16" height="16" fill="white"/>
</clipPath>
</defs>
</svg>
