<svg width="22" height="22" viewBox="0 0 22 22" fill="none" xmlns="http://www.w3.org/2000/svg">
<g clip-path="url(#clip0_1062_368967)">
<path d="M21.0809 12.9934V17.0257H19.0647L19.0647 19.5459H15.0324L15.0324 17.0257H6.96773L6.9677 19.5459H2.93537L2.9354 17.0257H0.919237V12.9934C0.919237 11.6493 0.717621 8.96109 3.94348 8.96109L4.95156 4.92876C4.95156 4.25671 5.3548 2.9126 6.96773 2.9126H15.0324C16.6453 2.9126 17.0485 4.25671 17.0485 4.92876L18.0566 8.96109C21.2825 8.96109 21.0809 11.6493 21.0809 12.9934Z" fill="white"/>
<path d="M18.0566 8.96109C21.2825 8.96109 21.0809 11.6493 21.0809 12.9934V17.0257H19.0647M18.0566 8.96109C15.3684 8.96109 7.16934 8.96109 3.94348 8.96109M18.0566 8.96109L17.0485 4.92876C17.0485 4.25671 16.6453 2.9126 15.0324 2.9126C13.0162 2.9126 8.58066 2.9126 6.96773 2.9126C5.3548 2.9126 4.95156 4.25671 4.95156 4.92876L3.94348 8.96109M3.94348 8.96109C0.717621 8.96109 0.919237 11.6493 0.919237 12.9934V17.0257H2.9354M2.9354 17.0257H6.96773M2.9354 17.0257L2.93537 19.5459H6.9677L6.96773 17.0257M6.96773 17.0257H15.0324M19.0647 17.0257H15.0324M19.0647 17.0257L19.0647 19.5459H15.0324L15.0324 17.0257" stroke="white" stroke-width="2" stroke-linecap="round" stroke-linejoin="round"/>
<path fill-rule="evenodd" clip-rule="evenodd" d="M4.95156 7.95298H17.0485L16.1845 5.26476C16.1845 4.81673 15.8388 3.92065 14.4563 3.92065H7.54377C6.16126 3.92065 5.81563 4.81673 5.81563 5.26476L4.95156 7.95298ZM3.94348 11.2353C3.52927 11.2353 3.19348 11.5711 3.19348 11.9853C3.19348 12.3995 3.52927 12.7353 3.94348 12.7353H5.95964C6.37386 12.7353 6.70964 12.3995 6.70964 11.9853C6.70964 11.5711 6.37386 11.2353 5.95964 11.2353H3.94348ZM16.0405 11.2353C15.6262 11.2353 15.2905 11.5711 15.2905 11.9853C15.2905 12.3995 15.6262 12.7353 16.0405 12.7353H18.0566C18.4708 12.7353 18.8066 12.3995 18.8066 11.9853C18.8066 11.5711 18.4708 11.2353 18.0566 11.2353H16.0405Z" fill="#1F2225"/>
</g>
<defs>
<clipPath id="clip0_1062_368967">
<rect width="22" height="22" fill="white"/>
</clipPath>
</defs>
</svg>
