<svg width="22" height="22" viewBox="0 0 22 22" fill="none" xmlns="http://www.w3.org/2000/svg">
<path fill-rule="evenodd" clip-rule="evenodd" d="M0 3.66675V18.3334C0 19.8522 1.15427 21.0834 2.57812 21.0834H2.66667C3.21895 21.0834 3.66667 20.6357 3.66667 20.0834L3.66667 14.7501C3.66667 14.1978 4.11438 13.7501 4.66667 13.7501L9.08333 13.7501C9.63562 13.7501 10.0833 14.1978 10.0833 14.7501V20.0834C10.0833 20.6357 10.531 21.0834 11.0833 21.0834H11.1719H21C21.5523 21.0834 22 20.6357 22 20.0834V13.6356C22 13.1669 21.6745 12.7611 21.2169 12.6594L13.75 11.0001L13.75 3.66675C13.75 2.14796 12.5957 0.916748 11.1719 0.916748L2.57812 0.916748C1.15427 0.916748 0 2.14796 0 3.66675ZM2.66667 10.0834C2.66667 10.6357 3.11438 11.0834 3.66667 11.0834C4.21895 11.0834 4.66667 10.6357 4.66667 10.0834L4.66667 9.16675C4.66667 8.61446 4.21895 8.16675 3.66667 8.16675C3.11438 8.16675 2.66667 8.61446 2.66667 9.16675V10.0834ZM2.66667 5.50008C2.66667 6.05236 3.11438 6.50008 3.66667 6.50008C4.21895 6.50008 4.66667 6.05236 4.66667 5.50008V4.58341C4.66667 4.03113 4.21895 3.58341 3.66667 3.58341C3.11438 3.58341 2.66667 4.03113 2.66667 4.58341V5.50008ZM9.08333 10.0834C9.08333 10.6357 9.53105 11.0834 10.0833 11.0834C10.6356 11.0834 11.0833 10.6357 11.0833 10.0834L11.0833 9.16675C11.0833 8.61446 10.6356 8.16675 10.0833 8.16675C9.53105 8.16675 9.08333 8.61446 9.08333 9.16675L9.08333 10.0834ZM9.08333 5.50008C9.08333 6.05236 9.53105 6.50008 10.0833 6.50008C10.6356 6.50008 11.0833 6.05236 11.0833 5.50008L11.0833 4.58341C11.0833 4.03113 10.6356 3.58341 10.0833 3.58341C9.53105 3.58341 9.08333 4.03113 9.08333 4.58341L9.08333 5.50008ZM16.5833 18.3334C16.5833 18.8857 16.1356 19.3334 15.5833 19.3334H15.125C14.5727 19.3334 14.125 18.8857 14.125 18.3334C14.125 17.7811 14.5727 17.3334 15.125 17.3334H15.5833C16.1356 17.3334 16.5833 17.7811 16.5833 18.3334ZM15.5833 15.6667C16.1356 15.6667 16.5833 15.219 16.5833 14.6667C16.5833 14.1145 16.1356 13.6667 15.5833 13.6667H15.125C14.5727 13.6667 14.125 14.1145 14.125 14.6667C14.125 15.219 14.5727 15.6667 15.125 15.6667H15.5833ZM20.25 18.3334C20.25 18.8857 19.8023 19.3334 19.25 19.3334H18.7917C18.2394 19.3334 17.7917 18.8857 17.7917 18.3334C17.7917 17.7811 18.2394 17.3334 18.7917 17.3334H19.25C19.8023 17.3334 20.25 17.7811 20.25 18.3334ZM19.25 15.6667C19.8023 15.6667 20.25 15.219 20.25 14.6667C20.25 14.1145 19.8023 13.6667 19.25 13.6667H18.7917C18.2394 13.6667 17.7917 14.1145 17.7917 14.6667C17.7917 15.219 18.2394 15.6667 18.7917 15.6667H19.25Z" fill="white"/>
</svg>
