<svg width="22" height="22" viewBox="0 0 22 22" fill="none" xmlns="http://www.w3.org/2000/svg">
<g clip-path="url(#clip0_1062_368948)">
<path d="M15.0036 1.92362L4.125 5.49992H17.4167V3.56959C17.4167 2.38535 16.1907 1.54913 15.0036 1.92362Z" stroke="white" stroke-width="2" stroke-linecap="round" stroke-linejoin="round"/>
<path fill-rule="evenodd" clip-rule="evenodd" d="M4.58329 4.58325C2.55825 4.58325 0.916626 6.22487 0.916626 8.24992V17.4166C0.916626 19.4416 2.55825 21.0833 4.58329 21.0833H17.4166C19.4417 21.0833 21.0833 19.4416 21.0833 17.4166V17.0416H16.0416C13.7174 17.0416 11.8333 15.1575 11.8333 12.8333C11.8333 10.5091 13.7174 8.62492 16.0416 8.62492H21.0833V8.24992C21.0833 6.22487 19.4417 4.58325 17.4166 4.58325H4.58329ZM13.8333 12.8333C13.8333 11.6136 14.822 10.6249 16.0416 10.6249H21V12.8333V15.0416H16.0416C14.822 15.0416 13.8333 14.0529 13.8333 12.8333ZM16.5 11.8333C15.9477 11.8333 15.5 12.281 15.5 12.8333C15.5 13.3855 15.9477 13.8333 16.5 13.8333H17.4166C17.9689 13.8333 18.4166 13.3855 18.4166 12.8333C18.4166 12.281 17.9689 11.8333 17.4166 11.8333H16.5Z" fill="white"/>
</g>
<defs>
<clipPath id="clip0_1062_368948">
<rect width="22" height="22" fill="white"/>
</clipPath>
</defs>
</svg>
