<svg width="22" height="22" viewBox="0 0 22 22" fill="none" xmlns="http://www.w3.org/2000/svg">
<path d="M11.259 11.9583H5.24105C3.10589 11.9583 1.375 13.8117 1.375 16.0979C1.375 17.3325 2.29975 18.3333 3.44048 18.3333H13.0595C14.2003 18.3333 15.125 17.3325 15.125 16.0979C15.125 13.8117 13.3941 11.9583 11.259 11.9583Z" fill="white"/>
<path d="M11.3438 5.9375C11.3438 7.69791 9.95863 9.125 8.25 9.125C6.54137 9.125 5.15625 7.69791 5.15625 5.9375C5.15625 4.17709 6.54137 2.75 8.25 2.75C9.95863 2.75 11.3438 4.17709 11.3438 5.9375Z" fill="white"/>
<path d="M16.5941 10.6971C16.0418 10.6971 15.5941 11.1448 15.5941 11.6971C15.5941 12.2494 16.0418 12.6971 16.5941 12.6971V10.6971ZM17.3236 16.275C16.7713 16.275 16.3236 16.7227 16.3236 17.275C16.3236 17.8273 16.7713 18.275 17.3236 18.275V16.275ZM14.0366 8.21804C13.4843 8.21804 13.0366 8.66576 13.0366 9.21804C13.0366 9.77033 13.4843 10.218 14.0366 10.218V8.21804ZM14.0366 2.64014C13.4843 2.64014 13.0366 3.08785 13.0366 3.64014C13.0366 4.19242 13.4843 4.64014 14.0366 4.64014V2.64014ZM16.5941 12.6971C17.7673 12.6971 18.8801 13.7772 18.8801 15.3191H20.8801C20.8801 12.8603 19.0506 10.6971 16.5941 10.6971V12.6971ZM17.3236 18.275H18.1246V16.275H17.3236V18.275ZM18.8801 15.3191C18.8801 15.9514 18.443 16.275 18.1246 16.275V18.275C19.7453 18.275 20.8801 16.8473 20.8801 15.3191H18.8801ZM15.6662 6.42909C15.6662 7.47335 14.882 8.21804 14.0366 8.21804V10.218C16.0958 10.218 17.6662 8.46542 17.6662 6.42909H15.6662ZM14.0366 4.64014C14.882 4.64014 15.6662 5.38483 15.6662 6.42909H17.6662C17.6662 4.39276 16.0958 2.64014 14.0366 2.64014V4.64014Z" fill="white"/>
</svg>
