<svg width="62" height="22" viewBox="0 0 62 22" fill="none" xmlns="http://www.w3.org/2000/svg">
<g clip-path="url(#clip0_8024_7504)">
<path d="M6.45636 5.44691C7.03668 5.57478 7.5507 5.90535 7.90381 6.37777C8.25128 6.86435 8.43057 7.44863 8.41505 8.04384C8.42501 8.44724 8.3478 8.84811 8.18857 9.21973C8.02935 9.59135 7.79175 9.92519 7.49162 10.199C6.83273 10.7846 5.96812 11.0926 5.0824 11.0573H0.00195312V0.858887H4.84595C5.80666 0.858887 6.55222 1.11238 7.08263 1.61935C7.33522 1.84165 7.53707 2.11444 7.67479 2.41963C7.81251 2.72482 7.88295 3.05544 7.88144 3.38956C7.88162 3.83969 7.74468 4.27947 7.48843 4.65174C7.24483 5.02394 6.8812 5.30411 6.45636 5.44691ZM4.35708 3.02668H2.56455V4.75587H4.24525C4.52979 4.77487 4.81127 4.68822 5.03447 4.5129C5.12443 4.43411 5.19569 4.33671 5.24319 4.22764C5.29068 4.11856 5.31324 4.00048 5.30926 3.88181C5.31061 3.76792 5.28802 3.655 5.24292 3.55018C5.19782 3.44536 5.1312 3.35091 5.04726 3.27281C4.95422 3.18903 4.84538 3.12417 4.72696 3.08194C4.60854 3.03971 4.48285 3.02093 4.35708 3.02668ZM2.56455 8.84533H4.52324C4.84951 8.86869 5.172 8.76442 5.4211 8.55503C5.52341 8.46469 5.60488 8.3537 5.66 8.22958C5.71513 8.10547 5.74262 7.9711 5.74063 7.83558C5.7426 7.69822 5.71515 7.56199 5.66008 7.43583C5.60502 7.30967 5.52358 7.19643 5.4211 7.10352C5.19034 6.90172 4.88857 6.79748 4.58075 6.81322H2.56455V8.84533Z" fill="white"/>
<path d="M14.7805 11.2255C14.0634 11.2418 13.3503 11.1146 12.6842 10.8516C12.0181 10.5886 11.4128 10.1952 10.9047 9.69512C9.91039 8.69252 9.35352 7.34506 9.35352 5.94171C9.35352 4.53836 9.91039 3.1909 10.9047 2.1883C11.9409 1.20466 13.3225 0.655273 14.7598 0.655273C16.1971 0.655273 17.5786 1.20466 18.6149 2.1883C19.373 2.92833 19.8897 3.87543 20.0984 4.90779C20.3071 5.94015 20.1983 7.01057 19.786 7.98137C19.3737 8.95217 18.6767 9.77895 17.7847 10.3554C16.8927 10.9318 15.8464 11.2316 14.7805 11.216V11.2255ZM14.7805 8.66644C15.1365 8.67298 15.4901 8.6078 15.8197 8.47488C16.1494 8.34196 16.4481 8.14409 16.6977 7.89335C16.9563 7.63846 17.1592 7.33389 17.2938 6.99847C17.4285 6.66305 17.492 6.30392 17.4805 5.94329C17.4845 5.58159 17.4147 5.2228 17.2752 4.88832C17.1358 4.55383 16.9296 4.25049 16.6689 3.99638C16.4179 3.74641 16.1193 3.54801 15.7902 3.41262C15.4612 3.27722 15.1083 3.20751 14.7518 3.20751C14.3953 3.20751 14.0424 3.27722 13.7133 3.41262C13.3843 3.54801 13.0856 3.74641 12.8346 3.99638C12.335 4.52272 12.057 5.21712 12.057 5.93855C12.057 6.65999 12.335 7.35438 12.8346 7.88073C13.0842 8.13592 13.3844 8.33744 13.7165 8.47265C14.0486 8.60785 14.4054 8.67383 14.7646 8.66644H14.7805Z" fill="white"/>
<path d="M26.4962 11.2099C25.798 11.2294 25.1029 11.1111 24.4516 10.8619C23.8003 10.6126 23.2059 10.2374 22.7034 9.75835C22.1969 9.26641 21.7998 8.67563 21.5374 8.02367C21.2749 7.37172 21.153 6.6729 21.1793 5.97181C21.1589 5.2725 21.2823 4.57636 21.5422 3.92552C21.8021 3.27468 22.1929 2.68268 22.6912 2.18534C23.1894 1.68799 23.7847 1.29565 24.4409 1.03204C25.0971 0.76844 25.8007 0.639057 26.509 0.651727C27.3911 0.641597 28.2643 0.825937 29.0652 1.19131C29.8062 1.53014 30.4522 2.04248 30.9472 2.68384L29.2824 4.40987C28.4815 3.56841 27.6135 3.14769 26.6783 3.14769C26.3072 3.13936 25.9382 3.20618 25.5942 3.34402C25.2502 3.48186 24.9384 3.68781 24.6781 3.94917C24.4144 4.21811 24.2078 4.53646 24.0706 4.88547C23.9334 5.23447 23.8684 5.60706 23.8793 5.98128C23.8692 6.34925 23.9349 6.71541 24.0722 7.05763C24.2095 7.39985 24.4156 7.71103 24.6781 7.97237C24.9384 8.22944 25.2486 8.43186 25.5902 8.56743C25.9317 8.703 26.2975 8.76892 26.6655 8.76123C27.181 8.75677 27.6885 8.63588 28.1493 8.4078C28.6101 8.17973 29.0119 7.85052 29.324 7.44541L31.059 9.09255C30.5443 9.73907 29.8891 10.2632 29.1419 10.6261C28.3191 11.0245 27.4124 11.2245 26.4962 11.2099Z" fill="white"/>
<path d="M34.1783 11.0573H31.1396L34.3605 5.9076L31.4081 0.858887H34.4148L36.0539 3.98278L37.8465 0.858887H40.882L37.7187 5.9076L40.8117 11.0636H37.8177L36.0252 7.84189L34.1783 11.0573Z" fill="white"/>
<path d="M46.2298 11.2258C45.5126 11.2419 44.7996 11.1147 44.1335 10.8517C43.4674 10.5887 42.8621 10.1954 42.3539 9.69541C41.3596 8.69281 40.8027 7.34535 40.8027 5.942C40.8027 4.53866 41.3596 3.19119 42.3539 2.1886C43.3907 1.20475 44.7727 0.655273 46.2106 0.655273C47.6484 0.655273 49.0305 1.20475 50.0673 2.1886C50.8265 2.92955 51.3436 3.87812 51.5518 4.912C51.7601 5.94588 51.6499 7.01766 51.2356 7.98914C50.8212 8.96062 50.1217 9.78726 49.2272 10.3625C48.3327 10.9377 47.2842 11.2351 46.217 11.2163L46.2298 11.2258ZM46.2298 8.66673C46.5858 8.67364 46.9395 8.60863 47.2692 8.47569C47.5988 8.34275 47.8975 8.14468 48.1469 7.89365C48.4059 7.63891 48.6093 7.33444 48.7445 6.99903C48.8797 6.66363 48.9438 6.30442 48.9329 5.94358C48.9362 5.58198 48.866 5.22341 48.7266 4.88902C48.5872 4.55463 48.3814 4.25121 48.1213 3.99667C47.8703 3.74671 47.5717 3.5483 47.2427 3.41291C46.9136 3.27751 46.5607 3.20781 46.2042 3.20781C45.8477 3.20781 45.4948 3.27751 45.1657 3.41291C44.8367 3.5483 44.5381 3.74671 44.287 3.99667C43.7874 4.52302 43.5094 5.21741 43.5094 5.93885C43.5094 6.66028 43.7874 7.35467 44.287 7.88102C44.5361 8.13683 44.8363 8.33876 45.1685 8.47401C45.5007 8.60926 45.8577 8.67489 46.217 8.66673H46.2298Z" fill="white"/>
<path d="M61.3473 0.858552V8.68091H62.4816V13.1459H59.8775V11.0727H54.698V13.1459H52.0811V8.66513H53.0396C53.7596 7.3125 54.2773 5.18467 54.5925 2.28166L54.7619 0.842773L61.3473 0.858552ZM55.7364 8.68091H58.7463V3.263H57.0241L56.925 3.92565C56.7044 5.54343 56.3058 7.13264 55.7364 8.66513V8.68091Z" fill="white"/>
<path d="M0 21.9877V17.8548H2.60276V18.6931H0.952797V21.9877H0Z" fill="white"/>
<path d="M3.46229 21.9877V17.8548H5.22264C5.42017 17.8548 5.60027 17.8956 5.76295 17.9771C5.92949 18.0547 6.0728 18.1614 6.19287 18.2972C6.31293 18.4292 6.40589 18.5786 6.47173 18.7454C6.53758 18.9123 6.5705 19.0831 6.5705 19.2577C6.5705 19.4944 6.51434 19.7195 6.40202 19.9329C6.29357 20.1464 6.14058 20.321 5.94305 20.4568C5.74939 20.5888 5.51894 20.6547 5.25169 20.6547H4.41509V21.9877H3.46229ZM4.41509 19.8223H5.19359C5.26718 19.8223 5.33496 19.801 5.39693 19.7583C5.4589 19.7156 5.50925 19.6516 5.54798 19.5662C5.58672 19.4808 5.60608 19.3761 5.60608 19.2519C5.60608 19.1238 5.58284 19.019 5.53637 18.9375C5.49376 18.8522 5.4376 18.7901 5.36788 18.7513C5.30204 18.7125 5.23232 18.6931 5.15873 18.6931H4.41509V19.8223Z" fill="white"/>
<path d="M7.77339 22.0227V21.2368H8.1394C8.2401 21.2368 8.31757 21.2174 8.37179 21.1786C8.42601 21.1359 8.46862 21.07 8.49961 20.9807L8.55189 20.841L6.96583 17.8548H8.0174L8.976 19.8747L9.82423 17.8548H10.8293L9.22001 21.4289C9.10769 21.6501 8.97794 21.8054 8.83076 21.8946C8.68745 21.98 8.49573 22.0227 8.2556 22.0227H7.77339Z" fill="white"/>
<path d="M11.5058 21.9877V17.8548H14.9393V21.9877H13.9865V18.6931H12.4586V21.9877H11.5058Z" fill="white"/>
<path d="M16.0862 21.9877V17.8548H19.5197V21.9877H18.5669V18.6931H17.039V21.9877H16.0862Z" fill="white"/>
<path d="M21.6891 17.8548H22.7174L24.135 21.9877H23.1589L22.8394 21.0622H21.5555L21.2417 21.9877H20.2657L21.6891 17.8548ZM22.6825 20.4044L22.2003 18.8153L21.7065 20.4044H22.6825Z" fill="white"/>
<path d="M26.3778 21.9877V17.8548H27.3248V19.4556H27.6501L28.8005 17.8548H29.8578L28.3822 19.8514L29.9857 21.9877H28.8295L27.6211 20.3229H27.3248V21.9877H26.3778Z" fill="white"/>
<path d="M32.3618 22.0227C32.0519 22.0227 31.7711 21.9645 31.5194 21.848C31.2715 21.7277 31.0565 21.5686 30.8745 21.3707C30.6963 21.1689 30.5588 20.9438 30.462 20.6955C30.3652 20.4432 30.3168 20.1832 30.3168 19.9155C30.3168 19.6399 30.3671 19.378 30.4678 19.1296C30.5724 18.8813 30.7157 18.6601 30.8977 18.466C31.0837 18.2681 31.3025 18.1129 31.5542 18.0004C31.806 17.8878 32.081 17.8315 32.3792 17.8315C32.6852 17.8315 32.9621 17.8917 33.21 18.012C33.4618 18.1284 33.6767 18.2875 33.8549 18.4893C34.0369 18.6911 34.1764 18.9181 34.2732 19.1704C34.37 19.4187 34.4184 19.6729 34.4184 19.9329C34.4184 20.2085 34.3681 20.4704 34.2674 20.7188C34.1667 20.9671 34.0234 21.1903 33.8375 21.3882C33.6516 21.5822 33.4327 21.7374 33.181 21.8539C32.9331 21.9664 32.66 22.0227 32.3618 22.0227ZM31.287 19.9271C31.287 20.0862 31.3102 20.2414 31.3567 20.3928C31.4032 20.5403 31.471 20.6722 31.5601 20.7886C31.653 20.905 31.7673 20.9982 31.9028 21.068C32.0384 21.1379 32.1933 21.1728 32.3676 21.1728C32.5496 21.1728 32.7084 21.1379 32.844 21.068C32.9796 20.9943 33.0919 20.8973 33.181 20.777C33.2701 20.6567 33.3359 20.5228 33.3785 20.3753C33.425 20.224 33.4482 20.0707 33.4482 19.9155C33.4482 19.7564 33.425 19.6031 33.3785 19.4556C33.332 19.3081 33.2623 19.1762 33.1694 19.0598C33.0764 18.9395 32.9621 18.8463 32.8266 18.7804C32.691 18.7144 32.538 18.6814 32.3676 18.6814C32.1856 18.6814 32.0268 18.7163 31.8912 18.7862C31.7595 18.856 31.6472 18.9511 31.5542 19.0714C31.4652 19.1878 31.3974 19.3217 31.3509 19.4731C31.3083 19.6205 31.287 19.7719 31.287 19.9271Z" fill="white"/>
<path d="M38.542 21.9877V19.5255L37.6531 21.3183H37.1302L36.2413 19.5255V21.9877H35.2885V17.8548H36.3227L37.3917 20.0144L38.4665 17.8548H39.4948V21.9877H38.542Z" fill="white"/>
<path d="M40.6239 21.9877V17.8548H44.0575V21.9877H43.1047V18.6931H41.5767V21.9877H40.6239Z" fill="white"/>
<path d="M46.2268 17.8548H47.2552L48.6727 21.9877H47.6967L47.3772 21.0622H46.0932L45.7795 21.9877H44.8035L46.2268 17.8548ZM47.2203 20.4044L46.7381 18.8153L46.2443 20.4044H47.2203Z" fill="white"/>
<path d="M52.9483 17.8548V21.9877H51.9955V20.2938H50.3513V21.9877H49.3985V17.8548H50.3513V19.4556H51.9955V17.8548H52.9483Z" fill="white"/>
<path d="M54.0816 21.9877V17.8548H55.0344V20.6315L56.8121 17.8548H57.701V21.9877H56.7482V19.2286L54.9937 21.9877H54.0816Z" fill="white"/>
<path d="M58.8605 21.9877V17.8548H59.8133V20.6315L61.5911 17.8548H62.48V21.9877H61.5272V19.2286L59.7727 21.9877H58.8605ZM60.6732 17.6336C60.4446 17.6336 60.2413 17.5948 60.0631 17.5172C59.8889 17.4357 59.7533 17.3271 59.6565 17.1912C59.5596 17.0515 59.5112 16.8944 59.5112 16.7197H60.1445C60.1445 16.8361 60.189 16.9409 60.2781 17.0341C60.3672 17.1233 60.4989 17.1679 60.6732 17.1679C60.8475 17.1679 60.9791 17.1253 61.0682 17.0399C61.1612 16.9545 61.2077 16.8478 61.2077 16.7197H61.8409C61.8409 16.8944 61.7925 17.0515 61.6957 17.1912C61.5989 17.3271 61.4614 17.4357 61.2832 17.5172C61.1089 17.5948 60.9056 17.6336 60.6732 17.6336Z" fill="white"/>
</g>
<defs>
<clipPath id="clip0_8024_7504">
<rect width="62" height="22" fill="white"/>
</clipPath>
</defs>
</svg>
