<svg width="22" height="22" viewBox="0 0 22 22" fill="none" xmlns="http://www.w3.org/2000/svg">
<path fill-rule="evenodd" clip-rule="evenodd" d="M4.5835 1.8335C3.85415 1.8335 3.15468 2.12323 2.63895 2.63895C2.12323 3.15468 1.8335 4.5835 1.8335 4.5835V19.2502C1.8335 19.6209 2.05683 19.9552 2.39937 20.0971C2.7419 20.2389 3.13618 20.1605 3.39834 19.8983L6.79652 16.5002H17.4168C18.1462 16.5002 18.8456 16.2104 19.3614 15.6947C19.8771 15.179 20.1668 14.4795 20.1668 13.7502V4.5835C20.1668 3.85415 19.8771 3.15468 19.3614 2.63895C18.8456 2.12323 18.1462 1.8335 17.4168 1.8335H4.5835ZM5.9585 8.16683C5.40621 8.16683 4.9585 8.61454 4.9585 9.16683C4.9585 9.71911 5.40621 10.1668 5.9585 10.1668H6.87516C7.42745 10.1668 7.87516 9.71911 7.87516 9.16683C7.87516 8.61454 7.42745 8.16683 6.87516 8.16683H5.9585ZM9.54183 9.16683C9.54183 8.61454 9.98954 8.16683 10.5418 8.16683H11.4585C12.0108 8.16683 12.4585 8.61454 12.4585 9.16683C12.4585 9.71911 12.0108 10.1668 11.4585 10.1668H10.5418C9.98954 10.1668 9.54183 9.71911 9.54183 9.16683ZM15.1252 8.16683C14.5729 8.16683 14.1252 8.61454 14.1252 9.16683C14.1252 9.71911 14.5729 10.1668 15.1252 10.1668H16.0418C16.5941 10.1668 17.0418 9.71911 17.0418 9.16683C17.0418 8.61454 16.5941 8.16683 16.0418 8.16683H15.1252Z" fill="white"/>
</svg>
