<svg width="22" height="22" viewBox="0 0 22 22" fill="none" xmlns="http://www.w3.org/2000/svg">
<g clip-path="url(#clip0_1062_368952)">
<path d="M18.25 2.91675V19.0834H20.25V2.91675H18.25ZM9.25 19.0834V2.91675H7.25V19.0834H9.25ZM10.25 1.91675H11.4583V-0.083252H10.25V1.91675ZM11.4583 20.0834H10.25V22.0834H11.4583V20.0834ZM17.25 20.0834H16.0417V22.0834H17.25V20.0834ZM16.0417 20.0834H11.4583V22.0834H16.0417V20.0834ZM11.4583 1.91675H16.0417V-0.083252H11.4583V1.91675ZM16.0417 1.91675H17.25V-0.083252H16.0417V1.91675ZM10.4583 0.916748V4.58342H12.4583V0.916748H10.4583ZM10.4583 4.58342V21.0834H12.4583V4.58342H10.4583ZM17.0417 21.0834V4.58342H15.0417V21.0834H17.0417ZM17.0417 4.58342V0.916748H15.0417V4.58342H17.0417ZM7.25 19.0834C7.25 20.7403 8.59314 22.0834 10.25 22.0834V20.0834C9.69772 20.0834 9.25 19.6357 9.25 19.0834H7.25ZM18.25 19.0834C18.25 19.6357 17.8023 20.0834 17.25 20.0834V22.0834C18.9069 22.0834 20.25 20.7403 20.25 19.0834H18.25ZM20.25 2.91675C20.25 1.25989 18.9069 -0.083252 17.25 -0.083252V1.91675C17.8023 1.91675 18.25 2.36446 18.25 2.91675H20.25ZM9.25 2.91675C9.25 2.36446 9.69771 1.91675 10.25 1.91675V-0.083252C8.59315 -0.083252 7.25 1.25989 7.25 2.91675H9.25Z" fill="white"/>
<path d="M13.75 6.41658L13.1253 7.19745L13.75 7.69721L14.3747 7.19745L13.75 6.41658ZM10.8337 5.36412L13.1253 7.19745L14.3747 5.63572L12.0831 3.80238L10.8337 5.36412ZM14.3747 7.19745L16.6664 5.36412L15.417 3.80238L13.1253 5.63572L14.3747 7.19745Z" fill="white"/>
<path d="M13.75 11.9166L13.1253 12.6975L13.75 13.1972L14.3747 12.6975L13.75 11.9166ZM10.8337 10.8641L13.1253 12.6975L14.3747 11.1357L12.0831 9.30238L10.8337 10.8641ZM14.3747 12.6975L16.6664 10.8641L15.417 9.30238L13.1253 11.1357L14.3747 12.6975Z" fill="white"/>
<path d="M13.75 17.4166L13.1253 18.1975L13.75 18.6972L14.3747 18.1975L13.75 17.4166ZM10.8337 16.3641L13.1253 18.1975L14.3747 16.6357L12.0831 14.8024L10.8337 16.3641ZM14.3747 18.1975L16.6664 16.3641L15.417 14.8024L13.1253 16.6357L14.3747 18.1975Z" fill="white"/>
<path d="M8.24996 6.41675C4.19987 6.41675 0.916626 9.69999 0.916626 13.7501C0.916626 17.8002 4.19987 21.0834 8.24996 21.0834H13.75" stroke="white" stroke-width="2"/>
<path d="M8.25 16.5C6.73122 16.5 5.5 15.2688 5.5 13.75C5.5 12.2312 6.73122 11 8.25 11" stroke="white" stroke-width="2"/>
</g>
<defs>
<clipPath id="clip0_1062_368952">
<rect width="22" height="22" fill="white"/>
</clipPath>
</defs>
</svg>
