<svg>
        <symbol id="finance" width="22" height="22" viewBox="0 0 22 22" fill="currentColor" xmlns="http://www.w3.org/2000/svg">
            <g clip-path="url(#clip0_1062_368948)">
            <path d="M15.0036 1.92362L4.125 5.49992H17.4167V3.56959C17.4167 2.38535 16.1907 1.54913 15.0036 1.92362Z" stroke="none" stroke-width="2" stroke-linecap="round" stroke-linejoin="round"/>
            <path fill-rule="evenodd" clip-rule="evenodd" d="M4.58329 4.58325C2.55825 4.58325 0.916626 6.22487 0.916626 8.24992V17.4166C0.916626 19.4416 2.55825 21.0833 4.58329 21.0833H17.4166C19.4417 21.0833 21.0833 19.4416 21.0833 17.4166V17.0416H16.0416C13.7174 17.0416 11.8333 15.1575 11.8333 12.8333C11.8333 10.5091 13.7174 8.62492 16.0416 8.62492H21.0833V8.24992C21.0833 6.22487 19.4417 4.58325 17.4166 4.58325H4.58329ZM13.8333 12.8333C13.8333 11.6136 14.822 10.6249 16.0416 10.6249H21V12.8333V15.0416H16.0416C14.822 15.0416 13.8333 14.0529 13.8333 12.8333ZM16.5 11.8333C15.9477 11.8333 15.5 12.281 15.5 12.8333C15.5 13.3855 15.9477 13.8333 16.5 13.8333H17.4166C17.9689 13.8333 18.4166 13.3855 18.4166 12.8333C18.4166 12.281 17.9689 11.8333 17.4166 11.8333H16.5Z" fill="currentColor"/>
            </g>
            <defs>
            <clipPath id="clip0_1062_368948">
            <rect width="22" height="22" fill="currentColor"/>
            </clipPath>
            </defs>
        </symbol>
        <symbol id="finances" width="22" height="22" viewBox="0 0 22 22" fill="currentColor" xmlns="http://www.w3.org/2000/svg">
            <g clip-path="url(#clip0_1062_368948)">
            <path d="M15.0036 1.92362L4.125 5.49992H17.4167V3.56959C17.4167 2.38535 16.1907 1.54913 15.0036 1.92362Z" stroke="none" stroke-width="2" stroke-linecap="round" stroke-linejoin="round"/>
            <path fill-rule="evenodd" clip-rule="evenodd" d="M4.58329 4.58325C2.55825 4.58325 0.916626 6.22487 0.916626 8.24992V17.4166C0.916626 19.4416 2.55825 21.0833 4.58329 21.0833H17.4166C19.4417 21.0833 21.0833 19.4416 21.0833 17.4166V17.0416H16.0416C13.7174 17.0416 11.8333 15.1575 11.8333 12.8333C11.8333 10.5091 13.7174 8.62492 16.0416 8.62492H21.0833V8.24992C21.0833 6.22487 19.4417 4.58325 17.4166 4.58325H4.58329ZM13.8333 12.8333C13.8333 11.6136 14.822 10.6249 16.0416 10.6249H21V12.8333V15.0416H16.0416C14.822 15.0416 13.8333 14.0529 13.8333 12.8333ZM16.5 11.8333C15.9477 11.8333 15.5 12.281 15.5 12.8333C15.5 13.3855 15.9477 13.8333 16.5 13.8333H17.4166C17.9689 13.8333 18.4166 13.3855 18.4166 12.8333C18.4166 12.281 17.9689 11.8333 17.4166 11.8333H16.5Z" fill="currentColor"/>
            </g>
            <defs>
            <clipPath id="clip0_1062_368948">
            <rect width="22" height="22" fill="currentColor"/>
            </clipPath>
            </defs>
        </symbol>
        <symbol  id="balance" fill="currentColor" width="22px" height="22px" viewBox="0 0 24 24" xmlns="http://www.w3.org/2000/svg" stroke="currentColor">
            <g id="SVGRepo_bgCarrier" stroke-width="0"/>
            <g id="SVGRepo_tracerCarrier" stroke-linecap="round" stroke-linejoin="round"/>
            <g id="SVGRepo_iconCarrier">
            <path d="M22,9V19a1,1,0,0,1-1,1H7a1,1,0,0,1-1-1V18H19.5a.5.5,0,0,0,.5-.5V8h1A1,1,0,0,1,22,9ZM2,15V5A1,1,0,0,1,3,4H17a1,1,0,0,1,1,1V15a1,1,0,0,1-1,1H3A1,1,0,0,1,2,15Zm11-5a1,1,0,0,0,1,1h1a1,1,0,0,0,0-2H14A1,1,0,0,0,13,10ZM8,10a2,2,0,1,0,2-2A2,2,0,0,0,8,10ZM4,10a1,1,0,0,0,1,1H6A1,1,0,0,0,6,9H5A1,1,0,0,0,4,10Z"/>
            </g>
        </symbol>
        <symbol id="transaction" width="22px" height="22px" viewBox="0 0 24 24" fill="currentColor" xmlns="http://www.w3.org/2000/svg" stroke="currentColor">
            <g id="SVGRepo_bgCarrier" stroke-width="0"/>
            <g id="SVGRepo_tracerCarrier" stroke-linecap="round" stroke-linejoin="round"/>
            <g id="SVGRepo_iconCarrier"> <path fill-rule="evenodd" clip-rule="evenodd" d="M15.2929 3.29289C15.6834 2.90237 16.3166 2.90237 16.7071 3.29289L22.3657 8.95147C23.1216 9.70743 22.5862 11 21.5172 11H2C1.44772 11 1 10.5523 1 10C1 9.44772 1.44772 9 2 9H19.5858L15.2929 4.70711C14.9024 4.31658 14.9024 3.68342 15.2929 3.29289ZM4.41421 15H22C22.5523 15 23 14.5523 23 14C23 13.4477 22.5523 13 22 13H2.48284C1.41376 13 0.878355 14.2926 1.63431 15.0485L7.29289 20.7071C7.68342 21.0976 8.31658 21.0976 8.70711 20.7071C9.09763 20.3166 9.09763 19.6834 8.70711 19.2929L4.41421 15Z" fill="currentColor"/> </g>
        </symbol>
        <symbol id="sms" width="22px" height="22px" viewBox="0 0 24 24" id="Layer_1" data-name="Layer 1" xmlns="http://www.w3.org/2000/svg" fill="currentColor" stroke="currentColor">
            <g id="SVGRepo_bgCarrier" stroke-width="0"/>
            <g id="SVGRepo_tracerCarrier" stroke-linecap="round" stroke-linejoin="round"/>
            <g id="SVGRepo_iconCarrier">
            <defs>
            <style>.cls-1{fill:none;stroke:#ffffff;stroke-miterlimit:10;stroke-width:1.91px;}</style>
            </defs>
            <path class="cls-1" d="M18.68,8.16V15.8a2.86,2.86,0,0,1-2.86,2.86H13.91v2.86L8.18,18.66H4.36A2.86,2.86,0,0,1,1.5,15.8V8.16A2.86,2.86,0,0,1,4.36,5.3H15.82A2.86,2.86,0,0,1,18.68,8.16Z"/>
            <path class="cls-1" d="M18.68,14.84h1A2.86,2.86,0,0,0,22.5,12V4.34a2.86,2.86,0,0,0-2.86-2.86H8.18A2.86,2.86,0,0,0,5.32,4.34v1"/>
            <line class="cls-1" x1="5.32" y1="10.07" x2="14.86" y2="10.07"/>
            <line class="cls-1" x1="5.32" y1="13.89" x2="14.86" y2="13.89"/>
            </g>
        </symbol>
        <symbol id="report" fill="currentColor" width="22px" height="22px" viewBox="0 0 32 32" id="icon" xmlns="http://www.w3.org/2000/svg" stroke="currentColor" stroke-width="0.00032">
            <g id="SVGRepo_bgCarrier" stroke-width="0"/>
            <g id="SVGRepo_tracerCarrier" stroke-linecap="round" stroke-linejoin="round"/>
            <g id="SVGRepo_iconCarrier">
            <defs>
            <style>.cls-1{fill:none;}</style>
            </defs>
            <title>report--alt</title>
            <rect x="10" y="18" width="8" height="2"/>
            <rect x="10" y="13" width="12" height="2"/>
            <rect x="10" y="23" width="5" height="2"/>
            <path d="M25,5H22V4a2,2,0,0,0-2-2H12a2,2,0,0,0-2,2V5H7A2,2,0,0,0,5,7V28a2,2,0,0,0,2,2H25a2,2,0,0,0,2-2V7A2,2,0,0,0,25,5ZM12,4h8V8H12ZM25,28H7V7h3v3H22V7h3Z"/>
            <rect id="_Transparent_Rectangle_" data-name="&lt;Transparent Rectangle&gt;" class="cls-1" width="32" height="32"/>
            </g>
        </symbol>
        <symbol id='roles' width="22px" height="22px" viewBox="0 0 24 24" fill="currentColor" xmlns="http://www.w3.org/2000/svg" stroke="currentColor">
            <g id="SVGRepo_bgCarrier" stroke-width="0"/>
            <g id="SVGRepo_tracerCarrier" stroke-linecap="round" stroke-linejoin="round"/>
            <g id="SVGRepo_iconCarrier"> <path fill-rule="evenodd" clip-rule="evenodd" d="M3 5C2.44772 5 2 5.44771 2 6V18C2 18.5523 2.44772 19 3 19H21C21.5523 19 22 18.5523 22 18V6C22 5.44772 21.5523 5 21 5H3ZM0 6C0 4.34315 1.34314 3 3 3H21C22.6569 3 24 4.34315 24 6V18C24 19.6569 22.6569 21 21 21H3C1.34315 21 0 19.6569 0 18V6ZM6 10.5C6 9.67157 6.67157 9 7.5 9C8.32843 9 9 9.67157 9 10.5C9 11.3284 8.32843 12 7.5 12C6.67157 12 6 11.3284 6 10.5ZM10.1756 12.7565C10.69 12.1472 11 11.3598 11 10.5C11 8.567 9.433 7 7.5 7C5.567 7 4 8.567 4 10.5C4 11.3598 4.31002 12.1472 4.82438 12.7565C3.68235 13.4994 3 14.7069 3 16C3 16.5523 3.44772 17 4 17C4.55228 17 5 16.5523 5 16C5 15.1145 5.80048 14 7.5 14C9.19952 14 10 15.1145 10 16C10 16.5523 10.4477 17 11 17C11.5523 17 12 16.5523 12 16C12 14.7069 11.3177 13.4994 10.1756 12.7565ZM13 8C12.4477 8 12 8.44772 12 9C12 9.55228 12.4477 10 13 10H19C19.5523 10 20 9.55228 20 9C20 8.44772 19.5523 8 19 8H13ZM14 12C13.4477 12 13 12.4477 13 13C13 13.5523 13.4477 14 14 14H18C18.5523 14 19 13.5523 19 13C19 12.4477 18.5523 12 18 12H14Z" fill="currentColor"/> </g>
        </symbol>
        <symbol id='pdf' width="22px" height="22px" viewBox="0 0 24 24" fill="currentColor" xmlns="http://www.w3.org/2000/svg" stroke="currentColor">
            <g id="SVGRepo_bgCarrier" stroke-width="0"/>
            <g id="SVGRepo_tracerCarrier" stroke-linecap="round" stroke-linejoin="round"/>
            <g id="SVGRepo_iconCarrier"> <path fill-rule="evenodd" clip-rule="evenodd" d="M10 1C9.73478 1 9.48043 1.10536 9.29289 1.29289L3.29289 7.29289C3.10536 7.48043 3 7.73478 3 8V20C3 21.6569 4.34315 23 6 23H7C7.55228 23 8 22.5523 8 22C8 21.4477 7.55228 21 7 21H6C5.44772 21 5 20.5523 5 20V9H10C10.5523 9 11 8.55228 11 8V3H18C18.5523 3 19 3.44772 19 4V11C19 11.5523 19.4477 12 20 12C20.5523 12 21 11.5523 21 11V4C21 2.34315 19.6569 1 18 1H10ZM9 7H6.41421L9 4.41421V7ZM10.3078 23.5628C10.4657 23.7575 10.6952 23.9172 10.9846 23.9762C11.2556 24.0316 11.4923 23.981 11.6563 23.9212C11.9581 23.8111 12.1956 23.6035 12.3505 23.4506C12.5941 23.2105 12.8491 22.8848 13.1029 22.5169C14.2122 22.1342 15.7711 21.782 17.287 21.5602C18.1297 21.4368 18.9165 21.3603 19.5789 21.3343C19.8413 21.6432 20.08 21.9094 20.2788 22.1105C20.4032 22.2363 20.5415 22.3671 20.6768 22.4671C20.7378 22.5122 20.8519 22.592 20.999 22.6493C21.0755 22.6791 21.5781 22.871 22.0424 22.4969C22.3156 22.2768 22.5685 22.0304 22.7444 21.7525C22.9212 21.4733 23.0879 21.0471 22.9491 20.5625C22.8131 20.0881 22.4588 19.8221 22.198 19.6848C21.9319 19.5448 21.6329 19.4668 21.3586 19.4187C21.11 19.3751 20.8288 19.3478 20.5233 19.3344C19.9042 18.5615 19.1805 17.6002 18.493 16.6198C17.89 15.76 17.3278 14.904 16.891 14.1587C16.9359 13.9664 16.9734 13.7816 17.0025 13.606C17.0523 13.3052 17.0824 13.004 17.0758 12.7211C17.0695 12.4497 17.0284 12.1229 16.88 11.8177C16.7154 11.4795 16.416 11.1716 15.9682 11.051C15.5664 10.9428 15.1833 11.0239 14.8894 11.1326C14.4359 11.3004 14.1873 11.6726 14.1014 12.0361C14.0288 12.3437 14.0681 12.6407 14.1136 12.8529C14.2076 13.2915 14.4269 13.7956 14.6795 14.2893C14.702 14.3332 14.7251 14.3777 14.7487 14.4225C14.5103 15.2072 14.1578 16.1328 13.7392 17.0899C13.1256 18.4929 12.4055 19.8836 11.7853 20.878C11.3619 21.0554 10.9712 21.2584 10.6746 21.4916C10.4726 21.6505 10.2019 21.909 10.0724 22.2868C9.9132 22.7514 10.0261 23.2154 10.3078 23.5628ZM11.8757 23.0947C11.8755 23.0946 11.8775 23.0923 11.8824 23.0877C11.8783 23.0924 11.8759 23.0947 11.8757 23.0947ZM16.9974 19.5812C16.1835 19.7003 15.3445 19.8566 14.5498 20.0392C14.9041 19.3523 15.2529 18.6201 15.5716 17.8914C15.7526 17.4775 15.9269 17.0581 16.0885 16.6431C16.336 17.0175 16.5942 17.3956 16.8555 17.7681C17.2581 18.3421 17.6734 18.911 18.0759 19.4437C17.7186 19.4822 17.3567 19.5287 16.9974 19.5812ZM16.0609 12.3842C16.0608 12.3829 16.0607 12.3823 16.0606 12.3823C16.0606 12.3822 16.0607 12.3838 16.061 12.3872C16.061 12.386 16.0609 12.385 16.0609 12.3842Z" fill="currentColor"/> </g>
        </symbol>
        <symbol id='cron' fill="currentColor" height="22px" width="22px" version="1.1" id="Layer_1" xmlns="http://www.w3.org/2000/svg" xmlns:xlink="http://www.w3.org/1999/xlink" viewBox="0 0 491.5 491.5" xml:space="preserve" stroke="currentColor">
            <g id="SVGRepo_bgCarrier" stroke-width="0"/>
            <g id="SVGRepo_tracerCarrier" stroke-linecap="round" stroke-linejoin="round"/>
            <g id="SVGRepo_iconCarrier"> <g> <g> <path d="M348.1,245.7c-67.8,0-122.9,55.1-122.9,122.9s55.1,122.9,122.9,122.9S471,436.4,471,368.6S415.9,245.7,348.1,245.7z M403.5,362.6l-41,41c-4,4-9.2,6-14.5,6c-5.2,0-10.5-2-14.5-6L313,383.1c-8-8-8-21,0-29s21-8,29,0l6,6l26.5-26.5c8-8,21-8,29,0 C411.5,341.7,411.5,354.6,403.5,362.6z"/> </g> </g> <g> <g> <path d="M385.3,41h-57.7v-9.8c0-17.2-14-31.2-31.2-31.2H154c-17.2,0-31.2,14-31.2,31.2v9.7H65.2c-24.7,0-44.7,20.1-44.7,44.7 v361.1c0,24.7,20.1,44.7,44.7,44.7h174.9c-34.2-29.9-55.8-73.8-55.8-122.8h-81.9c-11.3,0-20.5-9.2-20.5-20.5s9.2-20.5,20.5-20.5 h81.9c1.8,0,3.4,0.6,5.1,1c3.8-14.9,9.5-29,17-42h-83.6c-11.3,0-20.5-9.2-20.5-20.5s9.2-20.5,20.5-20.5h102.4 c4.1,0,7.7,1.5,10.9,3.6c29.3-27.5,68.6-44.6,112-44.6c29.9,0,57.8,8.2,81.9,22.2V85.7C430,61,409.9,41,385.3,41z M163.8,184.3 h-41c-11.3,0-20.5-9.2-20.5-20.5c0-11.3,9.2-20.5,20.5-20.5h41c11.3,0,20.5,9.2,20.5,20.5C184.3,175.1,175.1,184.3,163.8,184.3z M163.8,81.9v-41h122.9v41H163.8z M327.6,184.3h-81.9c-11.3,0-20.5-9.2-20.5-20.5c0-11.3,9.2-20.5,20.5-20.5h81.9 c11.3,0,20.5,9.2,20.5,20.5C348.1,175.1,338.9,184.3,327.6,184.3z"/> </g> </g> </g>
        </symbol>
</svg>