<svg>
    <symbol id='logout' width="22" height="22" viewBox="0 0 22 22" fill="none" xmlns="http://www.w3.org/2000/svg">
        <path fill-rule="evenodd" clip-rule="evenodd" d="M8.66667 4.6665C7.17688 4.6665 6 5.8773 6 7.33317C6 8.78904 7.17688 9.99984 8.66667 9.99984C10.1564 9.99984 11.3333 8.78904 11.3333 7.33317C11.3333 5.8773 10.1564 4.6665 8.66667 4.6665ZM6.47834 11.3332C4.51511 11.3332 3 13.0318 3 15.0291C3 16.2508 3.92237 17.3332 5.16883 17.3332H12.1645C13.411 17.3332 14.3333 16.2508 14.3333 15.0291C14.3333 13.0318 12.8182 11.3332 10.855 11.3332H6.47834Z" fill="currentColor"/>
        <path d="M14.3335 8.78755L15.7085 9.99967L18.3335 7.33301" stroke="currentColor" stroke-width="1.5" stroke-linecap="round" stroke-linejoin="round"/>
    </symbol>
    <symbol id='main' viewBox="0 0 16 16" fill="none" xmlns="http://www.w3.org/2000/svg">
        <g clip-path="url(#clip0_6178_91629)">
        <path d="M1.3335 1.3335H6.51868V6.51868H1.3335V1.3335Z" fill="currentColor"/>
        <path d="M9.48164 1.3335H14.6668V6.51868H9.48164V1.3335Z" fill="currentColor"/>
        <path d="M1.3335 9.48164H6.51868V14.6668H1.3335V9.48164Z" fill="currentColor"/>
        <path d="M9.48164 9.48164H14.6668V14.6668H9.48164V9.48164Z" fill="currentColor"/>
        <path d="M1.3335 1.3335H6.51868V6.51868H1.3335V1.3335Z" stroke="currentColor" stroke-width="2" stroke-linecap="round" stroke-linejoin="round"/>
        <path d="M9.48164 1.3335H14.6668V6.51868H9.48164V1.3335Z" stroke="currentColor" stroke-width="2" stroke-linecap="round" stroke-linejoin="round"/>
        <path d="M1.3335 9.48164H6.51868V14.6668H1.3335V9.48164Z" stroke="currentColor" stroke-width="2" stroke-linecap="round" stroke-linejoin="round"/>
        <path d="M9.48164 9.48164H14.6668V14.6668H9.48164V9.48164Z" stroke="currentColor" stroke-width="2" stroke-linecap="round" stroke-linejoin="round"/>
        </g>
        <defs>
        <clipPath id="clip0_6178_91629">
        <rect width="16" height="16" fill="white"/>
        </clipPath>
        </defs>
    </symbol>
    <symbol id='finances' width="22" height="22" viewBox="0 0 22 22" fill="currentColor" xmlns="http://www.w3.org/2000/svg">
        <g clip-path="url(#clip0_1062_368948)">
        <path d="M15.0036 1.92362L4.125 5.49992H17.4167V3.56959C17.4167 2.38535 16.1907 1.54913 15.0036 1.92362Z" stroke="none" stroke-width="2" stroke-linecap="round" stroke-linejoin="round"/>
        <path fill-rule="evenodd" clip-rule="evenodd" d="M4.58329 4.58325C2.55825 4.58325 0.916626 6.22487 0.916626 8.24992V17.4166C0.916626 19.4416 2.55825 21.0833 4.58329 21.0833H17.4166C19.4417 21.0833 21.0833 19.4416 21.0833 17.4166V17.0416H16.0416C13.7174 17.0416 11.8333 15.1575 11.8333 12.8333C11.8333 10.5091 13.7174 8.62492 16.0416 8.62492H21.0833V8.24992C21.0833 6.22487 19.4417 4.58325 17.4166 4.58325H4.58329ZM13.8333 12.8333C13.8333 11.6136 14.822 10.6249 16.0416 10.6249H21V12.8333V15.0416H16.0416C14.822 15.0416 13.8333 14.0529 13.8333 12.8333ZM16.5 11.8333C15.9477 11.8333 15.5 12.281 15.5 12.8333C15.5 13.3855 15.9477 13.8333 16.5 13.8333H17.4166C17.9689 13.8333 18.4166 13.3855 18.4166 12.8333C18.4166 12.281 17.9689 11.8333 17.4166 11.8333H16.5Z" fill="currentColor"/>
        </g>
        <defs>
        <clipPath id="clip0_1062_368948">
        <rect width="22" height="22" fill="currentColor"/>
        </clipPath>
        </defs>
    </symbol>
    <symbol id='report' width="22" height="22" viewBox="0 0 22 22" fill="none" xmlns="http://www.w3.org/2000/svg">
        <path fill-rule="evenodd" clip-rule="evenodd" d="M7.33317 4.36667C7.33317 3.6585 7.86216 3 8.6665 3H13.3332C14.1375 3 14.6665 3.6585 14.6665 4.36667V4.4H15.2498C16.393 4.4 17.3332 5.31786 17.3332 6.46667V16.9333C17.3332 18.0821 16.393 19 15.2498 19H6.74984C5.6067 19 4.6665 18.0821 4.6665 16.9333V6.46667C4.6665 5.31786 5.6067 4.4 6.74984 4.4H7.33317V4.36667ZM8.6665 5C8.6665 4.63181 8.96498 4.33333 9.33317 4.33333H12.6665C13.0347 4.33333 13.3332 4.63181 13.3332 5C13.3332 5.36819 13.0347 5.66667 12.6665 5.66667H9.33317C8.96498 5.66667 8.6665 5.36819 8.6665 5ZM7.99984 8.91667C7.58562 8.91667 7.24984 9.25245 7.24984 9.66667C7.24984 10.0809 7.58562 10.4167 7.99984 10.4167H13.9998C14.4141 10.4167 14.7498 10.0809 14.7498 9.66667C14.7498 9.25245 14.4141 8.91667 13.9998 8.91667H7.99984ZM7.99984 11.5833C7.58562 11.5833 7.24984 11.9191 7.24984 12.3333C7.24984 12.7475 7.58562 13.0833 7.99984 13.0833H10.9998C11.4141 13.0833 11.7498 12.7475 11.7498 12.3333C11.7498 11.9191 11.4141 11.5833 10.9998 11.5833H7.99984Z" fill="currentColor"/>
    </symbol>
    <symbol id='finance' width="22" height="22" viewBox="0 0 22 22" fill="currentColor" xmlns="http://www.w3.org/2000/svg">
        <g clip-path="url(#clip0_1062_368948)">
        <path d="M15.0036 1.92362L4.125 5.49992H17.4167V3.56959C17.4167 2.38535 16.1907 1.54913 15.0036 1.92362Z" stroke="none" stroke-width="2" stroke-linecap="round" stroke-linejoin="round"/>
        <path fill-rule="evenodd" clip-rule="evenodd" d="M4.58329 4.58325C2.55825 4.58325 0.916626 6.22487 0.916626 8.24992V17.4166C0.916626 19.4416 2.55825 21.0833 4.58329 21.0833H17.4166C19.4417 21.0833 21.0833 19.4416 21.0833 17.4166V17.0416H16.0416C13.7174 17.0416 11.8333 15.1575 11.8333 12.8333C11.8333 10.5091 13.7174 8.62492 16.0416 8.62492H21.0833V8.24992C21.0833 6.22487 19.4417 4.58325 17.4166 4.58325H4.58329ZM13.8333 12.8333C13.8333 11.6136 14.822 10.6249 16.0416 10.6249H21V12.8333V15.0416H16.0416C14.822 15.0416 13.8333 14.0529 13.8333 12.8333ZM16.5 11.8333C15.9477 11.8333 15.5 12.281 15.5 12.8333C15.5 13.3855 15.9477 13.8333 16.5 13.8333H17.4166C17.9689 13.8333 18.4166 13.3855 18.4166 12.8333C18.4166 12.281 17.9689 11.8333 17.4166 11.8333H16.5Z" fill="currentColor"/>
        </g>
        <defs>
        <clipPath id="clip0_1062_368948">
        <rect width="22" height="22" fill="currentColor"/>
        </clipPath>
        </defs>
    </symbol>
    <symbol id='balance' fill="currentColor" width="22px" height="22px" viewBox="0 0 24 24" xmlns="http://www.w3.org/2000/svg" stroke="currentColor">
        <g id="SVGRepo_bgCarrier" stroke-width="0"/>
        <g id="SVGRepo_tracerCarrier" stroke-linecap="round" stroke-linejoin="round"/>
        <g id="SVGRepo_iconCarrier">
        <path d="M22,9V19a1,1,0,0,1-1,1H7a1,1,0,0,1-1-1V18H19.5a.5.5,0,0,0,.5-.5V8h1A1,1,0,0,1,22,9ZM2,15V5A1,1,0,0,1,3,4H17a1,1,0,0,1,1,1V15a1,1,0,0,1-1,1H3A1,1,0,0,1,2,15Zm11-5a1,1,0,0,0,1,1h1a1,1,0,0,0,0-2H14A1,1,0,0,0,13,10ZM8,10a2,2,0,1,0,2-2A2,2,0,0,0,8,10ZM4,10a1,1,0,0,0,1,1H6A1,1,0,0,0,6,9H5A1,1,0,0,0,4,10Z"/>
        </g>
    </symbol>
    <symbol id='transaction' width="22px" height="22px" viewBox="0 0 24 24" fill="currentColor" xmlns="http://www.w3.org/2000/svg" stroke="currentColor">
        <path d="M17.6667 7.3335L14.4959 4.3335M17.6667 7.3335L14.4959 10.3335M17.6667 7.3335H9M5 14.0002L8.17073 11.0002M5 14.0002L8.17073 17.0002M5 14.0002H13.6667" stroke="currentColor" stroke-width="2" stroke-linecap="round" stroke-linejoin="round"/>
    </symbol>
    <symbol id='bank-transaction' width="22px" height="22px" viewBox="0 0 24 24" version="1.1" xmlns="http://www.w3.org/2000/svg" xmlns:xlink="http://www.w3.org/1999/xlink" fill="currentColor">
        <g id="SVGRepo_bgCarrier" stroke-width="0"/>
        <g id="SVGRepo_tracerCarrier" stroke-linecap="round" stroke-linejoin="round"/>
        <g id="SVGRepo_iconCarrier"> <title>bank_fill</title> <g id="页面-1" stroke="none" stroke-width="1" fill="none" fill-rule="evenodd"> <g id="Building" transform="translate(-192.000000, -48.000000)"> <g id="bank_fill" transform="translate(192.000000, 48.000000)"> <path d="M24,0 L24,24 L0,24 L0,0 L24,0 Z M12.5934901,23.257841 L12.5819402,23.2595131 L12.5108777,23.2950439 L12.4918791,23.2987469 L12.4918791,23.2987469 L12.4767152,23.2950439 L12.4056548,23.2595131 C12.3958229,23.2563662 12.3870493,23.2590235 12.3821421,23.2649074 L12.3780323,23.275831 L12.360941,23.7031097 L12.3658947,23.7234994 L12.3769048,23.7357139 L12.4804777,23.8096931 L12.4953491,23.8136134 L12.4953491,23.8136134 L12.5071152,23.8096931 L12.6106902,23.7357139 L12.6232938,23.7196733 L12.6232938,23.7196733 L12.6266527,23.7031097 L12.609561,23.275831 C12.6075724,23.2657013 12.6010112,23.2592993 12.5934901,23.257841 L12.5934901,23.257841 Z M12.8583906,23.1452862 L12.8445485,23.1473072 L12.6598443,23.2396597 L12.6498822,23.2499052 L12.6498822,23.2499052 L12.6471943,23.2611114 L12.6650943,23.6906389 L12.6699349,23.7034178 L12.6699349,23.7034178 L12.678386,23.7104931 L12.8793402,23.8032389 C12.8914285,23.8068999 12.9022333,23.8029875 12.9078286,23.7952264 L12.9118235,23.7811639 L12.8776777,23.1665331 C12.8752882,23.1545897 12.8674102,23.1470016 12.8583906,23.1452862 L12.8583906,23.1452862 Z M12.1430473,23.1473072 C12.1332178,23.1423925 12.1221763,23.1452606 12.1156365,23.1525954 L12.1099173,23.1665331 L12.0757714,23.7811639 C12.0751323,23.7926639 12.0828099,23.8018602 12.0926481,23.8045676 L12.108256,23.8032389 L12.3092106,23.7104931 L12.3186497,23.7024347 L12.3186497,23.7024347 L12.3225043,23.6906389 L12.340401,23.2611114 L12.337245,23.2485176 L12.337245,23.2485176 L12.3277531,23.2396597 L12.1430473,23.1473072 Z" id="MingCute" fill-rule="nonzero"> </path> <path d="M12.6708,2.21744 L21.1708,6.96744 C21.679,7.22153 22,7.74092 22,8.30908 L22,9.75006 C22,10.4404 21.4404,11.0001 20.75,11.0001 L20,11.0001 L20,19.0001 L21,19.0001 C21.5523,19.0001 22,19.4478 22,20.0001 C22,20.5524 21.5523,21.0001 21,21.0001 L3,21.0001 C2.44772,21.0001 2,20.5524 2,20.0001 C2,19.4478 2.44772,19.0001 3,19.0001 L4,19.0001 L4,11.0001 L3.25,11.0001 C2.55964,11.0001 2,10.4404 2,9.75006 L2,8.30908 C2,7.78826667 2.26973757,7.30843368 2.70611413,7.03636428 L11.3292,2.21744 C11.7515,2.0063 12.2485,2.0063 12.6708,2.21744 Z M17,11.0001 L7,11.0001 L7,19.0001 L9,19.0001 L9,13.0001 L11,13.0001 L11,19.0001 L13,19.0001 L13,13.0001 L15,13.0001 L15,19.0001 L17,19.0001 L17,11.0001 Z M12,6.00012 C11.4477,6.00012 11,6.44784 11,7.00012 C11,7.55241 11.4477,8.00012 12,8.00012 C12.5523,8.00012 13,7.55241 13,7.00012 C13,6.44784 12.5523,6.00012 12,6.00012 Z" id="形状" fill="currentColor"> </path> </g> </g> </g> </g>
    </symbol>
    <symbol id='charge' width="22px" height="22px" viewBox="0 0 24 24" fill="currentColor" xmlns="http://www.w3.org/2000/svg" stroke="#ffffff">
        <g id="SVGRepo_bgCarrier" stroke-width="0"/>
        <g id="SVGRepo_tracerCarrier" stroke-linecap="round" stroke-linejoin="round"/>
        <g id="SVGRepo_iconCarrier"> <path d="M12 3V9M12 3L9.5 5.5M12 3L14.5 5.5M5.82333 9.00037C6.2383 9.36683 6.5 9.90285 6.5 10.5C6.5 11.6046 5.60457 12.5 4.5 12.5C3.90285 12.5 3.36683 12.2383 3.00037 11.8233M5.82333 9.00037C5.94144 9 6.06676 9 6.2 9H8M5.82333 9.00037C4.94852 9.00308 4.46895 9.02593 4.09202 9.21799C3.71569 9.40973 3.40973 9.71569 3.21799 10.092C3.02593 10.469 3.00308 10.9485 3.00037 11.8233M3.00037 11.8233C3 11.9414 3 12.0668 3 12.2V17.8C3 17.9332 3 18.0586 3.00037 18.1767M3.00037 18.1767C3.36683 17.7617 3.90285 17.5 4.5 17.5C5.60457 17.5 6.5 18.3954 6.5 19.5C6.5 20.0971 6.2383 20.6332 5.82333 20.9996M3.00037 18.1767C3.00308 19.0515 3.02593 19.5311 3.21799 19.908C3.40973 20.2843 3.71569 20.5903 4.09202 20.782C4.46895 20.9741 4.94852 20.9969 5.82333 20.9996M5.82333 20.9996C5.94144 21 6.06676 21 6.2 21H17.8C17.9332 21 18.0586 21 18.1767 20.9996M21 18.1771C20.6335 17.7619 20.0973 17.5 19.5 17.5C18.3954 17.5 17.5 18.3954 17.5 19.5C17.5 20.0971 17.7617 20.6332 18.1767 20.9996M21 18.1771C21.0004 18.0589 21 17.9334 21 17.8V12.2C21 12.0668 21 11.9414 20.9996 11.8233M21 18.1771C20.9973 19.0516 20.974 19.5311 20.782 19.908C20.5903 20.2843 20.2843 20.5903 19.908 20.782C19.5311 20.9741 19.0515 20.9969 18.1767 20.9996M20.9996 11.8233C20.6332 12.2383 20.0971 12.5 19.5 12.5C18.3954 12.5 17.5 11.6046 17.5 10.5C17.5 9.90285 17.7617 9.36683 18.1767 9.00037M20.9996 11.8233C20.9969 10.9485 20.9741 10.469 20.782 10.092C20.5903 9.71569 20.2843 9.40973 19.908 9.21799C19.5311 9.02593 19.0515 9.00308 18.1767 9.00037M18.1767 9.00037C18.0586 9 17.9332 9 17.8 9H16M14 15C14 16.1046 13.1046 17 12 17C10.8954 17 10 16.1046 10 15C10 13.8954 10.8954 13 12 13C13.1046 13 14 13.8954 14 15Z" stroke="currentColor" stroke-width="2" stroke-linecap="round" stroke-linejoin="round"/> </g>
    </symbol>
    <symbol id='options' width="22" height="22" viewBox="0 0 22 22" fill="none" xmlns="http://www.w3.org/2000/svg">
        <path fill-rule="evenodd" clip-rule="evenodd" d="M15.0198 4.985C15.3425 4.735 15.8088 4.59309 16.1223 4.85462C16.4933 5.16419 16.8358 5.50674 17.1454 5.87775C17.4069 6.19118 17.265 6.65747 17.015 6.98017C16.7966 7.26204 16.6667 7.61584 16.6667 8C16.6667 8.92047 17.4129 9.66667 18.3333 9.66667C18.6227 9.66667 18.9209 9.834 18.9523 10.1217C18.9838 10.4101 19 10.7032 19 11C19 11.2968 18.9838 11.5899 18.9523 11.8783C18.9209 12.166 18.6227 12.3333 18.3333 12.3333C17.4129 12.3333 16.6667 13.0795 16.6667 14C16.6667 14.3842 16.7966 14.738 17.015 15.0198C17.265 15.3425 17.4069 15.8088 17.1454 16.1222C16.8358 16.4933 16.4933 16.8358 16.1222 17.1454C15.8088 17.4069 15.3425 17.265 15.0198 17.015C14.738 16.7966 14.3842 16.6667 14 16.6667C13.0795 16.6667 12.3333 17.4129 12.3333 18.3333C12.3333 18.6227 12.166 18.9209 11.8783 18.9523C11.5899 18.9838 11.2968 19 11 19C10.7032 19 10.4101 18.9838 10.1217 18.9523C9.834 18.9209 9.66667 18.6227 9.66667 18.3333C9.66667 17.4129 8.92047 16.6667 8 16.6667C7.61584 16.6667 7.26204 16.7966 6.98017 17.015C6.65747 17.265 6.19118 17.4069 5.87775 17.1454C5.50674 16.8358 5.16419 16.4933 4.85462 16.1222C4.59309 15.8088 4.735 15.3425 4.985 15.0198C5.20336 14.738 5.33333 14.3842 5.33333 14C5.33333 13.0795 4.58714 12.3333 3.66667 12.3333C3.37726 12.3333 3.07908 12.166 3.04766 11.8783C3.01616 11.5899 3 11.2968 3 11C3 10.7032 3.01616 10.4101 3.04766 10.1217C3.07908 9.834 3.37726 9.66667 3.66667 9.66667C4.58714 9.66667 5.33333 8.92047 5.33333 8C5.33333 7.61584 5.20336 7.26204 4.985 6.98017C4.735 6.65747 4.59309 6.19118 4.85461 5.87775C5.16419 5.50674 5.50674 5.16419 5.87775 4.85462C6.19118 4.59309 6.65747 4.735 6.98017 4.985C7.26204 5.20336 7.61584 5.33333 8 5.33333C8.92047 5.33333 9.66667 4.58714 9.66667 3.66667C9.66667 3.37726 9.834 3.07908 10.1217 3.04766C10.4101 3.01616 10.7032 3 11 3C11.2968 3 11.5899 3.01616 11.8783 3.04766C12.166 3.07908 12.3333 3.37726 12.3333 3.66667C12.3333 4.58714 13.0795 5.33333 14 5.33333C14.3842 5.33333 14.738 5.20336 15.0198 4.985ZM11 13.6667C12.4728 13.6667 13.6667 12.4728 13.6667 11C13.6667 9.52724 12.4728 8.33333 11 8.33333C9.52724 8.33333 8.33333 9.52724 8.33333 11C8.33333 12.4728 9.52724 13.6667 11 13.6667Z" fill="currentColor"/>
    </symbol>
    <symbol id='bank-account' width="22" height="22" viewBox="0 0 22 22" fill="none" xmlns="http://www.w3.org/2000/svg">
        <path d="M11.259 11.9583H5.24105C3.10589 11.9583 1.375 13.8117 1.375 16.0979C1.375 17.3325 2.29975 18.3333 3.44048 18.3333H13.0595C14.2003 18.3333 15.125 17.3325 15.125 16.0979C15.125 13.8117 13.3941 11.9583 11.259 11.9583Z" fill="currentColor"/>
        <path d="M11.3438 5.9375C11.3438 7.69791 9.95863 9.125 8.25 9.125C6.54137 9.125 5.15625 7.69791 5.15625 5.9375C5.15625 4.17709 6.54137 2.75 8.25 2.75C9.95863 2.75 11.3438 4.17709 11.3438 5.9375Z" fill="currentColor"/>
        <path d="M16.5941 10.6971C16.0418 10.6971 15.5941 11.1448 15.5941 11.6971C15.5941 12.2494 16.0418 12.6971 16.5941 12.6971V10.6971ZM17.3236 16.275C16.7713 16.275 16.3236 16.7227 16.3236 17.275C16.3236 17.8273 16.7713 18.275 17.3236 18.275V16.275ZM14.0366 8.21804C13.4843 8.21804 13.0366 8.66576 13.0366 9.21804C13.0366 9.77033 13.4843 10.218 14.0366 10.218V8.21804ZM14.0366 2.64014C13.4843 2.64014 13.0366 3.08785 13.0366 3.64014C13.0366 4.19242 13.4843 4.64014 14.0366 4.64014V2.64014ZM16.5941 12.6971C17.7673 12.6971 18.8801 13.7772 18.8801 15.3191H20.8801C20.8801 12.8603 19.0506 10.6971 16.5941 10.6971V12.6971ZM17.3236 18.275H18.1246V16.275H17.3236V18.275ZM18.8801 15.3191C18.8801 15.9514 18.443 16.275 18.1246 16.275V18.275C19.7453 18.275 20.8801 16.8473 20.8801 15.3191H18.8801ZM15.6662 6.42909C15.6662 7.47335 14.882 8.21804 14.0366 8.21804V10.218C16.0958 10.218 17.6662 8.46542 17.6662 6.42909H15.6662ZM14.0366 4.64014C14.882 4.64014 15.6662 5.38483 15.6662 6.42909H17.6662C17.6662 4.39276 16.0958 2.64014 14.0366 2.64014V4.64014Z" fill="currentColor"/>
    </symbol>
    <symbol id='park' width="22" height="22" viewBox="0 0 22 22" fill="none" xmlns="http://www.w3.org/2000/svg">
        <path fill-rule="evenodd" clip-rule="evenodd" d="M7.33317 4.36667C7.33317 3.6585 7.86216 3 8.6665 3H13.3332C14.1375 3 14.6665 3.6585 14.6665 4.36667V4.4H15.2498C16.393 4.4 17.3332 5.31786 17.3332 6.46667V16.9333C17.3332 18.0821 16.393 19 15.2498 19H6.74984C5.6067 19 4.6665 18.0821 4.6665 16.9333V6.46667C4.6665 5.31786 5.6067 4.4 6.74984 4.4H7.33317V4.36667ZM8.6665 5C8.6665 4.63181 8.96498 4.33333 9.33317 4.33333H12.6665C13.0347 4.33333 13.3332 4.63181 13.3332 5C13.3332 5.36819 13.0347 5.66667 12.6665 5.66667H9.33317C8.96498 5.66667 8.6665 5.36819 8.6665 5ZM7.99984 8.91667C7.58562 8.91667 7.24984 9.25245 7.24984 9.66667C7.24984 10.0809 7.58562 10.4167 7.99984 10.4167H13.9998C14.4141 10.4167 14.7498 10.0809 14.7498 9.66667C14.7498 9.25245 14.4141 8.91667 13.9998 8.91667H7.99984ZM7.99984 11.5833C7.58562 11.5833 7.24984 11.9191 7.24984 12.3333C7.24984 12.7475 7.58562 13.0833 7.99984 13.0833H10.9998C11.4141 13.0833 11.7498 12.7475 11.7498 12.3333C11.7498 11.9191 11.4141 11.5833 10.9998 11.5833H7.99984Z" fill="currentColor"/>
    </symbol>
    <symbol id='roles' width="22" height="22" viewBox="0 0 22 22" fill="none" xmlns="http://www.w3.org/2000/svg">
        <path d="M11.259 11.9583H5.24105C3.10589 11.9583 1.375 13.8117 1.375 16.0979C1.375 17.3325 2.29975 18.3333 3.44048 18.3333H13.0595C14.2003 18.3333 15.125 17.3325 15.125 16.0979C15.125 13.8117 13.3941 11.9583 11.259 11.9583Z" fill="currentColor"/>
        <path d="M11.3438 5.9375C11.3438 7.69791 9.95863 9.125 8.25 9.125C6.54137 9.125 5.15625 7.69791 5.15625 5.9375C5.15625 4.17709 6.54137 2.75 8.25 2.75C9.95863 2.75 11.3438 4.17709 11.3438 5.9375Z" fill="currentColor"/>
        <path d="M16.5941 10.6971C16.0418 10.6971 15.5941 11.1448 15.5941 11.6971C15.5941 12.2494 16.0418 12.6971 16.5941 12.6971V10.6971ZM17.3236 16.275C16.7713 16.275 16.3236 16.7227 16.3236 17.275C16.3236 17.8273 16.7713 18.275 17.3236 18.275V16.275ZM14.0366 8.21804C13.4843 8.21804 13.0366 8.66576 13.0366 9.21804C13.0366 9.77033 13.4843 10.218 14.0366 10.218V8.21804ZM14.0366 2.64014C13.4843 2.64014 13.0366 3.08785 13.0366 3.64014C13.0366 4.19242 13.4843 4.64014 14.0366 4.64014V2.64014ZM16.5941 12.6971C17.7673 12.6971 18.8801 13.7772 18.8801 15.3191H20.8801C20.8801 12.8603 19.0506 10.6971 16.5941 10.6971V12.6971ZM17.3236 18.275H18.1246V16.275H17.3236V18.275ZM18.8801 15.3191C18.8801 15.9514 18.443 16.275 18.1246 16.275V18.275C19.7453 18.275 20.8801 16.8473 20.8801 15.3191H18.8801ZM15.6662 6.42909C15.6662 7.47335 14.882 8.21804 14.0366 8.21804V10.218C16.0958 10.218 17.6662 8.46542 17.6662 6.42909H15.6662ZM14.0366 4.64014C14.882 4.64014 15.6662 5.38483 15.6662 6.42909H17.6662C17.6662 4.39276 16.0958 2.64014 14.0366 2.64014V4.64014Z" fill="currentColor"/>
    </symbol>
    <symbol id='logs' width="22" height="22" viewBox="0 0 22 22" fill="none" xmlns="http://www.w3.org/2000/svg">
        <path fill-rule="evenodd" clip-rule="evenodd" d="M7.33317 4.36667C7.33317 3.6585 7.86216 3 8.6665 3H13.3332C14.1375 3 14.6665 3.6585 14.6665 4.36667V4.4H15.2498C16.393 4.4 17.3332 5.31786 17.3332 6.46667V16.9333C17.3332 18.0821 16.393 19 15.2498 19H6.74984C5.6067 19 4.6665 18.0821 4.6665 16.9333V6.46667C4.6665 5.31786 5.6067 4.4 6.74984 4.4H7.33317V4.36667ZM8.6665 5C8.6665 4.63181 8.96498 4.33333 9.33317 4.33333H12.6665C13.0347 4.33333 13.3332 4.63181 13.3332 5C13.3332 5.36819 13.0347 5.66667 12.6665 5.66667H9.33317C8.96498 5.66667 8.6665 5.36819 8.6665 5ZM7.99984 8.91667C7.58562 8.91667 7.24984 9.25245 7.24984 9.66667C7.24984 10.0809 7.58562 10.4167 7.99984 10.4167H13.9998C14.4141 10.4167 14.7498 10.0809 14.7498 9.66667C14.7498 9.25245 14.4141 8.91667 13.9998 8.91667H7.99984ZM7.99984 11.5833C7.58562 11.5833 7.24984 11.9191 7.24984 12.3333C7.24984 12.7475 7.58562 13.0833 7.99984 13.0833H10.9998C11.4141 13.0833 11.7498 12.7475 11.7498 12.3333C11.7498 11.9191 11.4141 11.5833 10.9998 11.5833H7.99984Z" fill="currentColor"/> 
    </symbol>
    <symbol id='cron' viewBox="0 0 16 16" fill="none" xmlns="http://www.w3.org/2000/svg">
        <g clip-path="url(#clip0_6178_91629)">
        <path d="M1.3335 1.3335H6.51868V6.51868H1.3335V1.3335Z" fill="currentColor"/>
        <path d="M9.48164 1.3335H14.6668V6.51868H9.48164V1.3335Z" fill="currentColor"/>
        <path d="M1.3335 9.48164H6.51868V14.6668H1.3335V9.48164Z" fill="currentColor"/>
        <path d="M9.48164 9.48164H14.6668V14.6668H9.48164V9.48164Z" fill="currentColor"/>
        <path d="M1.3335 1.3335H6.51868V6.51868H1.3335V1.3335Z" stroke="currentColor" stroke-width="2" stroke-linecap="round" stroke-linejoin="round"/>
        <path d="M9.48164 1.3335H14.6668V6.51868H9.48164V1.3335Z" stroke="currentColor" stroke-width="2" stroke-linecap="round" stroke-linejoin="round"/>
        <path d="M1.3335 9.48164H6.51868V14.6668H1.3335V9.48164Z" stroke="currentColor" stroke-width="2" stroke-linecap="round" stroke-linejoin="round"/>
        <path d="M9.48164 9.48164H14.6668V14.6668H9.48164V9.48164Z" stroke="currentColor" stroke-width="2" stroke-linecap="round" stroke-linejoin="round"/>
        </g>
        <defs>
        <clipPath id="clip0_6178_91629">
        <rect width="16" height="16" fill="white"/>
        </clipPath>
        </defs>
    </symbol>
    <symbol id='calendar' width="22" height="22" viewBox="0 0 22 22" fill="none" xmlns="http://www.w3.org/2000/svg">
        <path fill-rule="evenodd" clip-rule="evenodd" d="M9.00016 3.66667C9.00016 3.29848 8.70169 3 8.3335 3C7.96531 3 7.66683 3.29848 7.66683 3.66667V4.33333H6.3335C5.7733 4.33333 5.27671 4.5964 4.93048 4.94759C4.58553 5.29747 4.3335 5.7918 4.3335 6.33333V15.6667C4.3335 16.2082 4.58553 16.7025 4.93048 17.0524C5.27671 17.4036 5.7733 17.6667 6.3335 17.6667H15.6668C16.227 17.6667 16.7236 17.4036 17.0698 17.0524C17.4148 16.7025 17.6668 16.2082 17.6668 15.6667V6.33333C17.6668 5.35225 16.8569 4.33333 15.737 4.33333H14.3335V3.66667C14.3335 3.29848 14.035 3 13.6668 3C13.2986 3 13.0002 3.29848 13.0002 3.66667V4.33333H9.00016V3.66667ZM6.3335 5.66667H7.66683V6.33333C7.66683 6.70152 7.96531 7 8.3335 7C8.70169 7 9.00016 6.70152 9.00016 6.33333V5.66667H13.0002V6.33333C13.0002 6.70152 13.2986 7 13.6668 7C14.035 7 14.3335 6.70152 14.3335 6.33333V5.66667H15.737C16.0123 5.66667 16.3335 5.97555 16.3335 6.33333V8.33333H5.66683V6.33333C5.66683 6.20543 5.73265 6.03309 5.87996 5.88367C6.02599 5.73555 6.19607 5.66667 6.3335 5.66667ZM7.66683 10.9167C7.25262 10.9167 6.91683 11.2525 6.91683 11.6667C6.91683 12.0809 7.25262 12.4167 7.66683 12.4167H8.3335C8.74771 12.4167 9.0835 12.0809 9.0835 11.6667C9.0835 11.2525 8.74771 10.9167 8.3335 10.9167H7.66683ZM10.6668 10.9167C10.2526 10.9167 9.91683 11.2525 9.91683 11.6667C9.91683 12.0809 10.2526 12.4167 10.6668 12.4167H11.3335C11.7477 12.4167 12.0835 12.0809 12.0835 11.6667C12.0835 11.2525 11.7477 10.9167 11.3335 10.9167H10.6668ZM13.6668 10.9167C13.2526 10.9167 12.9168 11.2525 12.9168 11.6667C12.9168 12.0809 13.2526 12.4167 13.6668 12.4167H14.3335C14.7477 12.4167 15.0835 12.0809 15.0835 11.6667C15.0835 11.2525 14.7477 10.9167 14.3335 10.9167H13.6668ZM7.66683 13.5833C7.25262 13.5833 6.91683 13.9191 6.91683 14.3333C6.91683 14.7475 7.25262 15.0833 7.66683 15.0833H11.3335C11.7477 15.0833 12.0835 14.7475 12.0835 14.3333C12.0835 13.9191 11.7477 13.5833 11.3335 13.5833H7.66683ZM13.6668 13.5833C13.2526 13.5833 12.9168 13.9191 12.9168 14.3333C12.9168 14.7475 13.2526 15.0833 13.6668 15.0833H14.3335C14.7477 15.0833 15.0835 14.7475 15.0835 14.3333C15.0835 13.9191 14.7477 13.5833 14.3335 13.5833H13.6668Z" fill="currentColor"/>
    </symbol>
    <symbol id='documents' width="22" height="22" viewBox="0 0 22 22" fill="none" xmlns="http://www.w3.org/2000/svg">
        <path fill-rule="evenodd" clip-rule="evenodd" d="M7.33317 4.36667C7.33317 3.6585 7.86216 3 8.6665 3H13.3332C14.1375 3 14.6665 3.6585 14.6665 4.36667V4.4H15.2498C16.393 4.4 17.3332 5.31786 17.3332 6.46667V16.9333C17.3332 18.0821 16.393 19 15.2498 19H6.74984C5.6067 19 4.6665 18.0821 4.6665 16.9333V6.46667C4.6665 5.31786 5.6067 4.4 6.74984 4.4H7.33317V4.36667ZM8.6665 5C8.6665 4.63181 8.96498 4.33333 9.33317 4.33333H12.6665C13.0347 4.33333 13.3332 4.63181 13.3332 5C13.3332 5.36819 13.0347 5.66667 12.6665 5.66667H9.33317C8.96498 5.66667 8.6665 5.36819 8.6665 5ZM7.99984 8.91667C7.58562 8.91667 7.24984 9.25245 7.24984 9.66667C7.24984 10.0809 7.58562 10.4167 7.99984 10.4167H13.9998C14.4141 10.4167 14.7498 10.0809 14.7498 9.66667C14.7498 9.25245 14.4141 8.91667 13.9998 8.91667H7.99984ZM7.99984 11.5833C7.58562 11.5833 7.24984 11.9191 7.24984 12.3333C7.24984 12.7475 7.58562 13.0833 7.99984 13.0833H10.9998C11.4141 13.0833 11.7498 12.7475 11.7498 12.3333C11.7498 11.9191 11.4141 11.5833 10.9998 11.5833H7.99984Z" fill="currentColor"/> 
    </symbol>
    <symbol id='pdf' width="22" height="22" viewBox="0 0 22 22" fill="none" xmlns="http://www.w3.org/2000/svg">
        <path fill-rule="evenodd" clip-rule="evenodd" d="M7.33317 4.36667C7.33317 3.6585 7.86216 3 8.6665 3H13.3332C14.1375 3 14.6665 3.6585 14.6665 4.36667V4.4H15.2498C16.393 4.4 17.3332 5.31786 17.3332 6.46667V16.9333C17.3332 18.0821 16.393 19 15.2498 19H6.74984C5.6067 19 4.6665 18.0821 4.6665 16.9333V6.46667C4.6665 5.31786 5.6067 4.4 6.74984 4.4H7.33317V4.36667ZM8.6665 5C8.6665 4.63181 8.96498 4.33333 9.33317 4.33333H12.6665C13.0347 4.33333 13.3332 4.63181 13.3332 5C13.3332 5.36819 13.0347 5.66667 12.6665 5.66667H9.33317C8.96498 5.66667 8.6665 5.36819 8.6665 5ZM7.99984 8.91667C7.58562 8.91667 7.24984 9.25245 7.24984 9.66667C7.24984 10.0809 7.58562 10.4167 7.99984 10.4167H13.9998C14.4141 10.4167 14.7498 10.0809 14.7498 9.66667C14.7498 9.25245 14.4141 8.91667 13.9998 8.91667H7.99984ZM7.99984 11.5833C7.58562 11.5833 7.24984 11.9191 7.24984 12.3333C7.24984 12.7475 7.58562 13.0833 7.99984 13.0833H10.9998C11.4141 13.0833 11.7498 12.7475 11.7498 12.3333C11.7498 11.9191 11.4141 11.5833 10.9998 11.5833H7.99984Z" fill="currentColor"/> 
    </symbol>
    <symbol id='sms' width="22" height="22" viewBox="0 0 22 22" fill="none" xmlns="http://www.w3.org/2000/svg">
        <path fill-rule="evenodd" clip-rule="evenodd" d="M7.33317 4.36667C7.33317 3.6585 7.86216 3 8.6665 3H13.3332C14.1375 3 14.6665 3.6585 14.6665 4.36667V4.4H15.2498C16.393 4.4 17.3332 5.31786 17.3332 6.46667V16.9333C17.3332 18.0821 16.393 19 15.2498 19H6.74984C5.6067 19 4.6665 18.0821 4.6665 16.9333V6.46667C4.6665 5.31786 5.6067 4.4 6.74984 4.4H7.33317V4.36667ZM8.6665 5C8.6665 4.63181 8.96498 4.33333 9.33317 4.33333H12.6665C13.0347 4.33333 13.3332 4.63181 13.3332 5C13.3332 5.36819 13.0347 5.66667 12.6665 5.66667H9.33317C8.96498 5.66667 8.6665 5.36819 8.6665 5ZM7.99984 8.91667C7.58562 8.91667 7.24984 9.25245 7.24984 9.66667C7.24984 10.0809 7.58562 10.4167 7.99984 10.4167H13.9998C14.4141 10.4167 14.7498 10.0809 14.7498 9.66667C14.7498 9.25245 14.4141 8.91667 13.9998 8.91667H7.99984ZM7.99984 11.5833C7.58562 11.5833 7.24984 11.9191 7.24984 12.3333C7.24984 12.7475 7.58562 13.0833 7.99984 13.0833H10.9998C11.4141 13.0833 11.7498 12.7475 11.7498 12.3333C11.7498 11.9191 11.4141 11.5833 10.9998 11.5833H7.99984Z" fill="currentColor"/>
    </symbol>
    <symbol id='mango'  width="22" height="22" viewBox="0 0 22 22" fill="none" xmlns="http://www.w3.org/2000/svg">
        <path fill-rule="evenodd" clip-rule="evenodd" d="M7.33317 4.36667C7.33317 3.6585 7.86216 3 8.6665 3H13.3332C14.1375 3 14.6665 3.6585 14.6665 4.36667V4.4H15.2498C16.393 4.4 17.3332 5.31786 17.3332 6.46667V16.9333C17.3332 18.0821 16.393 19 15.2498 19H6.74984C5.6067 19 4.6665 18.0821 4.6665 16.9333V6.46667C4.6665 5.31786 5.6067 4.4 6.74984 4.4H7.33317V4.36667ZM8.6665 5C8.6665 4.63181 8.96498 4.33333 9.33317 4.33333H12.6665C13.0347 4.33333 13.3332 4.63181 13.3332 5C13.3332 5.36819 13.0347 5.66667 12.6665 5.66667H9.33317C8.96498 5.66667 8.6665 5.36819 8.6665 5ZM7.99984 8.91667C7.58562 8.91667 7.24984 9.25245 7.24984 9.66667C7.24984 10.0809 7.58562 10.4167 7.99984 10.4167H13.9998C14.4141 10.4167 14.7498 10.0809 14.7498 9.66667C14.7498 9.25245 14.4141 8.91667 13.9998 8.91667H7.99984ZM7.99984 11.5833C7.58562 11.5833 7.24984 11.9191 7.24984 12.3333C7.24984 12.7475 7.58562 13.0833 7.99984 13.0833H10.9998C11.4141 13.0833 11.7498 12.7475 11.7498 12.3333C11.7498 11.9191 11.4141 11.5833 10.9998 11.5833H7.99984Z" fill="currentColor"/>
    </symbol>
    <symbol id='commercial'  width="22" height="22" viewBox="0 0 22 22" fill="none" xmlns="http://www.w3.org/2000/svg">
        <path fill-rule="evenodd" clip-rule="evenodd" d="M7.33317 4.36667C7.33317 3.6585 7.86216 3 8.6665 3H13.3332C14.1375 3 14.6665 3.6585 14.6665 4.36667V4.4H15.2498C16.393 4.4 17.3332 5.31786 17.3332 6.46667V16.9333C17.3332 18.0821 16.393 19 15.2498 19H6.74984C5.6067 19 4.6665 18.0821 4.6665 16.9333V6.46667C4.6665 5.31786 5.6067 4.4 6.74984 4.4H7.33317V4.36667ZM8.6665 5C8.6665 4.63181 8.96498 4.33333 9.33317 4.33333H12.6665C13.0347 4.33333 13.3332 4.63181 13.3332 5C13.3332 5.36819 13.0347 5.66667 12.6665 5.66667H9.33317C8.96498 5.66667 8.6665 5.36819 8.6665 5ZM7.99984 8.91667C7.58562 8.91667 7.24984 9.25245 7.24984 9.66667C7.24984 10.0809 7.58562 10.4167 7.99984 10.4167H13.9998C14.4141 10.4167 14.7498 10.0809 14.7498 9.66667C14.7498 9.25245 14.4141 8.91667 13.9998 8.91667H7.99984ZM7.99984 11.5833C7.58562 11.5833 7.24984 11.9191 7.24984 12.3333C7.24984 12.7475 7.58562 13.0833 7.99984 13.0833H10.9998C11.4141 13.0833 11.7498 12.7475 11.7498 12.3333C11.7498 11.9191 11.4141 11.5833 10.9998 11.5833H7.99984Z" fill="currentColor"/>
    </symbol>
    <symbol id='avito-chats'  width="22" height="22" viewBox="0 0 22 22" fill="none" xmlns="http://www.w3.org/2000/svg">
        <path fill-rule="evenodd" clip-rule="evenodd" d="M7.33317 4.36667C7.33317 3.6585 7.86216 3 8.6665 3H13.3332C14.1375 3 14.6665 3.6585 14.6665 4.36667V4.4H15.2498C16.393 4.4 17.3332 5.31786 17.3332 6.46667V16.9333C17.3332 18.0821 16.393 19 15.2498 19H6.74984C5.6067 19 4.6665 18.0821 4.6665 16.9333V6.46667C4.6665 5.31786 5.6067 4.4 6.74984 4.4H7.33317V4.36667ZM8.6665 5C8.6665 4.63181 8.96498 4.33333 9.33317 4.33333H12.6665C13.0347 4.33333 13.3332 4.63181 13.3332 5C13.3332 5.36819 13.0347 5.66667 12.6665 5.66667H9.33317C8.96498 5.66667 8.6665 5.36819 8.6665 5ZM7.99984 8.91667C7.58562 8.91667 7.24984 9.25245 7.24984 9.66667C7.24984 10.0809 7.58562 10.4167 7.99984 10.4167H13.9998C14.4141 10.4167 14.7498 10.0809 14.7498 9.66667C14.7498 9.25245 14.4141 8.91667 13.9998 8.91667H7.99984ZM7.99984 11.5833C7.58562 11.5833 7.24984 11.9191 7.24984 12.3333C7.24984 12.7475 7.58562 13.0833 7.99984 13.0833H10.9998C11.4141 13.0833 11.7498 12.7475 11.7498 12.3333C11.7498 11.9191 11.4141 11.5833 10.9998 11.5833H7.99984Z" fill="currentColor"/>
    
    </symbol>
    <symbol id='avito-messages'  width="22" height="22" viewBox="0 0 22 22" fill="none" xmlns="http://www.w3.org/2000/svg">
        <path fill-rule="evenodd" clip-rule="evenodd" d="M7.33317 4.36667C7.33317 3.6585 7.86216 3 8.6665 3H13.3332C14.1375 3 14.6665 3.6585 14.6665 4.36667V4.4H15.2498C16.393 4.4 17.3332 5.31786 17.3332 6.46667V16.9333C17.3332 18.0821 16.393 19 15.2498 19H6.74984C5.6067 19 4.6665 18.0821 4.6665 16.9333V6.46667C4.6665 5.31786 5.6067 4.4 6.74984 4.4H7.33317V4.36667ZM8.6665 5C8.6665 4.63181 8.96498 4.33333 9.33317 4.33333H12.6665C13.0347 4.33333 13.3332 4.63181 13.3332 5C13.3332 5.36819 13.0347 5.66667 12.6665 5.66667H9.33317C8.96498 5.66667 8.6665 5.36819 8.6665 5ZM7.99984 8.91667C7.58562 8.91667 7.24984 9.25245 7.24984 9.66667C7.24984 10.0809 7.58562 10.4167 7.99984 10.4167H13.9998C14.4141 10.4167 14.7498 10.0809 14.7498 9.66667C14.7498 9.25245 14.4141 8.91667 13.9998 8.91667H7.99984ZM7.99984 11.5833C7.58562 11.5833 7.24984 11.9191 7.24984 12.3333C7.24984 12.7475 7.58562 13.0833 7.99984 13.0833H10.9998C11.4141 13.0833 11.7498 12.7475 11.7498 12.3333C11.7498 11.9191 11.4141 11.5833 10.9998 11.5833H7.99984Z" fill="currentColor"/>
    
    </symbol>
    <symbol id='avito-items' width="22" height="22" viewBox="0 0 22 22" fill="none" xmlns="http://www.w3.org/2000/svg">
        <path fill-rule="evenodd" clip-rule="evenodd" d="M7.33317 4.36667C7.33317 3.6585 7.86216 3 8.6665 3H13.3332C14.1375 3 14.6665 3.6585 14.6665 4.36667V4.4H15.2498C16.393 4.4 17.3332 5.31786 17.3332 6.46667V16.9333C17.3332 18.0821 16.393 19 15.2498 19H6.74984C5.6067 19 4.6665 18.0821 4.6665 16.9333V6.46667C4.6665 5.31786 5.6067 4.4 6.74984 4.4H7.33317V4.36667ZM8.6665 5C8.6665 4.63181 8.96498 4.33333 9.33317 4.33333H12.6665C13.0347 4.33333 13.3332 4.63181 13.3332 5C13.3332 5.36819 13.0347 5.66667 12.6665 5.66667H9.33317C8.96498 5.66667 8.6665 5.36819 8.6665 5ZM7.99984 8.91667C7.58562 8.91667 7.24984 9.25245 7.24984 9.66667C7.24984 10.0809 7.58562 10.4167 7.99984 10.4167H13.9998C14.4141 10.4167 14.7498 10.0809 14.7498 9.66667C14.7498 9.25245 14.4141 8.91667 13.9998 8.91667H7.99984ZM7.99984 11.5833C7.58562 11.5833 7.24984 11.9191 7.24984 12.3333C7.24984 12.7475 7.58562 13.0833 7.99984 13.0833H10.9998C11.4141 13.0833 11.7498 12.7475 11.7498 12.3333C11.7498 11.9191 11.4141 11.5833 10.9998 11.5833H7.99984Z" fill="currentColor"/>
    
    </symbol>
    <symbol id='cars' width="22" height="20" viewBox="0 0 22 20" fill="none" xmlns="http://www.w3.org/2000/svg">
        <path d="M21.0806 11.9934V16.0257H19.0645L19.0644 18.5459H15.0321L15.0321 16.0257H6.96748L6.96745 18.5459H2.93513L2.93516 16.0257H0.918993V11.9934C0.918993 10.6493 0.717377 7.96109 3.94324 7.96109L4.95132 3.92876C4.95132 3.25671 5.35455 1.9126 6.96748 1.9126H15.0321C16.6451 1.9126 17.0483 3.25671 17.0483 3.92876L18.0564 7.96109C21.2822 7.96109 21.0806 10.6493 21.0806 11.9934Z" fill="currentColor"/>
        <path d="M18.0564 7.96109C21.2822 7.96109 21.0806 10.6493 21.0806 11.9934V16.0257H19.0645M18.0564 7.96109C15.3682 7.96109 7.1691 7.96109 3.94324 7.96109M18.0564 7.96109L17.0483 3.92876C17.0483 3.25671 16.6451 1.9126 15.0321 1.9126C13.016 1.9126 8.58041 1.9126 6.96748 1.9126C5.35455 1.9126 4.95132 3.25671 4.95132 3.92876L3.94324 7.96109M3.94324 7.96109C0.717377 7.96109 0.918993 10.6493 0.918993 11.9934V16.0257H2.93516M2.93516 16.0257H6.96748M2.93516 16.0257L2.93513 18.5459H6.96746L6.96748 16.0257M6.96748 16.0257H15.0321M19.0645 16.0257H15.0321M19.0645 16.0257L19.0644 18.5459H15.0321L15.0321 16.0257" stroke="none" stroke-width="2" stroke-linecap="round" stroke-linejoin="round"/>
        <path fill-rule="evenodd" clip-rule="evenodd" d="M4.95144 6.95323H17.0484L16.1844 4.26501C16.1844 3.81697 15.8387 2.9209 14.4562 2.9209H7.54365C6.16114 2.9209 5.81551 3.81697 5.81551 4.26501L4.95144 6.95323ZM3.94336 9.98555C3.39107 9.98555 2.94336 10.4333 2.94336 10.9856C2.94336 11.5378 3.39107 11.9856 3.94336 11.9856H5.95952C6.51181 11.9856 6.95952 11.5378 6.95952 10.9856C6.95952 10.4333 6.51181 9.98555 5.95952 9.98555H3.94336ZM16.0403 9.98555C15.4881 9.98555 15.0403 10.4333 15.0403 10.9856C15.0403 11.5378 15.4881 11.9856 16.0403 11.9856H18.0565C18.6088 11.9856 19.0565 11.5378 19.0565 10.9856C19.0565 10.4333 18.6088 9.98555 18.0565 9.98555H16.0403Z" fill="currentColor"/>
    </symbol>
    <symbol id='request'  width="22" height="22" viewBox="0 0 22 22" fill="none" xmlns="http://www.w3.org/2000/svg">
        <path fill-rule="evenodd" clip-rule="evenodd" d="M7.33317 4.36667C7.33317 3.6585 7.86216 3 8.6665 3H13.3332C14.1375 3 14.6665 3.6585 14.6665 4.36667V4.4H15.2498C16.393 4.4 17.3332 5.31786 17.3332 6.46667V16.9333C17.3332 18.0821 16.393 19 15.2498 19H6.74984C5.6067 19 4.6665 18.0821 4.6665 16.9333V6.46667C4.6665 5.31786 5.6067 4.4 6.74984 4.4H7.33317V4.36667ZM8.6665 5C8.6665 4.63181 8.96498 4.33333 9.33317 4.33333H12.6665C13.0347 4.33333 13.3332 4.63181 13.3332 5C13.3332 5.36819 13.0347 5.66667 12.6665 5.66667H9.33317C8.96498 5.66667 8.6665 5.36819 8.6665 5ZM7.99984 8.91667C7.58562 8.91667 7.24984 9.25245 7.24984 9.66667C7.24984 10.0809 7.58562 10.4167 7.99984 10.4167H13.9998C14.4141 10.4167 14.7498 10.0809 14.7498 9.66667C14.7498 9.25245 14.4141 8.91667 13.9998 8.91667H7.99984ZM7.99984 11.5833C7.58562 11.5833 7.24984 11.9191 7.24984 12.3333C7.24984 12.7475 7.58562 13.0833 7.99984 13.0833H10.9998C11.4141 13.0833 11.7498 12.7475 11.7498 12.3333C11.7498 11.9191 11.4141 11.5833 10.9998 11.5833H7.99984Z" fill="currentColor"/>
    
    </symbol>
    <symbol id='cars-to' width="22" height="22" viewBox="0 0 22 22" fill="none" xmlns="http://www.w3.org/2000/svg">
        <path fill-rule="evenodd" clip-rule="evenodd" d="M15.0198 4.985C15.3425 4.735 15.8088 4.59309 16.1223 4.85462C16.4933 5.16419 16.8358 5.50674 17.1454 5.87775C17.4069 6.19118 17.265 6.65747 17.015 6.98017C16.7966 7.26204 16.6667 7.61584 16.6667 8C16.6667 8.92047 17.4129 9.66667 18.3333 9.66667C18.6227 9.66667 18.9209 9.834 18.9523 10.1217C18.9838 10.4101 19 10.7032 19 11C19 11.2968 18.9838 11.5899 18.9523 11.8783C18.9209 12.166 18.6227 12.3333 18.3333 12.3333C17.4129 12.3333 16.6667 13.0795 16.6667 14C16.6667 14.3842 16.7966 14.738 17.015 15.0198C17.265 15.3425 17.4069 15.8088 17.1454 16.1222C16.8358 16.4933 16.4933 16.8358 16.1222 17.1454C15.8088 17.4069 15.3425 17.265 15.0198 17.015C14.738 16.7966 14.3842 16.6667 14 16.6667C13.0795 16.6667 12.3333 17.4129 12.3333 18.3333C12.3333 18.6227 12.166 18.9209 11.8783 18.9523C11.5899 18.9838 11.2968 19 11 19C10.7032 19 10.4101 18.9838 10.1217 18.9523C9.834 18.9209 9.66667 18.6227 9.66667 18.3333C9.66667 17.4129 8.92047 16.6667 8 16.6667C7.61584 16.6667 7.26204 16.7966 6.98017 17.015C6.65747 17.265 6.19118 17.4069 5.87775 17.1454C5.50674 16.8358 5.16419 16.4933 4.85462 16.1222C4.59309 15.8088 4.735 15.3425 4.985 15.0198C5.20336 14.738 5.33333 14.3842 5.33333 14C5.33333 13.0795 4.58714 12.3333 3.66667 12.3333C3.37726 12.3333 3.07908 12.166 3.04766 11.8783C3.01616 11.5899 3 11.2968 3 11C3 10.7032 3.01616 10.4101 3.04766 10.1217C3.07908 9.834 3.37726 9.66667 3.66667 9.66667C4.58714 9.66667 5.33333 8.92047 5.33333 8C5.33333 7.61584 5.20336 7.26204 4.985 6.98017C4.735 6.65747 4.59309 6.19118 4.85461 5.87775C5.16419 5.50674 5.50674 5.16419 5.87775 4.85462C6.19118 4.59309 6.65747 4.735 6.98017 4.985C7.26204 5.20336 7.61584 5.33333 8 5.33333C8.92047 5.33333 9.66667 4.58714 9.66667 3.66667C9.66667 3.37726 9.834 3.07908 10.1217 3.04766C10.4101 3.01616 10.7032 3 11 3C11.2968 3 11.5899 3.01616 11.8783 3.04766C12.166 3.07908 12.3333 3.37726 12.3333 3.66667C12.3333 4.58714 13.0795 5.33333 14 5.33333C14.3842 5.33333 14.738 5.20336 15.0198 4.985ZM11 13.6667C12.4728 13.6667 13.6667 12.4728 13.6667 11C13.6667 9.52724 12.4728 8.33333 11 8.33333C9.52724 8.33333 8.33333 9.52724 8.33333 11C8.33333 12.4728 9.52724 13.6667 11 13.6667Z" fill="currentColor"/>
    </symbol>
    <symbol id='cars-to-list' width="22" height="22" viewBox="0 0 22 22" fill="none" xmlns="http://www.w3.org/2000/svg">
        <path fill-rule="evenodd" clip-rule="evenodd" d="M15.0198 4.985C15.3425 4.735 15.8088 4.59309 16.1223 4.85462C16.4933 5.16419 16.8358 5.50674 17.1454 5.87775C17.4069 6.19118 17.265 6.65747 17.015 6.98017C16.7966 7.26204 16.6667 7.61584 16.6667 8C16.6667 8.92047 17.4129 9.66667 18.3333 9.66667C18.6227 9.66667 18.9209 9.834 18.9523 10.1217C18.9838 10.4101 19 10.7032 19 11C19 11.2968 18.9838 11.5899 18.9523 11.8783C18.9209 12.166 18.6227 12.3333 18.3333 12.3333C17.4129 12.3333 16.6667 13.0795 16.6667 14C16.6667 14.3842 16.7966 14.738 17.015 15.0198C17.265 15.3425 17.4069 15.8088 17.1454 16.1222C16.8358 16.4933 16.4933 16.8358 16.1222 17.1454C15.8088 17.4069 15.3425 17.265 15.0198 17.015C14.738 16.7966 14.3842 16.6667 14 16.6667C13.0795 16.6667 12.3333 17.4129 12.3333 18.3333C12.3333 18.6227 12.166 18.9209 11.8783 18.9523C11.5899 18.9838 11.2968 19 11 19C10.7032 19 10.4101 18.9838 10.1217 18.9523C9.834 18.9209 9.66667 18.6227 9.66667 18.3333C9.66667 17.4129 8.92047 16.6667 8 16.6667C7.61584 16.6667 7.26204 16.7966 6.98017 17.015C6.65747 17.265 6.19118 17.4069 5.87775 17.1454C5.50674 16.8358 5.16419 16.4933 4.85462 16.1222C4.59309 15.8088 4.735 15.3425 4.985 15.0198C5.20336 14.738 5.33333 14.3842 5.33333 14C5.33333 13.0795 4.58714 12.3333 3.66667 12.3333C3.37726 12.3333 3.07908 12.166 3.04766 11.8783C3.01616 11.5899 3 11.2968 3 11C3 10.7032 3.01616 10.4101 3.04766 10.1217C3.07908 9.834 3.37726 9.66667 3.66667 9.66667C4.58714 9.66667 5.33333 8.92047 5.33333 8C5.33333 7.61584 5.20336 7.26204 4.985 6.98017C4.735 6.65747 4.59309 6.19118 4.85461 5.87775C5.16419 5.50674 5.50674 5.16419 5.87775 4.85462C6.19118 4.59309 6.65747 4.735 6.98017 4.985C7.26204 5.20336 7.61584 5.33333 8 5.33333C8.92047 5.33333 9.66667 4.58714 9.66667 3.66667C9.66667 3.37726 9.834 3.07908 10.1217 3.04766C10.4101 3.01616 10.7032 3 11 3C11.2968 3 11.5899 3.01616 11.8783 3.04766C12.166 3.07908 12.3333 3.37726 12.3333 3.66667C12.3333 4.58714 13.0795 5.33333 14 5.33333C14.3842 5.33333 14.738 5.20336 15.0198 4.985ZM11 13.6667C12.4728 13.6667 13.6667 12.4728 13.6667 11C13.6667 9.52724 12.4728 8.33333 11 8.33333C9.52724 8.33333 8.33333 9.52724 8.33333 11C8.33333 12.4728 9.52724 13.6667 11 13.6667Z" fill="currentColor"/>
    </symbol>
    <symbol id='cars-history' width="22" height="22" viewBox="0 0 22 22" fill="none" xmlns="http://www.w3.org/2000/svg">
        <path fill-rule="evenodd" clip-rule="evenodd" d="M9.00016 3.66667C9.00016 3.29848 8.70169 3 8.3335 3C7.96531 3 7.66683 3.29848 7.66683 3.66667V4.33333H6.3335C5.7733 4.33333 5.27671 4.5964 4.93048 4.94759C4.58553 5.29747 4.3335 5.7918 4.3335 6.33333V15.6667C4.3335 16.2082 4.58553 16.7025 4.93048 17.0524C5.27671 17.4036 5.7733 17.6667 6.3335 17.6667H15.6668C16.227 17.6667 16.7236 17.4036 17.0698 17.0524C17.4148 16.7025 17.6668 16.2082 17.6668 15.6667V6.33333C17.6668 5.35225 16.8569 4.33333 15.737 4.33333H14.3335V3.66667C14.3335 3.29848 14.035 3 13.6668 3C13.2986 3 13.0002 3.29848 13.0002 3.66667V4.33333H9.00016V3.66667ZM6.3335 5.66667H7.66683V6.33333C7.66683 6.70152 7.96531 7 8.3335 7C8.70169 7 9.00016 6.70152 9.00016 6.33333V5.66667H13.0002V6.33333C13.0002 6.70152 13.2986 7 13.6668 7C14.035 7 14.3335 6.70152 14.3335 6.33333V5.66667H15.737C16.0123 5.66667 16.3335 5.97555 16.3335 6.33333V8.33333H5.66683V6.33333C5.66683 6.20543 5.73265 6.03309 5.87996 5.88367C6.02599 5.73555 6.19607 5.66667 6.3335 5.66667ZM7.66683 10.9167C7.25262 10.9167 6.91683 11.2525 6.91683 11.6667C6.91683 12.0809 7.25262 12.4167 7.66683 12.4167H8.3335C8.74771 12.4167 9.0835 12.0809 9.0835 11.6667C9.0835 11.2525 8.74771 10.9167 8.3335 10.9167H7.66683ZM10.6668 10.9167C10.2526 10.9167 9.91683 11.2525 9.91683 11.6667C9.91683 12.0809 10.2526 12.4167 10.6668 12.4167H11.3335C11.7477 12.4167 12.0835 12.0809 12.0835 11.6667C12.0835 11.2525 11.7477 10.9167 11.3335 10.9167H10.6668ZM13.6668 10.9167C13.2526 10.9167 12.9168 11.2525 12.9168 11.6667C12.9168 12.0809 13.2526 12.4167 13.6668 12.4167H14.3335C14.7477 12.4167 15.0835 12.0809 15.0835 11.6667C15.0835 11.2525 14.7477 10.9167 14.3335 10.9167H13.6668ZM7.66683 13.5833C7.25262 13.5833 6.91683 13.9191 6.91683 14.3333C6.91683 14.7475 7.25262 15.0833 7.66683 15.0833H11.3335C11.7477 15.0833 12.0835 14.7475 12.0835 14.3333C12.0835 13.9191 11.7477 13.5833 11.3335 13.5833H7.66683ZM13.6668 13.5833C13.2526 13.5833 12.9168 13.9191 12.9168 14.3333C12.9168 14.7475 13.2526 15.0833 13.6668 15.0833H14.3335C14.7477 15.0833 15.0835 14.7475 15.0835 14.3333C15.0835 13.9191 14.7477 13.5833 14.3335 13.5833H13.6668Z" fill="currentColor"/>
    </symbol>
    <symbol id='drivers' width="22" height="22" viewBox="0 0 22 22" fill="none" xmlns="http://www.w3.org/2000/svg">
        <path d="M11.259 11.9583H5.24105C3.10589 11.9583 1.375 13.8117 1.375 16.0979C1.375 17.3325 2.29975 18.3333 3.44048 18.3333H13.0595C14.2003 18.3333 15.125 17.3325 15.125 16.0979C15.125 13.8117 13.3941 11.9583 11.259 11.9583Z" fill="currentColor"/>
        <path d="M11.3438 5.9375C11.3438 7.69791 9.95863 9.125 8.25 9.125C6.54137 9.125 5.15625 7.69791 5.15625 5.9375C5.15625 4.17709 6.54137 2.75 8.25 2.75C9.95863 2.75 11.3438 4.17709 11.3438 5.9375Z" fill="currentColor"/>
        <path d="M16.5941 10.6971C16.0418 10.6971 15.5941 11.1448 15.5941 11.6971C15.5941 12.2494 16.0418 12.6971 16.5941 12.6971V10.6971ZM17.3236 16.275C16.7713 16.275 16.3236 16.7227 16.3236 17.275C16.3236 17.8273 16.7713 18.275 17.3236 18.275V16.275ZM14.0366 8.21804C13.4843 8.21804 13.0366 8.66576 13.0366 9.21804C13.0366 9.77033 13.4843 10.218 14.0366 10.218V8.21804ZM14.0366 2.64014C13.4843 2.64014 13.0366 3.08785 13.0366 3.64014C13.0366 4.19242 13.4843 4.64014 14.0366 4.64014V2.64014ZM16.5941 12.6971C17.7673 12.6971 18.8801 13.7772 18.8801 15.3191H20.8801C20.8801 12.8603 19.0506 10.6971 16.5941 10.6971V12.6971ZM17.3236 18.275H18.1246V16.275H17.3236V18.275ZM18.8801 15.3191C18.8801 15.9514 18.443 16.275 18.1246 16.275V18.275C19.7453 18.275 20.8801 16.8473 20.8801 15.3191H18.8801ZM15.6662 6.42909C15.6662 7.47335 14.882 8.21804 14.0366 8.21804V10.218C16.0958 10.218 17.6662 8.46542 17.6662 6.42909H15.6662ZM14.0366 4.64014C14.882 4.64014 15.6662 5.38483 15.6662 6.42909H17.6662C17.6662 4.39276 16.0958 2.64014 14.0366 2.64014V4.64014Z" fill="currentColor"/>
    </symbol>
    <symbol id='contragents' width="22" height="22" viewBox="0 0 22 22" fill="none" xmlns="http://www.w3.org/2000/svg">
        <path d="M11.259 11.9583H5.24105C3.10589 11.9583 1.375 13.8117 1.375 16.0979C1.375 17.3325 2.29975 18.3333 3.44048 18.3333H13.0595C14.2003 18.3333 15.125 17.3325 15.125 16.0979C15.125 13.8117 13.3941 11.9583 11.259 11.9583Z" fill="currentColor"/>
        <path d="M11.3438 5.9375C11.3438 7.69791 9.95863 9.125 8.25 9.125C6.54137 9.125 5.15625 7.69791 5.15625 5.9375C5.15625 4.17709 6.54137 2.75 8.25 2.75C9.95863 2.75 11.3438 4.17709 11.3438 5.9375Z" fill="currentColor"/>
        <path d="M16.5941 10.6971C16.0418 10.6971 15.5941 11.1448 15.5941 11.6971C15.5941 12.2494 16.0418 12.6971 16.5941 12.6971V10.6971ZM17.3236 16.275C16.7713 16.275 16.3236 16.7227 16.3236 17.275C16.3236 17.8273 16.7713 18.275 17.3236 18.275V16.275ZM14.0366 8.21804C13.4843 8.21804 13.0366 8.66576 13.0366 9.21804C13.0366 9.77033 13.4843 10.218 14.0366 10.218V8.21804ZM14.0366 2.64014C13.4843 2.64014 13.0366 3.08785 13.0366 3.64014C13.0366 4.19242 13.4843 4.64014 14.0366 4.64014V2.64014ZM16.5941 12.6971C17.7673 12.6971 18.8801 13.7772 18.8801 15.3191H20.8801C20.8801 12.8603 19.0506 10.6971 16.5941 10.6971V12.6971ZM17.3236 18.275H18.1246V16.275H17.3236V18.275ZM18.8801 15.3191C18.8801 15.9514 18.443 16.275 18.1246 16.275V18.275C19.7453 18.275 20.8801 16.8473 20.8801 15.3191H18.8801ZM15.6662 6.42909C15.6662 7.47335 14.882 8.21804 14.0366 8.21804V10.218C16.0958 10.218 17.6662 8.46542 17.6662 6.42909H15.6662ZM14.0366 4.64014C14.882 4.64014 15.6662 5.38483 15.6662 6.42909H17.6662C17.6662 4.39276 16.0958 2.64014 14.0366 2.64014V4.64014Z" fill="currentColor"/>
    </symbol>
    <symbol id='fines' width="22" height="22" viewBox="0 0 22 22" fill="none" xmlns="http://www.w3.org/2000/svg">
        <path fill-rule="evenodd" clip-rule="evenodd" d="M8.23984 3.6665C8.06303 3.6665 7.89346 3.73674 7.76843 3.86177L3.86177 7.76843C3.73674 7.89346 3.6665 8.06303 3.6665 8.23984V13.7598C3.6665 13.9366 3.73674 14.1062 3.86177 14.2312L7.76843 18.1379C7.89346 18.2629 8.06303 18.3332 8.23984 18.3332H13.7598C13.9366 18.3332 14.1062 18.2629 14.2312 18.1379L18.1379 14.2312C18.2629 14.1062 18.3332 13.9366 18.3332 13.7598V8.23984C18.3332 8.06303 18.2629 7.89346 18.1379 7.76843L14.2312 3.86177C14.1062 3.73674 13.9366 3.6665 13.7598 3.6665H8.23984ZM11.7496 7.99984C11.7496 7.58562 11.4138 7.24984 10.9996 7.24984C10.5854 7.24984 10.2496 7.58562 10.2496 7.99984V10.9997C10.2496 11.4139 10.5854 11.7497 10.9996 11.7497C11.4138 11.7497 11.7496 11.4139 11.7496 10.9997V7.99984ZM11.7496 13.9995C11.7496 13.5853 11.4138 13.2495 10.9996 13.2495C10.5854 13.2495 10.2496 13.5853 10.2496 13.9995V14.3328C10.2496 14.747 10.5854 15.0828 10.9996 15.0828C11.4138 15.0828 11.7496 14.747 11.7496 14.3328V13.9995Z" fill="currentColor"/>
    </symbol>
</svg>