<svg width="22" height="22" viewBox="0 0 22 22" fill="none" xmlns="http://www.w3.org/2000/svg">
<g clip-path="url(#clip0_1062_368951)">
<path fill-rule="evenodd" clip-rule="evenodd" d="M10.6 1.92929L10.5992 1.92971L8.43608 3.03486L15.5834 6.68645L18.1473 5.37653L11.4008 1.92971L11.4 1.92929C11.1474 1.80135 10.8526 1.80135 10.6 1.92929ZM3.85272 5.37653L6.42128 4.06423L13.5686 7.71583L11 9.02812L3.85272 5.37653ZM5.92217 2.26048L2.43583 4.04168L2.43466 4.04227C1.49799 4.51843 0.917215 5.48734 0.916671 6.53517L0.916671 15.4498C0.910793 16.4987 1.48675 17.4721 2.42206 17.9536L2.42462 17.9549L9.75769 21.7015C10.5362 22.0995 11.4547 22.0995 12.2332 21.7015L19.5642 17.956L19.5652 17.9554C20.502 17.4793 21.0828 16.5104 21.0833 15.4625V6.53564C21.0828 5.48775 20.5019 4.5183 19.5652 4.04218L19.5642 4.04168L12.2329 0.29607L12.2308 0.29503C11.4561 -0.0983433 10.5439 -0.0983433 9.76916 0.29503L9.76712 0.296072L6.07962 2.18004C6.02485 2.20167 5.97208 2.22857 5.92217 2.26048Z" fill="white"/>
</g>
<defs>
<clipPath id="clip0_1062_368951">
<rect width="22" height="22" fill="white"/>
</clipPath>
</defs>
</svg>
