<svg width="17" height="17" viewBox="0 0 17 17" fill="none" xmlns="http://www.w3.org/2000/svg">
<path d="M6.8692 14.0221C6.55748 14.2949 6.08365 14.2633 5.81089 13.9516C5.53813 13.6398 5.56972 13.166 5.88145 12.8932L6.8692 14.0221ZM12.042 8.49935L12.5359 7.93492C12.6986 8.07733 12.792 8.28308 12.792 8.49935C12.792 8.71562 12.6986 8.92137 12.5359 9.06378L12.042 8.49935ZM5.88145 4.10545C5.56972 3.83269 5.53813 3.35886 5.81089 3.04714C6.08366 2.73541 6.55748 2.70382 6.8692 2.97658L5.88145 4.10545ZM5.88145 12.8932L11.5481 7.93492L12.5359 9.06378L6.8692 14.0221L5.88145 12.8932ZM11.5481 9.06378L5.88145 4.10545L6.8692 2.97658L12.5359 7.93492L11.5481 9.06378Z" fill="white"/>
</svg>
